<?xml version="1.0" encoding="utf-8"?>
<svg xmlns="http://www.w3.org/2000/svg" width="4000.5" height="2250.5" viewBox="0 0 4000.5 2250.5">
  <defs>
    <clipPath id="clip-6">
      <path clip-rule="nonzero" d="M 1278 463 L 1280 463 L 1280 468 L 1278 468 Z M 1278 463 "/>
    </clipPath>
    <clipPath id="clip-7">
      <path clip-rule="nonzero" d="M 1279.53125 467.28125 L 1278.980469 464.859375 C 1278.898438 464.480469 1278.789062 464.019531 1279.238281 463.859375 C 1279.308594 463.828125 1279.679688 463.71875 1279.921875 464.179688 C 1280.03125 464.359375 1280 464.609375 1279.960938 464.839844 Z M 1279.53125 467.28125 "/>
    </clipPath>
    <clipPath id="clip-8">
      <path clip-rule="nonzero" d="M 1279.53125 467.28125 L 1278.980469 464.859375 C 1278.898438 464.480469 1278.789062 464.019531 1279.238281 463.859375 C 1279.308594 463.828125 1279.679688 463.71875 1279.921875 464.179688 C 1280.03125 464.359375 1280 464.609375 1279.960938 464.839844 L 1279.53125 467.28125 "/>
    </clipPath>
    <linearGradient id="linear-pattern-2" gradientUnits="userSpaceOnUse" x1="-0.0406801" y1="0" x2="1.010883" y2="0" gradientTransform="matrix(-0.193856, 3.44095, -3.44095, -0.193856, 1279.49, 463.83)">
      <stop offset="0" stop-color="rgb(96.076965%, 68.234253%, 52.548218%)" stop-opacity="1"/>
      <stop offset="0.25" stop-color="rgb(96.076965%, 68.234253%, 52.548218%)" stop-opacity="1"/>
      <stop offset="0.375" stop-color="rgb(96.115112%, 68.348694%, 52.662659%)" stop-opacity="1"/>
      <stop offset="0.5" stop-color="rgb(96.202087%, 68.608093%, 52.922058%)" stop-opacity="1"/>
      <stop offset="0.625" stop-color="rgb(96.298218%, 68.896484%, 53.208923%)" stop-opacity="1"/>
      <stop offset="0.75" stop-color="rgb(96.394348%, 69.18335%, 53.497314%)" stop-opacity="1"/>
      <stop offset="1" stop-color="rgb(96.455383%, 69.369507%, 53.683472%)" stop-opacity="1"/>
    </linearGradient>
    <clipPath id="clip-21">
      <path clip-rule="nonzero" d="M 3506 683 L 4000.5 683 L 4000.5 1109 L 3506 1109 Z M 3506 683 "/>
    </clipPath>
    <clipPath id="clip-22">
      <path clip-rule="nonzero" d="M 3464 635 L 4000.5 635 L 4000.5 1061 L 3464 1061 Z M 3464 635 "/>
    </clipPath>
    <clipPath id="clip-35">
      <path clip-rule="nonzero" d="M 1427 1012 L 2374 1012 L 2374 1560 L 1427 1560 Z M 1427 1012 "/>
    </clipPath>
    <clipPath id="clip-36">
      <path clip-rule="nonzero" d="M 1438.28125 1559.160156 L 1442.398438 1506.5 L 1442.398438 1500.261719 C 1490.039062 1493.03125 1451.320312 1491.480469 1461.5 1485 C 1472.5 1478 1471.5 1483 1533.050781 1474.339844 C 1553.578125 1471.449219 1573.128906 1470.488281 1590.101562 1470.488281 C 1624.019531 1470.488281 1647.558594 1474.339844 1647.558594 1474.339844 C 1647.558594 1474.339844 1810.5 1441 1805.5 1437.03125 C 1800.5 1433.050781 1751.5 1431 1729.5 1427 C 1720.699219 1425.398438 1708.699219 1424.921875 1694.140625 1424.921875 C 1672.300781 1424.921875 1644.699219 1426 1613.5 1426 C 1561.5 1426 1558.5 1431 1513.558594 1437.03125 C 1468.621094 1443.050781 1448.5 1481 1448.5 1481 C 1448.5 1481 1446.351562 1481.699219 1442.398438 1482.820312 L 1442.398438 1408.789062 C 1442.398438 1408.789062 1428 1347.5 1429.058594 1335.140625 C 1429.070312 1335.03125 1429.078125 1334.910156 1429.089844 1334.769531 C 1437.980469 1329.210938 1446.480469 1323.890625 1454.308594 1318.988281 L 1491.558594 1299.488281 C 1502.96875 1315.609375 1519.53125 1337.371094 1533 1348.5 C 1556 1367.5 1572.550781 1400.898438 1575.28125 1407.199219 C 1575.769531 1408.320312 1576.648438 1408.789062 1577.769531 1408.789062 C 1582.921875 1408.789062 1593.140625 1399 1593.140625 1399 C 1593.140625 1399 1628.359375 1346.078125 1647.679688 1309.789062 C 1667 1273.5 1698 1236.5 1698 1213.5 C 1698 1190.5 1722 1186.5 1682 1160.5 C 1642 1134.5 1548 1078.5 1548 1078.5 L 1472.058594 1021.640625 C 1466.800781 1023.019531 1461.578125 1024 1456.5 1024 C 1437.5 1024 1429.058594 1043.328125 1429.058594 1043.328125 C 1429.058594 1043.328125 1437.5 1024 1456.5 1024 C 1461.578125 1024 1466.800781 1023.019531 1472.058594 1021.640625 C 1484.640625 1018.351562 1497.390625 1012.75 1508.671875 1012.75 C 1510.328125 1012.75 1511.96875 1012.871094 1513.558594 1013.140625 C 1530.5 1016 1603.101562 1054.300781 1603.101562 1054.300781 L 1656.5 1090 C 1656.5 1090 1700.46875 1108 1736.480469 1125 C 1772.5 1142 1816.5 1156 1816.5 1156 L 1898.5 1213 C 1898.5 1213 1970.5 1257.128906 2000.5 1282.058594 C 2009 1289.121094 2009.78125 1291.878906 2009.78125 1293.5 C 2009.78125 1293.871094 2009.738281 1294.179688 2009.738281 1294.46875 C 2009.738281 1297.371094 2013.941406 1298.050781 2106.941406 1335.140625 C 2249.5 1392 2329.5 1395.558594 2346.5 1413.78125 C 2354.46875 1422.320312 2364.019531 1424.238281 2373.140625 1425.089844 C 2372.828125 1425.328125 2372.519531 1425.550781 2372.21875 1425.78125 C 2334.949219 1453.558594 2281.5 1466 2200.089844 1474.339844 C 2131.109375 1481.410156 2014.171875 1520.058594 1949.378906 1553.710938 C 1902.089844 1534.238281 1786.761719 1486.960938 1772.5 1483 C 1771.25 1482.648438 1769.710938 1482.488281 1767.890625 1482.488281 C 1743.5 1482.488281 1670.351562 1512.03125 1614.75 1525.769531 C 1582.808594 1533.660156 1504.378906 1547.761719 1438.28125 1559.160156 M 1429.191406 1332.128906 C 1429.839844 1304.28125 1427.058594 1125 1427.058594 1125 L 1428.011719 1049.890625 C 1428.679688 1055.289062 1429.070312 1060.359375 1429.058594 1064.898438 C 1429 1100.5 1430 1137.5 1441 1155.5 C 1452 1173.5 1471 1222.5 1471 1222.5 L 1478 1279.5 C 1478 1279.5 1482.640625 1286.75 1489.660156 1296.78125 C 1481.761719 1301.75 1469.28125 1309.601562 1454.308594 1318.988281 L 1429.191406 1332.128906 "/>
    </clipPath>
    <clipPath id="clip-37">
      <path clip-rule="nonzero" d="M 1438.28125 1559.160156 L 1442.398438 1506.5 L 1442.398438 1500.261719 C 1490.039062 1493.03125 1451.320312 1491.480469 1461.5 1485 C 1472.5 1478 1471.5 1483 1533.050781 1474.339844 C 1553.578125 1471.449219 1573.128906 1470.488281 1590.101562 1470.488281 C 1624.019531 1470.488281 1647.558594 1474.339844 1647.558594 1474.339844 C 1647.558594 1474.339844 1810.5 1441 1805.5 1437.03125 C 1800.5 1433.050781 1751.5 1431 1729.5 1427 C 1720.699219 1425.398438 1708.699219 1424.921875 1694.140625 1424.921875 C 1672.300781 1424.921875 1644.699219 1426 1613.5 1426 C 1561.5 1426 1558.5 1431 1513.558594 1437.03125 C 1468.621094 1443.050781 1448.5 1481 1448.5 1481 C 1448.5 1481 1446.351562 1481.699219 1442.398438 1482.820312 L 1442.398438 1408.789062 C 1442.398438 1408.789062 1428 1347.5 1429.058594 1335.140625 C 1429.070312 1335.03125 1429.078125 1334.910156 1429.089844 1334.769531 C 1437.980469 1329.210938 1446.480469 1323.890625 1454.308594 1318.988281 L 1491.558594 1299.488281 C 1502.96875 1315.609375 1519.53125 1337.371094 1533 1348.5 C 1556 1367.5 1572.550781 1400.898438 1575.28125 1407.199219 C 1575.769531 1408.320312 1576.648438 1408.789062 1577.769531 1408.789062 C 1582.921875 1408.789062 1593.140625 1399 1593.140625 1399 C 1593.140625 1399 1628.359375 1346.078125 1647.679688 1309.789062 C 1667 1273.5 1698 1236.5 1698 1213.5 C 1698 1190.5 1722 1186.5 1682 1160.5 C 1642 1134.5 1548 1078.5 1548 1078.5 L 1472.058594 1021.640625 C 1466.800781 1023.019531 1461.578125 1024 1456.5 1024 C 1437.5 1024 1429.058594 1043.328125 1429.058594 1043.328125 C 1429.058594 1043.328125 1437.5 1024 1456.5 1024 C 1461.578125 1024 1466.800781 1023.019531 1472.058594 1021.640625 C 1484.640625 1018.351562 1497.390625 1012.75 1508.671875 1012.75 C 1510.328125 1012.75 1511.96875 1012.871094 1513.558594 1013.140625 C 1530.5 1016 1603.101562 1054.300781 1603.101562 1054.300781 L 1656.5 1090 C 1656.5 1090 1700.46875 1108 1736.480469 1125 C 1772.5 1142 1816.5 1156 1816.5 1156 L 1898.5 1213 C 1898.5 1213 1970.5 1257.128906 2000.5 1282.058594 C 2009 1289.121094 2009.78125 1291.878906 2009.78125 1293.5 C 2009.78125 1293.871094 2009.738281 1294.179688 2009.738281 1294.46875 C 2009.738281 1297.371094 2013.941406 1298.050781 2106.941406 1335.140625 C 2249.5 1392 2329.5 1395.558594 2346.5 1413.78125 C 2354.46875 1422.320312 2364.019531 1424.238281 2373.140625 1425.089844 C 2372.828125 1425.328125 2372.519531 1425.550781 2372.21875 1425.78125 C 2334.949219 1453.558594 2281.5 1466 2200.089844 1474.339844 C 2131.109375 1481.410156 2014.171875 1520.058594 1949.378906 1553.710938 C 1902.089844 1534.238281 1786.761719 1486.960938 1772.5 1483 C 1771.25 1482.648438 1769.710938 1482.488281 1767.890625 1482.488281 C 1743.5 1482.488281 1670.351562 1512.03125 1614.75 1525.769531 C 1582.808594 1533.660156 1504.378906 1547.761719 1438.28125 1559.160156 M 1429.191406 1332.128906 C 1429.839844 1304.28125 1427.058594 1125 1427.058594 1125 L 1428.011719 1049.890625 C 1428.679688 1055.289062 1429.070312 1060.359375 1429.058594 1064.898438 C 1429 1100.5 1430 1137.5 1441 1155.5 C 1452 1173.5 1471 1222.5 1471 1222.5 L 1478 1279.5 C 1478 1279.5 1482.640625 1286.75 1489.660156 1296.78125 C 1481.761719 1301.75 1469.28125 1309.601562 1454.308594 1318.988281 L 1429.191406 1332.128906 "/>
    </clipPath>
    <linearGradient id="linear-pattern-10" gradientUnits="userSpaceOnUse" x1="0.0759768" y1="0" x2="0.583475" y2="0" gradientTransform="matrix(-1962.73, 227.816, -227.816, -1962.73, 2559.61, 1317.21)">
      <stop offset="0" stop-color="rgb(72.30072%, 28.829956%, 17.944336%)" stop-opacity="1"/>
      <stop offset="0.0625" stop-color="rgb(72.412109%, 28.953552%, 18.005371%)" stop-opacity="1"/>
      <stop offset="0.125" stop-color="rgb(72.634888%, 29.202271%, 18.130493%)" stop-opacity="1"/>
      <stop offset="0.1875" stop-color="rgb(72.859192%, 29.450989%, 18.255615%)" stop-opacity="1"/>
      <stop offset="0.25" stop-color="rgb(73.083496%, 29.699707%, 18.379211%)" stop-opacity="1"/>
      <stop offset="0.3125" stop-color="rgb(73.3078%, 29.948425%, 18.504333%)" stop-opacity="1"/>
      <stop offset="0.375" stop-color="rgb(73.530579%, 30.198669%, 18.62793%)" stop-opacity="1"/>
      <stop offset="0.4375" stop-color="rgb(73.754883%, 30.447388%, 18.753052%)" stop-opacity="1"/>
      <stop offset="0.5" stop-color="rgb(73.979187%, 30.696106%, 18.876648%)" stop-opacity="1"/>
      <stop offset="0.5625" stop-color="rgb(74.203491%, 30.944824%, 19.00177%)" stop-opacity="1"/>
      <stop offset="0.625" stop-color="rgb(74.42627%, 31.193542%, 19.125366%)" stop-opacity="1"/>
      <stop offset="0.6875" stop-color="rgb(74.650574%, 31.442261%, 19.250488%)" stop-opacity="1"/>
      <stop offset="0.75" stop-color="rgb(74.874878%, 31.690979%, 19.374084%)" stop-opacity="1"/>
      <stop offset="0.8125" stop-color="rgb(75.097656%, 31.939697%, 19.499207%)" stop-opacity="1"/>
      <stop offset="0.875" stop-color="rgb(75.32196%, 32.188416%, 19.622803%)" stop-opacity="1"/>
      <stop offset="0.9375" stop-color="rgb(75.546265%, 32.437134%, 19.747925%)" stop-opacity="1"/>
      <stop offset="1" stop-color="rgb(75.770569%, 32.685852%, 19.871521%)" stop-opacity="1"/>
    </linearGradient>
    <clipPath id="clip-38">
      <path clip-rule="nonzero" d="M 1429 1296 L 1806 1296 L 1806 1501 L 1429 1501 Z M 1429 1296 "/>
    </clipPath>
    <clipPath id="clip-39">
      <path clip-rule="nonzero" d="M 1442.398438 1500.261719 L 1442.398438 1482.820312 C 1446.351562 1481.699219 1448.5 1481 1448.5 1481 C 1448.5 1481 1468.621094 1443.050781 1513.558594 1437.03125 C 1558.5 1431 1561.5 1426 1613.5 1426 C 1644.699219 1426 1672.300781 1424.921875 1694.140625 1424.921875 C 1708.699219 1424.921875 1720.699219 1425.398438 1729.5 1427 C 1751.5 1431 1800.5 1433.050781 1805.5 1437.03125 C 1810.5 1441 1647.558594 1474.339844 1647.558594 1474.339844 C 1647.558594 1474.339844 1624.019531 1470.488281 1590.101562 1470.488281 C 1573.128906 1470.488281 1553.578125 1471.449219 1533.050781 1474.339844 C 1471.5 1483 1472.5 1478 1461.5 1485 C 1451.320312 1491.480469 1490.039062 1493.03125 1442.398438 1500.261719 M 1429.089844 1334.769531 C 1429.128906 1334.160156 1429.160156 1333.269531 1429.191406 1332.128906 L 1454.308594 1318.988281 C 1446.480469 1323.890625 1437.980469 1329.210938 1429.089844 1334.769531 M 1454.308594 1318.988281 C 1469.28125 1309.601562 1481.761719 1301.75 1489.660156 1296.78125 C 1490.28125 1297.660156 1490.910156 1298.570312 1491.558594 1299.488281 L 1454.308594 1318.988281 "/>
    </clipPath>
    <clipPath id="clip-40">
      <path clip-rule="nonzero" d="M 1442.398438 1500.261719 L 1442.398438 1482.820312 C 1446.351562 1481.699219 1448.5 1481 1448.5 1481 C 1448.5 1481 1468.621094 1443.050781 1513.558594 1437.03125 C 1558.5 1431 1561.5 1426 1613.5 1426 C 1644.699219 1426 1672.300781 1424.921875 1694.140625 1424.921875 C 1708.699219 1424.921875 1720.699219 1425.398438 1729.5 1427 C 1751.5 1431 1800.5 1433.050781 1805.5 1437.03125 C 1810.5 1441 1647.558594 1474.339844 1647.558594 1474.339844 C 1647.558594 1474.339844 1624.019531 1470.488281 1590.101562 1470.488281 C 1573.128906 1470.488281 1553.578125 1471.449219 1533.050781 1474.339844 C 1471.5 1483 1472.5 1478 1461.5 1485 C 1451.320312 1491.480469 1490.039062 1493.03125 1442.398438 1500.261719 M 1429.089844 1334.769531 C 1429.128906 1334.160156 1429.160156 1333.269531 1429.191406 1332.128906 L 1454.308594 1318.988281 C 1446.480469 1323.890625 1437.980469 1329.210938 1429.089844 1334.769531 M 1454.308594 1318.988281 C 1469.28125 1309.601562 1481.761719 1301.75 1489.660156 1296.78125 C 1490.28125 1297.660156 1490.910156 1298.570312 1491.558594 1299.488281 L 1454.308594 1318.988281 "/>
    </clipPath>
    <linearGradient id="linear-pattern-11" gradientUnits="userSpaceOnUse" x1="0.375402" y1="0" x2="0.579018" y2="0" gradientTransform="matrix(-1962.73, 227.816, -227.816, -1962.73, 2559.61, 1317.21)">
      <stop offset="0" stop-color="rgb(85.246277%, 40.687561%, 24.656677%)" stop-opacity="1"/>
      <stop offset="0.25" stop-color="rgb(85.334778%, 40.786743%, 24.707031%)" stop-opacity="1"/>
      <stop offset="0.5" stop-color="rgb(85.514832%, 40.986633%, 24.806213%)" stop-opacity="1"/>
      <stop offset="0.75" stop-color="rgb(85.694885%, 41.184998%, 24.905396%)" stop-opacity="1"/>
      <stop offset="1" stop-color="rgb(85.874939%, 41.384888%, 25.006104%)" stop-opacity="1"/>
    </linearGradient>
  </defs>
  <g clip-path="url(#clip-6)">
    <g clip-path="url(#clip-7)">
      <g clip-path="url(#clip-8)">
        <path fill-rule="nonzero" fill="url(#linear-pattern-2)" d="M 1280.230469 463.730469 L 1278.792969 463.648438 L 1278.589844 467.269531 L 1280.027344 467.351562 Z M 1280.230469 463.730469 "/>
      </g>
    </g>
  </g>
  <g clip-path="url(#clip-21)">
    <path fill-rule="nonzero" fill="rgb(78.125%, 33.714294%, 18.821716%)" fill-opacity="1" d="M 4000.5 683.78125 L 4000.5 1082 C 4000.5 1082 3708.5 1125 3643.28125 1101.351562 C 3603.289062 1086.851562 3545.128906 1070.96875 3506.109375 1060.851562 C 3615.238281 1010.46875 3759.609375 938.121094 3801.5 895 C 3869.5 825 3860.890625 837.410156 3891.199219 803.699219 C 3921.5 770 3938.5 731 3938.5 731 L 4000.5 683.78125 "/>
  </g>
  <g clip-path="url(#clip-22)">
    <path fill-rule="nonzero" fill="rgb(94.921875%, 41.184998%, 20.384216%)" fill-opacity="1" d="M 4000.5 636.800781 L 4000.5 683.78125 L 3938.5 731 C 3938.5 731 3921.5 770 3891.199219 803.699219 C 3860.890625 837.410156 3869.5 825 3801.5 895 C 3759.609375 938.121094 3615.238281 1010.46875 3506.109375 1060.851562 C 3481.488281 1054.46875 3464.5 1050.378906 3464.5 1050.378906 L 3504.578125 1030.648438 C 3504.578125 1030.648438 3506.5 979 3536.371094 961 C 3566.25 943 3580.691406 908.910156 3580.691406 908.910156 C 3580.691406 908.910156 3643.5 868 3690.320312 836.75 C 3737.128906 805.5 3758.5 799 3835.5 709 C 3912.5 619 4000.5 636.800781 4000.5 636.800781 "/>
  </g>
  <path fill-rule="nonzero" fill="rgb(95.3125%, 42.358398%, 20.384216%)" fill-opacity="1" d="M -170.21 1537.58 C -170.21 1537.58 -14.999 1535.81 38.064 1523.44 C 91.121 1511.07 324.075 1467.03 324.075 1467.03 C 324.075 1467.03 458.52 1435.6 505.669 1406.23 C 552.819 1376.87 648.342 1319.05 648.342 1319.05 L 800.2 1223.03 C 800.2 1223.03 925.115 1143.39 938.587 1125.93 C 952.059 1108.47 964.301 1084.47 991.242 1052.83 C 1018.19 1021.2 1021.37 1002.87 1065.09 987.479 C 1108.81 972.093 1150.46 950.272 1179.84 945.907 C 1209.23 941.544 1270.47 940.452 1270.47 940.452 C 1270.47 940.452 1303.53 925.178 1310.88 945.907 C 1318.23 966.638 1334.15 972.093 1341.5 989.549 C 1348.85 1007 1369.67 1003.74 1348.85 1055.02 C 1328.03 1106.29 1290.07 1201.21 1268.02 1232.85 C 1245.98 1264.49 1217.91 1333.54 1179.9 1371.57 C 1141.89 1409.6 1051.3 1441.24 1051.3 1441.24 C 1051.3 1441.24 881.635 1489.96 853.774 1494.51 C 825.919 1499.06 636.095 1613.63 636.095 1613.63 L 466.112 1653.44 L 230.953 1679.98 C 230.953 1679.98 193.414 1687.82 142.27 1690.01 C 91.121 1692.18 44.8 1677.06 -1.847 1672.08 C -48.49 1667.09 -112.17 1640.9 -141.56 1633.27 C -170.96 1625.63 -170.21 1537.58 -170.21 1537.58" style=""/>
  <path fill-rule="nonzero" fill="rgb(87.109375%, 41.184998%, 23.143005%)" fill-opacity="1" d="M 2151.71875 1722.621094 C 2118.289062 1741.988281 2095.960938 1754.210938 2095.960938 1754.210938 L 2061.660156 1750.449219 L 1442.871094 1682.640625 L 1379.390625 1678.878906 L 976.371094 1655 C 976.371094 1655 781.289062 1619.988281 762.898438 1593.488281 C 744.5 1567 762.898438 1440.148438 762.898438 1440.148438 C 762.898438 1440.148438 948.78125 1318.578125 968.140625 1309.789062 C 987.5 1301 1067.101562 1230.410156 1118.800781 1216.210938 C 1170.5 1202 1198.230469 1186.679688 1212.359375 1169.839844 C 1226.5 1153 1242.5 1106 1242.5 1106 L 1283.5 1008 C 1283.5 1008 1286.5 961 1305.5 961 C 1324.5 961 1371.5 974 1374.5 991 C 1377.5 1008 1388.5 1017 1393.5 1030 C 1397.71875 1040.980469 1420.179688 1042.921875 1427.058594 1043.261719 C 1427.460938 1043.28125 1427.800781 1043.289062 1428.089844 1043.308594 C 1428.710938 1043.328125 1429.058594 1043.328125 1429.058594 1043.328125 C 1429.058594 1043.328125 1437.5 1024 1456.5 1024 C 1461.578125 1024 1466.800781 1023.019531 1472.058594 1021.640625 C 1486.488281 1017.859375 1501.148438 1011.050781 1513.558594 1013.140625 C 1530.5 1016 1603.101562 1054.300781 1603.101562 1054.300781 L 1656.5 1090 C 1656.5 1090 1700.46875 1108 1736.480469 1125 C 1772.5 1142 1816.5 1156 1816.5 1156 L 1898.5 1213 C 1898.5 1213 1970.5 1257.128906 2000.5 1282.058594 C 2030.5 1307 1964.371094 1278.28125 2106.941406 1335.140625 C 2249.5 1392 2329.5 1395.558594 2346.5 1413.78125 C 2363.5 1432 2387.648438 1420.058594 2399.578125 1432.03125 C 2411.5 1444 2446.5 1427 2449.5 1493 C 2451.75 1542.480469 2251.890625 1664.601562 2151.71875 1722.621094 "/>
  <g clip-path="url(#clip-35)" style="" transform="matrix(1.103973, 0, 0, 1.057826, -148.369965, -58.51955)">
    <g clip-path="url(#clip-36)">
      <g clip-path="url(#clip-37)">
        <path fill-rule="nonzero" fill="url(#linear-pattern-10)" d="M 2435.71875 1551.894531 L 2360.5625 904.398438 L 1364.480469 1020.011719 L 1439.636719 1667.511719 Z M 2435.71875 1551.894531 "/>
      </g>
    </g>
  </g>
  <path fill-rule="nonzero" fill="rgb(78.90625%, 36.083984%, 21.556091%)" fill-opacity="1" d="M 1734.13 1223.89 C 1734.13 1248.13 1698.71 1287.13 1676.63 1325.39 C 1654.55 1363.63 1614.3 1419.42 1614.3 1419.42 C 1614.3 1419.42 1596.99 1434.71 1593.89 1428.06 C 1590.77 1421.42 1571.85 1386.22 1545.57 1366.19 C 1519.28 1346.17 1482.71 1293.46 1482.71 1293.46 L 1474.71 1233.37 C 1474.71 1233.37 1452.99 1181.72 1440.42 1162.74 C 1427.85 1143.77 1426.71 1104.77 1426.78 1067.24 C 1426.79 1060.54 1425.92 1052.72 1424.49 1044.43 C 1425.93 1044.49 1426.78 1044.5 1426.78 1044.5 C 1426.78 1044.5 1436.42 1024.13 1458.13 1024.13 C 1463.94 1024.13 1469.91 1023.1 1475.92 1021.64 L 1562.71 1081.58 C 1562.71 1081.58 1670.14 1140.61 1715.86 1168.02 C 1761.57 1195.42 1734.13 1199.64 1734.13 1223.89" style=""/>
  <path fill-rule="nonzero" fill="rgb(78.90625%, 36.083984%, 21.556091%)" fill-opacity="1" d="M 1155.191406 1610.28125 C 1157 1601.5 1199.128906 1559.039062 1215.558594 1525.769531 C 1232 1492.5 1250 1432.5 1260.5 1399 C 1271 1365.5 1307 1286.5 1307 1286.5 C 1307 1286.5 1335 1209.5 1342 1200.5 C 1349 1191.5 1398.5 1125 1398.5 1125 L 1427.058594 1125 C 1427.058594 1125 1430.121094 1322.78125 1429.058594 1335.140625 C 1428 1347.5 1442.398438 1408.789062 1442.398438 1408.789062 L 1442.398438 1506.5 L 1437 1575.5 L 1387.519531 1610.28125 L 1193.609375 1627 L 1155.191406 1610.28125 "/>
  <path fill-rule="nonzero" fill="rgb(82.03125%, 37.255859%, 22.363281%)" fill-opacity="1" d="M 1645.621094 1525.769531 C 1645.621094 1525.769531 1604 1489.5 1614 1487.5 C 1624 1485.5 1639 1474.179688 1689.5 1474.339844 C 1740 1474.5 1822.558594 1474.339844 1822.558594 1474.339844 C 1822.558594 1474.339844 1919.5 1465.601562 1934.75 1464.550781 C 1950 1463.5 1989 1461.5 2007 1463.5 C 2025 1465.5 2050.21875 1468.800781 2050.21875 1468.800781 C 2050.21875 1468.800781 2059 1476.898438 2000.5 1487.199219 C 1942 1497.5 1914.140625 1496.71875 1924.570312 1497.109375 C 1935 1497.5 2060 1489.71875 2066.5 1497.109375 C 2073 1504.5 2104.238281 1506.5 2104.238281 1506.5 L 2083 1516.5 L 1968.03125 1544.550781 C 1968.03125 1544.550781 1985.140625 1581.578125 1966.070312 1582.039062 C 1947 1582.5 1809.820312 1594.300781 1809.820312 1594.300781 L 1679.589844 1594.300781 L 1645.621094 1525.769531 "/>
  <path fill-rule="nonzero" fill="rgb(95.701599%, 49.804688%, 30.200195%)" fill-opacity="1" d="M 68.852 1543.99 C 68.852 1543.99 391.314 1523.23 446.627 1522.84 C 501.939 1522.45 548.7 1508.85 612.011 1508.47 C 675.321 1508.1 758.07 1467.26 758.07 1467.26 C 758.07 1467.26 1009.32 1326.94 1027.4 1317 C 1045.49 1307.06 1146.54 1250.73 1146.54 1250.73 L 1219.79 1198.16 C 1219.79 1198.16 1272.06 1148 1278.44 1148 C 1284.82 1148 1259.82 1217.04 1259.82 1217.04 C 1259.82 1217.04 1231.87 1262.29 1219.79 1264.52 C 1207.7 1266.74 1167.13 1269.15 1127.85 1290.59 C 1088.57 1312.03 1059.32 1354.71 1059.32 1354.71 C 1059.32 1354.71 1022.83 1375.67 958.9 1409.02 C 894.975 1442.37 888.177 1450.16 828.818 1467.26 C 769.459 1484.35 734.872 1528.53 684.089 1543.99 C 633.305 1559.46 598.203 1561.67 570.547 1576.03 C 542.891 1590.39 499.28 1593.48 446.627 1592.48 C 393.974 1591.49 331.303 1592.48 331.303 1592.48 C 331.303 1592.48 104.669 1587.98 87.109 1578.14 C 69.546 1568.3 68.852 1543.99 68.852 1543.99" style=""/>
  <path fill-rule="nonzero" fill="rgb(95.701599%, 49.804688%, 30.200195%)" fill-opacity="1" d="M 916.015625 1499.429688 C 916.015625 1499.429688 957.820312 1474.539062 963.160156 1464.769531 C 968.5 1455 1056.5 1404 1071.5 1390 C 1086.5 1376 1121.359375 1359.550781 1136.929688 1349.28125 C 1152.5 1339 1194.5 1307 1194.5 1307 C 1194.5 1307 1019.5 1406 998.5 1417 C 977.5 1428 990.925781 1430.050781 959.210938 1437.03125 C 927.5 1444 922.535156 1428.648438 916.015625 1447.820312 C 909.5 1467 916.015625 1499.429688 916.015625 1499.429688 "/>
  <path fill-rule="nonzero" fill="rgb(95.701599%, 49.804688%, 30.200195%)" fill-opacity="1" d="M 1002.648438 1447.820312 C 1014.5 1454 1053.808594 1447.820312 1053.808594 1447.820312 C 1053.808594 1447.820312 1086.101562 1428.019531 1118.800781 1416.511719 C 1151.5 1405 1191.5 1392 1201.5 1390 C 1211.5 1388 1215.808594 1395.609375 1231.660156 1384.300781 C 1247.5 1373 1273.769531 1349.28125 1273.769531 1349.28125 L 1301.5 1315 L 1301.5 1302.011719 L 1309.5 1291 C 1309.5 1291 1247.710938 1344.550781 1235.601562 1349.28125 C 1223.5 1354 1232.53125 1355.570312 1204.019531 1370.78125 C 1175.5 1386 1182.808594 1372.609375 1142.160156 1384.300781 C 1101.5 1396 1097.941406 1400.429688 1073.71875 1403.210938 C 1049.5 1406 1025.070312 1421.699219 1025.070312 1421.699219 L 1002.648438 1447.820312 "/>
  <path fill-rule="nonzero" fill="rgb(91.40625%, 45.483398%, 26.660156%)" fill-opacity="1" d="M 1145.71875 1568.050781 C 1136.558594 1566.941406 1127.539062 1565.679688 1118.800781 1564.28125 C 1063.980469 1555.480469 996.316406 1531.371094 929.570312 1504.851562 C 951.675781 1496.289062 988.5 1481 988.5 1481 C 988.5 1481 996.90625 1487.121094 1014.171875 1487.121094 C 1029.300781 1487.121094 1051.238281 1482.421875 1080.300781 1464.769531 C 1142.5 1427 1162.5 1410 1175.5 1410 C 1184 1410 1231.328125 1399 1263.039062 1391.398438 C 1262.078125 1394.121094 1261.230469 1396.671875 1260.5 1399 C 1258.171875 1406.449219 1255.460938 1415.210938 1252.480469 1424.691406 C 1231.320312 1427.511719 1206.648438 1431.519531 1194.5 1437.03125 C 1173.441406 1446.570312 1147.941406 1464.878906 1154.929688 1464.878906 C 1155.25 1464.878906 1155.621094 1464.851562 1156.070312 1464.769531 C 1156.691406 1464.671875 1157.25 1464.621094 1157.78125 1464.621094 C 1160.609375 1464.621094 1162.441406 1465.980469 1165.789062 1467.351562 C 1169.140625 1468.710938 1174 1470.070312 1182.878906 1470.070312 C 1191.648438 1470.070312 1204.339844 1468.738281 1223.359375 1464.769531 C 1228.878906 1463.621094 1234.699219 1462.398438 1240.710938 1461.128906 C 1238.691406 1467.160156 1236.609375 1473.191406 1234.511719 1479.109375 C 1214.828125 1483.789062 1200.070312 1487.121094 1200.070312 1487.121094 L 1151.371094 1487.121094 C 1151.371094 1487.121094 1124.53125 1491.859375 1204.019531 1499.429688 C 1212.839844 1500.269531 1220.140625 1500.878906 1226.21875 1501.308594 C 1223.058594 1509.300781 1219.890625 1516.75 1216.769531 1523.289062 C 1176.769531 1524.03125 1177.589844 1522.128906 1175.5 1527 C 1172.5 1534 1163.21875 1553 1163.21875 1553 C 1163.21875 1553 1170.199219 1550.148438 1172.429688 1550.148438 C 1174.53125 1550.148438 1172.390625 1552.691406 1156.070312 1562.601562 C 1152.941406 1564.511719 1149.460938 1566.320312 1145.71875 1568.050781 "/>
  <g clip-path="url(#clip-38)">
    <g clip-path="url(#clip-39)">
      <g clip-path="url(#clip-40)">
        <path fill-rule="nonzero" fill="url(#linear-pattern-11)" d="M 1833.804688 1497.554688 L 1805.429688 1253.097656 L 1405.785156 1299.484375 L 1434.160156 1543.941406 Z M 1833.804688 1497.554688 "/>
      </g>
    </g>
  </g>
  <path fill-rule="nonzero" fill="rgb(87.5%, 43.138123%, 25.87738%)" fill-opacity="1" d="M 1491.558594 1299.488281 C 1490.910156 1298.570312 1490.28125 1297.660156 1489.660156 1296.78125 C 1495.5 1293.109375 1498.828125 1291 1498.828125 1291 L 1492.5 1299 L 1491.558594 1299.488281 "/>
  <path fill-rule="nonzero" fill="rgb(87.5%, 43.138123%, 25.87738%)" fill-opacity="1" d="M 1216.769531 1523.289062 C 1219.890625 1516.75 1223.058594 1509.300781 1226.21875 1501.308594 C 1234.660156 1501.890625 1240.78125 1502.128906 1245.460938 1502.128906 C 1254.421875 1502.128906 1258.101562 1501.269531 1262.660156 1500.410156 C 1267.21875 1499.558594 1272.660156 1498.699219 1285.148438 1498.699219 C 1291.308594 1498.699219 1299.179688 1498.910156 1309.5 1499.429688 C 1314.828125 1499.699219 1320.140625 1499.820312 1325.410156 1499.820312 C 1377.828125 1499.820312 1425.851562 1487.550781 1442.398438 1482.820312 L 1442.398438 1500.261719 C 1438.550781 1500.839844 1434.121094 1501.460938 1429.058594 1502.128906 C 1361.5 1511 1417.5 1513 1296.5 1520 C 1259.640625 1522.128906 1234.289062 1522.96875 1216.769531 1523.289062 M 1234.511719 1479.109375 C 1236.609375 1473.191406 1238.691406 1467.160156 1240.710938 1461.128906 C 1301.230469 1448.378906 1381.5 1431 1381.5 1431 C 1381.5 1431 1347.5 1448.890625 1309.5 1459.949219 C 1288.78125 1465.96875 1258.109375 1473.511719 1234.511719 1479.109375 M 1252.480469 1424.691406 C 1255.460938 1415.210938 1258.171875 1406.449219 1260.5 1399 C 1261.230469 1396.671875 1262.078125 1394.121094 1263.039062 1391.398438 C 1279.800781 1387.378906 1292.199219 1384.308594 1292.199219 1384.308594 C 1292.199219 1384.308594 1299.070312 1378.570312 1323.789062 1370.78125 C 1348.5 1363 1411.289062 1341.488281 1411.289062 1341.488281 L 1429.191406 1332.128906 C 1429.160156 1333.269531 1429.128906 1334.160156 1429.089844 1334.769531 C 1369.988281 1371.699219 1293.949219 1418.789062 1288.5 1420 C 1284.46875 1420.898438 1269.628906 1422.398438 1252.480469 1424.691406 "/>
  <path fill-rule="nonzero" fill="rgb(95.701599%, 49.804688%, 30.200195%)" fill-opacity="1" d="M 1343.53125 1403.210938 C 1347.5 1404 1367.421875 1405 1386.960938 1399 C 1406.5 1393 1377.859375 1395.609375 1421.179688 1384.300781 C 1464.5 1373 1466.5 1375 1480.5 1360 C 1494.5 1345 1508.5 1318 1508.5 1318 C 1490.5 1327 1468.300781 1336.550781 1455.398438 1349.28125 C 1442.5 1362 1431.089844 1366.421875 1411.289062 1375.710938 C 1391.5 1385 1371.410156 1400 1361.949219 1399 C 1352.5 1398 1343.53125 1403.210938 1343.53125 1403.210938 "/>
  <path fill-rule="nonzero" fill="rgb(95.701599%, 49.804688%, 30.200195%)" fill-opacity="1" d="M 1634.398438 1399 C 1634.398438 1399 1676.121094 1387.789062 1692.308594 1380.898438 C 1708.5 1374 1709.558594 1365.808594 1726.53125 1360.898438 C 1743.5 1356 1764.5 1327 1764.5 1327 L 1785.761719 1307 L 1634.398438 1399 "/>
  <path fill-rule="nonzero" fill="rgb(95.701599%, 49.804688%, 30.200195%)" fill-opacity="1" d="M 1689.5 1410 C 1693.5 1411 1739.691406 1403.210938 1739.691406 1403.210938 L 1785.761719 1380.898438 L 1805.609375 1370.78125 L 1805.609375 1360.898438 L 1780.488281 1370.78125 C 1780.488281 1370.78125 1722.761719 1397 1718.628906 1399 C 1714.5 1401 1710.078125 1403.808594 1710.078125 1403.808594 L 1689.5 1410 "/>
  <path fill-rule="nonzero" fill="rgb(74.414062%, 30.200195%, 18.041992%)" fill-opacity="1" d="M 1575.28125 1709.859375 L 1575.28125 1709.851562 C 1575.28125 1709.851562 1575.308594 1709.839844 1575.371094 1709.828125 C 1575.339844 1709.839844 1575.308594 1709.851562 1575.28125 1709.859375 "/>
</svg>