<?xml version="1.0" encoding="utf-8"?>
<svg xmlns="http://www.w3.org/2000/svg" width="4000.5" height="2250.5" viewBox="0 0 4000.5 2250.5">
  <defs>
    <clipPath id="clip-6">
      <path clip-rule="nonzero" d="M 1278 463 L 1280 463 L 1280 468 L 1278 468 Z M 1278 463 "/>
    </clipPath>
    <clipPath id="clip-7">
      <path clip-rule="nonzero" d="M 1279.53125 467.28125 L 1278.980469 464.859375 C 1278.898438 464.480469 1278.789062 464.019531 1279.238281 463.859375 C 1279.308594 463.828125 1279.679688 463.71875 1279.921875 464.179688 C 1280.03125 464.359375 1280 464.609375 1279.960938 464.839844 Z M 1279.53125 467.28125 "/>
    </clipPath>
    <clipPath id="clip-8">
      <path clip-rule="nonzero" d="M 1279.53125 467.28125 L 1278.980469 464.859375 C 1278.898438 464.480469 1278.789062 464.019531 1279.238281 463.859375 C 1279.308594 463.828125 1279.679688 463.71875 1279.921875 464.179688 C 1280.03125 464.359375 1280 464.609375 1279.960938 464.839844 L 1279.53125 467.28125 "/>
    </clipPath>
    <linearGradient id="linear-pattern-2" gradientUnits="userSpaceOnUse" x1="-0.0406801" y1="0" x2="1.010883" y2="0" gradientTransform="matrix(-0.193856, 3.44095, -3.44095, -0.193856, 1279.49, 463.83)">
      <stop offset="0" stop-color="rgb(96.076965%, 68.234253%, 52.548218%)" stop-opacity="1"/>
      <stop offset="0.25" stop-color="rgb(96.076965%, 68.234253%, 52.548218%)" stop-opacity="1"/>
      <stop offset="0.375" stop-color="rgb(96.115112%, 68.348694%, 52.662659%)" stop-opacity="1"/>
      <stop offset="0.5" stop-color="rgb(96.202087%, 68.608093%, 52.922058%)" stop-opacity="1"/>
      <stop offset="0.625" stop-color="rgb(96.298218%, 68.896484%, 53.208923%)" stop-opacity="1"/>
      <stop offset="0.75" stop-color="rgb(96.394348%, 69.18335%, 53.497314%)" stop-opacity="1"/>
      <stop offset="1" stop-color="rgb(96.455383%, 69.369507%, 53.683472%)" stop-opacity="1"/>
    </linearGradient>
    <clipPath id="clip-24">
      <path clip-rule="nonzero" d="M 1962.480469 1254.269531 C 1931.75 1233.378906 1898.5 1213 1898.5 1213 L 1816.5 1156 C 1816.5 1156 1772.5 1142 1736.480469 1125 C 1700.46875 1108 1656.5 1090 1656.5 1090 L 1603.101562 1054.300781 C 1603.101562 1054.300781 1564.921875 1034.160156 1537.480469 1022 C 1643.390625 996.199219 1755.261719 969.949219 1805.609375 961 C 1912.5 942 1998.078125 918 2118.789062 896.5 C 2196.5 882.660156 2242.230469 868.398438 2285.691406 855.800781 C 2309.738281 848.828125 2333.089844 842.359375 2360.78125 836.75 C 2426.78125 823.371094 2421.519531 801.460938 2464.390625 801.460938 C 2472 801.460938 2481.128906 802.148438 2492.449219 803.710938 C 2567.5 814 2535.5 817 2619 849 C 2702.5 881 2677.890625 877 2780.699219 895 C 2883.5 913 2943.601562 913.128906 2972.550781 920.558594 C 3001.5 928 3065.800781 944 3111.648438 961 C 3135.058594 969.679688 3163.589844 982.988281 3185.910156 993.941406 C 3160.761719 1011.621094 3129.308594 1029.199219 3095.308594 1045.640625 C 3068.941406 1036.820312 3052.53125 1016.308594 2997.800781 988.5 C 2969.019531 973.878906 2953.171875 968.96875 2942.601562 968.96875 C 2923.890625 968.96875 2921.738281 984.351562 2893.859375 988.5 C 2850.210938 995 2852.5 1013 2795.800781 1050 C 2767.550781 1068.429688 2760.429688 1072.71875 2758.039062 1072.71875 C 2757 1072.71875 2756.859375 1071.910156 2756.261719 1071.101562 C 2755.671875 1070.289062 2754.628906 1069.480469 2751.789062 1069.480469 C 2750.890625 1069.480469 2749.808594 1069.558594 2748.5 1069.75 C 2729.5 1072.5 2725.5 1067 2678.769531 1082 C 2632.039062 1097 2587.039062 1125 2587.039062 1125 C 2587.039062 1125 2539.5 1155 2511.429688 1169.839844 C 2501.699219 1174.980469 2484.191406 1176.699219 2464.421875 1176.699219 C 2427.148438 1176.699219 2381.878906 1170.601562 2365.621094 1169.839844 C 2340.75 1168.679688 2324.5 1143 2254.921875 1125 C 2234.789062 1119.789062 2223.679688 1117.679688 2216.78125 1117.679688 C 2199.851562 1117.679688 2208.390625 1130.429688 2171.261719 1141.308594 C 2119.019531 1156.621094 2128.5 1190 2066.5 1215.210938 C 2037.039062 1227.191406 1996.699219 1242.011719 1962.480469 1254.269531 "/>
    </clipPath>
    <clipPath id="clip-25">
      <path clip-rule="nonzero" d="M 1962.480469 1254.269531 C 1931.75 1233.378906 1898.5 1213 1898.5 1213 L 1816.5 1156 C 1816.5 1156 1772.5 1142 1736.480469 1125 C 1700.46875 1108 1656.5 1090 1656.5 1090 L 1603.101562 1054.300781 C 1603.101562 1054.300781 1564.921875 1034.160156 1537.480469 1022 C 1643.390625 996.199219 1755.261719 969.949219 1805.609375 961 C 1912.5 942 1998.078125 918 2118.789062 896.5 C 2196.5 882.660156 2242.230469 868.398438 2285.691406 855.800781 C 2309.738281 848.828125 2333.089844 842.359375 2360.78125 836.75 C 2426.78125 823.371094 2421.519531 801.460938 2464.390625 801.460938 C 2472 801.460938 2481.128906 802.148438 2492.449219 803.710938 C 2567.5 814 2535.5 817 2619 849 C 2702.5 881 2677.890625 877 2780.699219 895 C 2883.5 913 2943.601562 913.128906 2972.550781 920.558594 C 3001.5 928 3065.800781 944 3111.648438 961 C 3135.058594 969.679688 3163.589844 982.988281 3185.910156 993.941406 C 3160.761719 1011.621094 3129.308594 1029.199219 3095.308594 1045.640625 C 3068.941406 1036.820312 3052.53125 1016.308594 2997.800781 988.5 C 2969.019531 973.878906 2953.171875 968.96875 2942.601562 968.96875 C 2923.890625 968.96875 2921.738281 984.351562 2893.859375 988.5 C 2850.210938 995 2852.5 1013 2795.800781 1050 C 2767.550781 1068.429688 2760.429688 1072.71875 2758.039062 1072.71875 C 2757 1072.71875 2756.859375 1071.910156 2756.261719 1071.101562 C 2755.671875 1070.289062 2754.628906 1069.480469 2751.789062 1069.480469 C 2750.890625 1069.480469 2749.808594 1069.558594 2748.5 1069.75 C 2729.5 1072.5 2725.5 1067 2678.769531 1082 C 2632.039062 1097 2587.039062 1125 2587.039062 1125 C 2587.039062 1125 2539.5 1155 2511.429688 1169.839844 C 2501.699219 1174.980469 2484.191406 1176.699219 2464.421875 1176.699219 C 2427.148438 1176.699219 2381.878906 1170.601562 2365.621094 1169.839844 C 2340.75 1168.679688 2324.5 1143 2254.921875 1125 C 2234.789062 1119.789062 2223.679688 1117.679688 2216.78125 1117.679688 C 2199.851562 1117.679688 2208.390625 1130.429688 2171.261719 1141.308594 C 2119.019531 1156.621094 2128.5 1190 2066.5 1215.210938 C 2037.039062 1227.191406 1996.699219 1242.011719 1962.480469 1254.269531 "/>
    </clipPath>
    <linearGradient id="linear-pattern-6" gradientUnits="userSpaceOnUse" x1="0.187565" y1="0" x2="0.790015" y2="0" gradientTransform="matrix(24.9105, -832.721, 832.721, 24.9105, 2402.65, 1436.48)">
      <stop offset="0" stop-color="rgb(96.076965%, 68.234253%, 52.548218%)" stop-opacity="1"/>
      <stop offset="0.0625" stop-color="rgb(96.076965%, 68.234253%, 52.548218%)" stop-opacity="1"/>
      <stop offset="0.0938" stop-color="rgb(96.076965%, 68.234253%, 52.548218%)" stop-opacity="1"/>
      <stop offset="0.1094" stop-color="rgb(96.066284%, 68.173218%, 52.471924%)" stop-opacity="1"/>
      <stop offset="0.125" stop-color="rgb(96.035767%, 67.993164%, 52.244568%)" stop-opacity="1"/>
      <stop offset="0.1406" stop-color="rgb(95.994568%, 67.752075%, 51.942444%)" stop-opacity="1"/>
      <stop offset="0.1563" stop-color="rgb(95.953369%, 67.510986%, 51.638794%)" stop-opacity="1"/>
      <stop offset="0.1719" stop-color="rgb(95.91217%, 67.271423%, 51.33667%)" stop-opacity="1"/>
      <stop offset="0.1875" stop-color="rgb(95.870972%, 67.030334%, 51.034546%)" stop-opacity="1"/>
      <stop offset="0.2031" stop-color="rgb(95.829773%, 66.789246%, 50.732422%)" stop-opacity="1"/>
      <stop offset="0.2188" stop-color="rgb(95.788574%, 66.549683%, 50.430298%)" stop-opacity="1"/>
      <stop offset="0.2344" stop-color="rgb(95.747375%, 66.308594%, 50.126648%)" stop-opacity="1"/>
      <stop offset="0.25" stop-color="rgb(95.706177%, 66.067505%, 49.824524%)" stop-opacity="1"/>
      <stop offset="0.2656" stop-color="rgb(95.664978%, 65.827942%, 49.5224%)" stop-opacity="1"/>
      <stop offset="0.2813" stop-color="rgb(95.623779%, 65.586853%, 49.220276%)" stop-opacity="1"/>
      <stop offset="0.2969" stop-color="rgb(95.581055%, 65.345764%, 48.916626%)" stop-opacity="1"/>
      <stop offset="0.3125" stop-color="rgb(95.539856%, 65.104675%, 48.614502%)" stop-opacity="1"/>
      <stop offset="0.3281" stop-color="rgb(95.498657%, 64.865112%, 48.312378%)" stop-opacity="1"/>
      <stop offset="0.3438" stop-color="rgb(95.457458%, 64.624023%, 48.010254%)" stop-opacity="1"/>
      <stop offset="0.3594" stop-color="rgb(95.41626%, 64.382935%, 47.706604%)" stop-opacity="1"/>
      <stop offset="0.375" stop-color="rgb(95.375061%, 64.143372%, 47.40448%)" stop-opacity="1"/>
      <stop offset="0.3906" stop-color="rgb(95.333862%, 63.902283%, 47.102356%)" stop-opacity="1"/>
      <stop offset="0.4063" stop-color="rgb(95.292664%, 63.661194%, 46.800232%)" stop-opacity="1"/>
      <stop offset="0.4219" stop-color="rgb(95.251465%, 63.421631%, 46.496582%)" stop-opacity="1"/>
      <stop offset="0.4375" stop-color="rgb(95.210266%, 63.180542%, 46.194458%)" stop-opacity="1"/>
      <stop offset="0.4531" stop-color="rgb(95.169067%, 62.939453%, 45.892334%)" stop-opacity="1"/>
      <stop offset="0.4688" stop-color="rgb(95.127869%, 62.69989%, 45.59021%)" stop-opacity="1"/>
      <stop offset="0.4844" stop-color="rgb(95.08667%, 62.458801%, 45.28656%)" stop-opacity="1"/>
      <stop offset="0.5" stop-color="rgb(95.045471%, 62.217712%, 44.984436%)" stop-opacity="1"/>
      <stop offset="0.5156" stop-color="rgb(95.004272%, 61.976624%, 44.682312%)" stop-opacity="1"/>
      <stop offset="0.5312" stop-color="rgb(94.963074%, 61.737061%, 44.380188%)" stop-opacity="1"/>
      <stop offset="0.5469" stop-color="rgb(94.921875%, 61.495972%, 44.076538%)" stop-opacity="1"/>
      <stop offset="0.5625" stop-color="rgb(94.880676%, 61.254883%, 43.774414%)" stop-opacity="1"/>
      <stop offset="0.5781" stop-color="rgb(94.839478%, 61.01532%, 43.47229%)" stop-opacity="1"/>
      <stop offset="0.5938" stop-color="rgb(94.798279%, 60.774231%, 43.170166%)" stop-opacity="1"/>
      <stop offset="0.6094" stop-color="rgb(94.75708%, 60.533142%, 42.866516%)" stop-opacity="1"/>
      <stop offset="0.625" stop-color="rgb(94.715881%, 60.293579%, 42.564392%)" stop-opacity="1"/>
      <stop offset="0.6406" stop-color="rgb(94.674683%, 60.05249%, 42.262268%)" stop-opacity="1"/>
      <stop offset="0.6563" stop-color="rgb(94.633484%, 59.811401%, 41.960144%)" stop-opacity="1"/>
      <stop offset="0.6719" stop-color="rgb(94.592285%, 59.571838%, 41.65802%)" stop-opacity="1"/>
      <stop offset="0.6875" stop-color="rgb(94.551086%, 59.33075%, 41.35437%)" stop-opacity="1"/>
      <stop offset="0.7031" stop-color="rgb(94.509888%, 59.089661%, 41.052246%)" stop-opacity="1"/>
      <stop offset="0.7188" stop-color="rgb(94.468689%, 58.848572%, 40.750122%)" stop-opacity="1"/>
      <stop offset="0.7344" stop-color="rgb(94.42749%, 58.609009%, 40.447998%)" stop-opacity="1"/>
      <stop offset="0.75" stop-color="rgb(94.386292%, 58.36792%, 40.144348%)" stop-opacity="1"/>
      <stop offset="0.7656" stop-color="rgb(94.345093%, 58.126831%, 39.842224%)" stop-opacity="1"/>
      <stop offset="0.7812" stop-color="rgb(94.302368%, 57.887268%, 39.5401%)" stop-opacity="1"/>
      <stop offset="0.7969" stop-color="rgb(94.261169%, 57.646179%, 39.237976%)" stop-opacity="1"/>
      <stop offset="0.8125" stop-color="rgb(94.219971%, 57.40509%, 38.934326%)" stop-opacity="1"/>
      <stop offset="0.8281" stop-color="rgb(94.178772%, 57.165527%, 38.632202%)" stop-opacity="1"/>
      <stop offset="0.8438" stop-color="rgb(94.137573%, 56.924438%, 38.330078%)" stop-opacity="1"/>
      <stop offset="0.8594" stop-color="rgb(94.096375%, 56.68335%, 38.027954%)" stop-opacity="1"/>
      <stop offset="0.875" stop-color="rgb(94.055176%, 56.443787%, 37.724304%)" stop-opacity="1"/>
      <stop offset="0.8906" stop-color="rgb(94.013977%, 56.202698%, 37.42218%)" stop-opacity="1"/>
      <stop offset="0.9063" stop-color="rgb(93.972778%, 55.961609%, 37.120056%)" stop-opacity="1"/>
      <stop offset="0.9219" stop-color="rgb(93.93158%, 55.722046%, 36.817932%)" stop-opacity="1"/>
      <stop offset="0.9375" stop-color="rgb(93.890381%, 55.480957%, 36.514282%)" stop-opacity="1"/>
      <stop offset="0.9531" stop-color="rgb(93.849182%, 55.239868%, 36.212158%)" stop-opacity="1"/>
      <stop offset="0.9688" stop-color="rgb(93.807983%, 54.998779%, 35.910034%)" stop-opacity="1"/>
      <stop offset="0.9844" stop-color="rgb(93.766785%, 54.759216%, 35.60791%)" stop-opacity="1"/>
      <stop offset="1" stop-color="rgb(93.734741%, 54.573059%, 35.374451%)" stop-opacity="1"/>
    </linearGradient>
    <clipPath id="clip-68">
      <path clip-rule="nonzero" d="M 438 2114 L 3853 2114 L 3853 2250.5 L 438 2250.5 Z M 438 2114 "/>
    </clipPath>
    <clipPath id="clip-71">
      <path clip-rule="nonzero" d="M 0 2120 L 1261 2120 L 1261 2250.5 L 0 2250.5 Z M 0 2120 "/>
    </clipPath>
  </defs>
  <g clip-path="url(#clip-6)">
    <g clip-path="url(#clip-7)">
      <g clip-path="url(#clip-8)">
        <path fill-rule="nonzero" fill="url(#linear-pattern-2)" d="M 1280.230469 463.730469 L 1278.792969 463.648438 L 1278.589844 467.269531 L 1280.027344 467.351562 Z M 1280.230469 463.730469 "/>
      </g>
    </g>
  </g>
  <path fill-rule="nonzero" fill="rgb(99.21875%, 75.78125%, 59.959412%)" fill-opacity="1" d="M 0.5 849 C 0.5 849 18.5 819 88.5 865 C 158.5 911 179.019531 896.5 179.019531 896.5 L 358 935.03125 L 374.964844 1012.75 L 358 1101.351562 L 0.5 1050.378906 L 0.5 849 "/>
  <g clip-path="url(#clip-24)" style="" transform="matrix(1, 0, 0.041606, 1.530684, -39.498615, -425.322693)">
    <g clip-path="url(#clip-25)">
      <path fill-rule="nonzero" fill="url(#linear-pattern-6)" d="M 1523.945312 1253.863281 L 3184.4375 1303.539062 L 3199.445312 801.863281 L 1538.953125 752.191406 Z M 1523.945312 1253.863281 "/>
    </g>
  </g>
  <g clip-path="url(#clip-68)"/>
  <g clip-path="url(#clip-71)"/>
</svg>