<?xml version="1.0" encoding="utf-8"?>
<svg xmlns="http://www.w3.org/2000/svg" width="4000.5" height="2250.5" viewBox="0 0 4000.5 2250.5">
  <defs>
    <clipPath id="clip-0">
      <path clip-rule="nonzero" d="M 0 0 L 4000.5 0 L 4000.5 2250 L 0 2250 Z M 0 0 "/>
    </clipPath>
    <clipPath id="clip-2">
      <path clip-rule="nonzero" d="M 4000.5 2250 L 0.5 2250 L 0.5 1502.210938 L 47.070312 1525.550781 C 47.070312 1525.550781 253.5 1544.171875 301.171875 1567.699219 C 311.898438 1572.988281 341.4375 1575.308594 382.285156 1575.308594 C 411.933594 1575.308594 447.519531 1574.089844 486.183594 1571.910156 C 451.140625 1585.441406 396.5 1629 396.5 1629 L 489.5 1769 L 648.980469 1802.679688 L 1513.558594 1832.539062 L 1567.929688 1825.421875 L 1603.101562 1886 C 1603.101562 1886 3285.5 1931 3302.5 1931.859375 C 3302.519531 1931.859375 3302.53125 1931.859375 3302.550781 1931.859375 C 3320.75 1931.859375 4000.5 1448.308594 4000.5 1448.308594 L 4000.5 2250 M 949.53125 1320.46875 C 938.496094 1304.320312 929.796875 1305.429688 899.996094 1290.359375 C 932.03125 1290.660156 964.179688 1290.878906 995.847656 1291.050781 C 983.292969 1300.320312 973.449219 1307.378906 968.140625 1309.789062 C 965.253906 1311.101562 958.660156 1314.921875 949.53125 1320.46875 M 4000.5 1041.808594 C 4000.5 1041.808594 3943.5 1005 3915.5 1005 C 3887.5 1005 3847.5 1005 3833.5 987 C 3819.5 969 3797.5 942 3731.46875 936.761719 C 3731.21875 936.738281 3730.960938 936.71875 3730.710938 936.699219 C 3720.941406 935.941406 3713.128906 935.621094 3706.839844 935.621094 C 3689.109375 935.621094 3683.519531 938.191406 3680.390625 940.761719 C 3677.261719 943.328125 3676.589844 945.898438 3668.699219 945.898438 C 3668.628906 945.898438 3668.570312 945.898438 3668.5 945.898438 C 3665.488281 945.878906 3661.398438 945.070312 3656.429688 943.589844 C 3630.03125 935.710938 3578.789062 908.929688 3532.5 882 C 3491.878906 858.359375 3421.25 836.910156 3360.921875 836.75 C 3360.640625 836.75 3360.371094 836.75 3360.089844 836.75 C 3339.039062 836.75 3319.269531 839.371094 3302.5 845.410156 C 3237.5 868.828125 3262.5 928 3212.5 973 C 3204.78125 979.949219 3195.828125 986.949219 3185.910156 993.941406 C 3163.589844 982.988281 3135.058594 969.679688 3111.648438 961 C 3065.800781 944 3001.5 928 2972.550781 920.558594 C 2943.601562 913.128906 2883.5 913 2780.699219 895 C 2677.890625 877 2702.5 881 2619 849 C 2535.5 817 2567.5 814 2492.449219 803.710938 C 2481.128906 802.148438 2472 801.460938 2464.390625 801.460938 C 2421.519531 801.460938 2426.78125 823.371094 2360.78125 836.75 C 2333.089844 842.359375 2309.738281 848.828125 2285.691406 855.800781 C 2255.109375 836.128906 2221 814.289062 2204 803.699219 C 2192.011719 796.230469 2181.78125 793.738281 2172.75 793.738281 C 2155.441406 793.738281 2142.558594 802.910156 2130.21875 803.699219 C 2123.960938 804.101562 2112.988281 804.238281 2101.128906 804.238281 C 2077.429688 804.238281 2050.21875 803.699219 2050.21875 803.699219 L 1972 768.5 C 1972 768.5 1908 742.5 1881.960938 716.21875 C 1855.921875 689.941406 1826 704.5 1785.761719 683.78125 C 1745.511719 663.058594 1724 652.5 1663.789062 635.371094 C 1603.578125 618.238281 1513.558594 539.429688 1513.558594 539.429688 L 1485.859375 537.390625 L 1411.289062 531.898438 L 1405.378906 533.210938 L 1374.25 540.128906 L 1343.53125 546.949219 L 1281.269531 572.28125 L 1223.359375 595.851562 C 1223.359375 595.851562 1221.640625 597.851562 1218.378906 601.269531 C 1208.929688 611.210938 1186.53125 633.089844 1156.070312 652.269531 C 1142.230469 660.988281 1120.089844 671.121094 1096.851562 680.710938 C 1090.78125 683.21875 1084.648438 685.691406 1078.558594 688.078125 C 1078.429688 688.140625 1078.289062 688.191406 1078.160156 688.238281 C 1070.449219 686.769531 1062.339844 685.28125 1053.808594 683.78125 C 1051.21875 683.320312 1048.738281 682.878906 1046.378906 682.449219 C 959.828125 666.789062 1025.441406 670.828125 913.121094 664.589844 C 797.738281 658.179688 844.5 656 662 635.371094 C 479.5 614.738281 475.140625 614.660156 475.140625 614.660156 C 475.140625 614.660156 451.746094 613.03125 417.035156 613.03125 C 399.683594 613.03125 379.5 613.441406 358 614.660156 C 293.5 618.320312 256.96875 682.878906 256.96875 682.878906 C 256.96875 682.878906 214.972656 688.101562 170.066406 688.101562 C 149.429688 688.101562 128.179688 687 110.109375 683.78125 C 106.675781 683.171875 103.257812 682.878906 99.867188 682.878906 C 49.679688 682.878906 5.445312 745.871094 0.5 753.148438 L 0.5 0 L 4000.5 0 L 4000.5 1041.808594 "/>
    </clipPath>
    <linearGradient id="linear-pattern-0" gradientUnits="userSpaceOnUse" x1="0.065272" y1="0" x2="1.636326" y2="0" gradientTransform="matrix(0, 2263.127495, -1432.160034, 0, 2000.5, -364.324249)">
      <stop offset="0" stop-color="rgb(100%, 76.077271%, 59.606934%)" stop-opacity="1"/>
      <stop offset="0.0625" stop-color="rgb(100%, 76.077271%, 59.606934%)" stop-opacity="1"/>
      <stop offset="0.0938" stop-color="rgb(100%, 76.077271%, 59.606934%)" stop-opacity="1"/>
      <stop offset="0.1094" stop-color="rgb(100%, 76.077271%, 59.606934%)" stop-opacity="1"/>
      <stop offset="0.1172" stop-color="rgb(100%, 76.083374%, 59.617615%)" stop-opacity="1"/>
      <stop offset="0.1211" stop-color="rgb(100%, 76.219177%, 59.829712%)" stop-opacity="1"/>
      <stop offset="0.125" stop-color="rgb(100%, 76.347351%, 60.031128%)" stop-opacity="1"/>
      <stop offset="0.1289" stop-color="rgb(100%, 76.475525%, 60.232544%)" stop-opacity="1"/>
      <stop offset="0.1328" stop-color="rgb(100%, 76.603699%, 60.43396%)" stop-opacity="1"/>
      <stop offset="0.1367" stop-color="rgb(100%, 76.731873%, 60.635376%)" stop-opacity="1"/>
      <stop offset="0.1406" stop-color="rgb(100%, 76.860046%, 60.836792%)" stop-opacity="1"/>
      <stop offset="0.1445" stop-color="rgb(100%, 76.98822%, 61.038208%)" stop-opacity="1"/>
      <stop offset="0.1484" stop-color="rgb(100%, 77.116394%, 61.239624%)" stop-opacity="1"/>
      <stop offset="0.1523" stop-color="rgb(100%, 77.244568%, 61.44104%)" stop-opacity="1"/>
      <stop offset="0.1563" stop-color="rgb(100%, 77.372742%, 61.642456%)" stop-opacity="1"/>
      <stop offset="0.1602" stop-color="rgb(100%, 77.500916%, 61.843872%)" stop-opacity="1"/>
      <stop offset="0.1641" stop-color="rgb(100%, 77.629089%, 62.045288%)" stop-opacity="1"/>
      <stop offset="0.168" stop-color="rgb(100%, 77.757263%, 62.246704%)" stop-opacity="1"/>
      <stop offset="0.1719" stop-color="rgb(100%, 77.885437%, 62.44812%)" stop-opacity="1"/>
      <stop offset="0.1758" stop-color="rgb(100%, 78.013611%, 62.649536%)" stop-opacity="1"/>
      <stop offset="0.1797" stop-color="rgb(100%, 78.141785%, 62.850952%)" stop-opacity="1"/>
      <stop offset="0.1836" stop-color="rgb(100%, 78.269958%, 63.052368%)" stop-opacity="1"/>
      <stop offset="0.1875" stop-color="rgb(100%, 78.398132%, 63.253784%)" stop-opacity="1"/>
      <stop offset="0.1914" stop-color="rgb(100%, 78.526306%, 63.4552%)" stop-opacity="1"/>
      <stop offset="0.1953" stop-color="rgb(100%, 78.65448%, 63.656616%)" stop-opacity="1"/>
      <stop offset="0.1992" stop-color="rgb(100%, 78.782654%, 63.858032%)" stop-opacity="1"/>
      <stop offset="0.2031" stop-color="rgb(100%, 78.910828%, 64.059448%)" stop-opacity="1"/>
      <stop offset="0.207" stop-color="rgb(100%, 79.039001%, 64.260864%)" stop-opacity="1"/>
      <stop offset="0.2109" stop-color="rgb(100%, 79.167175%, 64.46228%)" stop-opacity="1"/>
      <stop offset="0.2148" stop-color="rgb(100%, 79.295349%, 64.663696%)" stop-opacity="1"/>
      <stop offset="0.2188" stop-color="rgb(100%, 79.423523%, 64.865112%)" stop-opacity="1"/>
      <stop offset="0.2227" stop-color="rgb(100%, 79.551697%, 65.066528%)" stop-opacity="1"/>
      <stop offset="0.2266" stop-color="rgb(100%, 79.679871%, 65.267944%)" stop-opacity="1"/>
      <stop offset="0.2305" stop-color="rgb(100%, 79.808044%, 65.46936%)" stop-opacity="1"/>
      <stop offset="0.2344" stop-color="rgb(100%, 79.936218%, 65.670776%)" stop-opacity="1"/>
      <stop offset="0.2383" stop-color="rgb(100%, 80.064392%, 65.872192%)" stop-opacity="1"/>
      <stop offset="0.2422" stop-color="rgb(100%, 80.192566%, 66.073608%)" stop-opacity="1"/>
      <stop offset="0.2461" stop-color="rgb(100%, 80.32074%, 66.275024%)" stop-opacity="1"/>
      <stop offset="0.25" stop-color="rgb(100%, 80.448914%, 66.47644%)" stop-opacity="1"/>
      <stop offset="0.2539" stop-color="rgb(100%, 80.577087%, 66.677856%)" stop-opacity="1"/>
      <stop offset="0.2578" stop-color="rgb(100%, 80.705261%, 66.879272%)" stop-opacity="1"/>
      <stop offset="0.2617" stop-color="rgb(100%, 80.833435%, 67.080688%)" stop-opacity="1"/>
      <stop offset="0.2656" stop-color="rgb(100%, 80.961609%, 67.282104%)" stop-opacity="1"/>
      <stop offset="0.2695" stop-color="rgb(100%, 81.089783%, 67.483521%)" stop-opacity="1"/>
      <stop offset="0.2734" stop-color="rgb(100%, 81.217957%, 67.684937%)" stop-opacity="1"/>
      <stop offset="0.2773" stop-color="rgb(100%, 81.34613%, 67.886353%)" stop-opacity="1"/>
      <stop offset="0.2813" stop-color="rgb(100%, 81.474304%, 68.087769%)" stop-opacity="1"/>
      <stop offset="0.2852" stop-color="rgb(100%, 81.602478%, 68.289185%)" stop-opacity="1"/>
      <stop offset="0.2891" stop-color="rgb(100%, 81.730652%, 68.490601%)" stop-opacity="1"/>
      <stop offset="0.293" stop-color="rgb(100%, 81.858826%, 68.692017%)" stop-opacity="1"/>
      <stop offset="0.2969" stop-color="rgb(100%, 81.987%, 68.893433%)" stop-opacity="1"/>
      <stop offset="0.3008" stop-color="rgb(100%, 82.115173%, 69.094849%)" stop-opacity="1"/>
      <stop offset="0.3047" stop-color="rgb(100%, 82.243347%, 69.296265%)" stop-opacity="1"/>
      <stop offset="0.3086" stop-color="rgb(100%, 82.371521%, 69.497681%)" stop-opacity="1"/>
      <stop offset="0.3125" stop-color="rgb(100%, 82.499695%, 69.699097%)" stop-opacity="1"/>
      <stop offset="0.3164" stop-color="rgb(100%, 82.627869%, 69.900513%)" stop-opacity="1"/>
      <stop offset="0.3203" stop-color="rgb(100%, 82.756042%, 70.101929%)" stop-opacity="1"/>
      <stop offset="0.3242" stop-color="rgb(100%, 82.884216%, 70.303345%)" stop-opacity="1"/>
      <stop offset="0.3281" stop-color="rgb(100%, 83.01239%, 70.504761%)" stop-opacity="1"/>
      <stop offset="0.332" stop-color="rgb(100%, 83.140564%, 70.706177%)" stop-opacity="1"/>
      <stop offset="0.3359" stop-color="rgb(100%, 83.268738%, 70.907593%)" stop-opacity="1"/>
      <stop offset="0.3398" stop-color="rgb(100%, 83.396912%, 71.109009%)" stop-opacity="1"/>
      <stop offset="0.3438" stop-color="rgb(100%, 83.525085%, 71.310425%)" stop-opacity="1"/>
      <stop offset="0.3477" stop-color="rgb(100%, 83.653259%, 71.511841%)" stop-opacity="1"/>
      <stop offset="0.3516" stop-color="rgb(100%, 83.781433%, 71.713257%)" stop-opacity="1"/>
      <stop offset="0.3555" stop-color="rgb(100%, 83.909607%, 71.914673%)" stop-opacity="1"/>
      <stop offset="0.3594" stop-color="rgb(100%, 84.037781%, 72.116089%)" stop-opacity="1"/>
      <stop offset="0.3633" stop-color="rgb(100%, 84.165955%, 72.317505%)" stop-opacity="1"/>
      <stop offset="0.3672" stop-color="rgb(100%, 84.294128%, 72.518921%)" stop-opacity="1"/>
      <stop offset="0.3711" stop-color="rgb(100%, 84.422302%, 72.720337%)" stop-opacity="1"/>
      <stop offset="0.375" stop-color="rgb(100%, 84.550476%, 72.921753%)" stop-opacity="1"/>
      <stop offset="0.3789" stop-color="rgb(100%, 84.67865%, 73.123169%)" stop-opacity="1"/>
      <stop offset="0.3828" stop-color="rgb(100%, 84.806824%, 73.324585%)" stop-opacity="1"/>
      <stop offset="0.3867" stop-color="rgb(100%, 84.934998%, 73.524475%)" stop-opacity="1"/>
      <stop offset="0.3906" stop-color="rgb(100%, 85.063171%, 73.725891%)" stop-opacity="1"/>
      <stop offset="0.3945" stop-color="rgb(100%, 85.191345%, 73.927307%)" stop-opacity="1"/>
      <stop offset="0.3984" stop-color="rgb(100%, 85.319519%, 74.128723%)" stop-opacity="1"/>
      <stop offset="0.4023" stop-color="rgb(100%, 85.447693%, 74.330139%)" stop-opacity="1"/>
      <stop offset="0.4063" stop-color="rgb(100%, 85.575867%, 74.531555%)" stop-opacity="1"/>
      <stop offset="0.4102" stop-color="rgb(100%, 85.704041%, 74.732971%)" stop-opacity="1"/>
      <stop offset="0.4141" stop-color="rgb(100%, 85.832214%, 74.934387%)" stop-opacity="1"/>
      <stop offset="0.418" stop-color="rgb(100%, 85.960388%, 75.135803%)" stop-opacity="1"/>
      <stop offset="0.4219" stop-color="rgb(100%, 86.088562%, 75.337219%)" stop-opacity="1"/>
      <stop offset="0.4258" stop-color="rgb(100%, 86.216736%, 75.538635%)" stop-opacity="1"/>
      <stop offset="0.4297" stop-color="rgb(100%, 86.34491%, 75.740051%)" stop-opacity="1"/>
      <stop offset="0.4336" stop-color="rgb(100%, 86.473083%, 75.941467%)" stop-opacity="1"/>
      <stop offset="0.4375" stop-color="rgb(100%, 86.601257%, 76.142883%)" stop-opacity="1"/>
      <stop offset="0.4414" stop-color="rgb(100%, 86.729431%, 76.344299%)" stop-opacity="1"/>
      <stop offset="0.4453" stop-color="rgb(100%, 86.857605%, 76.545715%)" stop-opacity="1"/>
      <stop offset="0.4531" stop-color="rgb(100%, 86.956787%, 76.702881%)" stop-opacity="1"/>
      <stop offset="0.4688" stop-color="rgb(100%, 87.057495%, 76.861572%)" stop-opacity="1"/>
      <stop offset="0.5" stop-color="rgb(100%, 87.057495%, 76.861572%)" stop-opacity="1"/>
      <stop offset="1" stop-color="rgb(100%, 87.057495%, 76.861572%)" stop-opacity="1"/>
    </linearGradient>
    <clipPath id="clip-6">
      <path clip-rule="nonzero" d="M 1278 463 L 1280 463 L 1280 468 L 1278 468 Z M 1278 463 "/>
    </clipPath>
    <clipPath id="clip-7">
      <path clip-rule="nonzero" d="M 1279.53125 467.28125 L 1278.980469 464.859375 C 1278.898438 464.480469 1278.789062 464.019531 1279.238281 463.859375 C 1279.308594 463.828125 1279.679688 463.71875 1279.921875 464.179688 C 1280.03125 464.359375 1280 464.609375 1279.960938 464.839844 Z M 1279.53125 467.28125 "/>
    </clipPath>
    <clipPath id="clip-8">
      <path clip-rule="nonzero" d="M 1279.53125 467.28125 L 1278.980469 464.859375 C 1278.898438 464.480469 1278.789062 464.019531 1279.238281 463.859375 C 1279.308594 463.828125 1279.679688 463.71875 1279.921875 464.179688 C 1280.03125 464.359375 1280 464.609375 1279.960938 464.839844 L 1279.53125 467.28125 "/>
    </clipPath>
    <linearGradient id="linear-pattern-2" gradientUnits="userSpaceOnUse" x1="-0.0406801" y1="0" x2="1.010883" y2="0" gradientTransform="matrix(-0.193856, 3.44095, -3.44095, -0.193856, 1279.49, 463.83)">
      <stop offset="0" stop-color="rgb(96.076965%, 68.234253%, 52.548218%)" stop-opacity="1"/>
      <stop offset="0.25" stop-color="rgb(96.076965%, 68.234253%, 52.548218%)" stop-opacity="1"/>
      <stop offset="0.375" stop-color="rgb(96.115112%, 68.348694%, 52.662659%)" stop-opacity="1"/>
      <stop offset="0.5" stop-color="rgb(96.202087%, 68.608093%, 52.922058%)" stop-opacity="1"/>
      <stop offset="0.625" stop-color="rgb(96.298218%, 68.896484%, 53.208923%)" stop-opacity="1"/>
      <stop offset="0.75" stop-color="rgb(96.394348%, 69.18335%, 53.497314%)" stop-opacity="1"/>
      <stop offset="1" stop-color="rgb(96.455383%, 69.369507%, 53.683472%)" stop-opacity="1"/>
    </linearGradient>
  </defs>
  <g clip-path="url(#clip-0)" style="" transform="matrix(0.999957, 0, 0, 1.34514, 0.171135, 0)">
    <g clip-path="url(#clip-2)">
      <path fill-rule="nonzero" fill="url(#linear-pattern-0)" d="M 4000.5 -216.6 L 0.5 -216.6 L -213.67 2557.62 L 4096.8 1985.61 L 4000.5 -216.6 Z M 4000.5 -216.6" style=""/>
    </g>
  </g>
  <g clip-path="url(#clip-6)">
    <g clip-path="url(#clip-7)">
      <g clip-path="url(#clip-8)">
        <path fill-rule="nonzero" fill="url(#linear-pattern-2)" d="M 1280.230469 463.730469 L 1278.792969 463.648438 L 1278.589844 467.269531 L 1280.027344 467.351562 Z M 1280.230469 463.730469 "/>
      </g>
    </g>
  </g>
  <path fill-rule="nonzero" fill="rgb(87.5%, 43.138123%, 25.87738%)" fill-opacity="1" d="M 1491.558594 1299.488281 C 1490.910156 1298.570312 1490.28125 1297.660156 1489.660156 1296.78125 C 1495.5 1293.109375 1498.828125 1291 1498.828125 1291 L 1492.5 1299 L 1491.558594 1299.488281 "/>
  <path fill-rule="nonzero" fill="rgb(74.414062%, 30.200195%, 18.041992%)" fill-opacity="1" d="M 1575.28125 1709.859375 L 1575.28125 1709.851562 C 1575.28125 1709.851562 1575.308594 1709.839844 1575.371094 1709.828125 C 1575.339844 1709.839844 1575.308594 1709.851562 1575.28125 1709.859375 "/>
</svg>