<?xml version="1.0" encoding="utf-8"?>
<svg xmlns="http://www.w3.org/2000/svg" width="4000.5" height="2250.5" viewBox="0 0 4000.5 2250.5">
  <defs>
    <clipPath id="clip-32">
      <path clip-rule="nonzero" d="M 0 849 L 950 849 L 950 1576 L 0 1576 Z M 0 849 "/>
    </clipPath>
    <clipPath id="clip-33">
      <path clip-rule="nonzero" d="M 382.285156 1575.308594 C 341.4375 1575.308594 311.898438 1572.988281 301.171875 1567.699219 C 253.5 1544.171875 47.070312 1525.550781 47.070312 1525.550781 L 0.5 1502.210938 L 0.109375 1204.25 L 0.0390625 1150.679688 L 0 1121.371094 C 0 1121.371094 0.015625 1121.359375 0.0390625 1121.351562 C 3.355469 1120.070312 209.414062 1039.921875 261.738281 951.929688 C 305.496094 878.359375 309.574219 849 349.886719 849 C 358.183594 849 368.015625 850.238281 380.039062 852.601562 C 393.941406 855.320312 403.722656 856.109375 410.972656 856.109375 C 415.882812 856.109375 419.632812 855.75 422.710938 855.390625 C 425.792969 855.03125 428.207031 854.671875 430.449219 854.671875 C 439.429688 854.671875 445.617188 860.441406 480.800781 895.128906 C 546.5 959.890625 572.898438 980.078125 629.699219 1051.25 C 686.5 1122.429688 665.460938 1119.238281 733.980469 1185.109375 C 802.5 1250.96875 772.910156 1209.78125 853.210938 1262.78125 C 873.085938 1275.898438 888.195312 1284.398438 899.996094 1290.359375 C 929.796875 1305.429688 938.496094 1304.320312 949.53125 1320.46875 C 897.660156 1352.019531 763.921875 1439.480469 762.90625 1440.148438 C 752.773438 1437.949219 743.960938 1437.03125 736.296875 1437.03125 C 694.335938 1437.03125 686.863281 1464.808594 686.863281 1464.808594 L 605.472656 1525.769531 C 605.472656 1525.769531 532.5 1566 501.5 1568 C 497.136719 1568.28125 491.925781 1569.691406 486.183594 1571.910156 C 447.519531 1574.089844 411.933594 1575.308594 382.285156 1575.308594 "/>
    </clipPath>
    <clipPath id="clip-34">
      <path clip-rule="nonzero" d="M 382.285156 1575.308594 C 341.4375 1575.308594 311.898438 1572.988281 301.171875 1567.699219 C 253.5 1544.171875 47.070312 1525.550781 47.070312 1525.550781 L 0.5 1502.210938 L 0.109375 1204.25 L 0.0390625 1150.679688 L 0 1121.371094 C 0 1121.371094 0.015625 1121.359375 0.0390625 1121.351562 C 3.355469 1120.070312 209.414062 1039.921875 261.738281 951.929688 C 305.496094 878.359375 309.574219 849 349.886719 849 C 358.183594 849 368.015625 850.238281 380.039062 852.601562 C 393.941406 855.320312 403.722656 856.109375 410.972656 856.109375 C 415.882812 856.109375 419.632812 855.75 422.710938 855.390625 C 425.792969 855.03125 428.207031 854.671875 430.449219 854.671875 C 439.429688 854.671875 445.617188 860.441406 480.800781 895.128906 C 546.5 959.890625 572.898438 980.078125 629.699219 1051.25 C 686.5 1122.429688 665.460938 1119.238281 733.980469 1185.109375 C 802.5 1250.96875 772.910156 1209.78125 853.210938 1262.78125 C 873.085938 1275.898438 888.195312 1284.398438 899.996094 1290.359375 C 929.796875 1305.429688 938.496094 1304.320312 949.53125 1320.46875 C 897.660156 1352.019531 763.921875 1439.480469 762.90625 1440.148438 C 752.773438 1437.949219 743.960938 1437.03125 736.296875 1437.03125 C 694.335938 1437.03125 686.863281 1464.808594 686.863281 1464.808594 L 605.472656 1525.769531 C 605.472656 1525.769531 532.5 1566 501.5 1568 C 497.136719 1568.28125 491.925781 1569.691406 486.183594 1571.910156 C 447.519531 1574.089844 411.933594 1575.308594 382.285156 1575.308594 "/>
    </clipPath>
    <linearGradient id="linear-pattern-9" gradientUnits="userSpaceOnUse" x1="-0.0819205" y1="0" x2="1.224139" y2="0" gradientTransform="matrix(242.151, -719.331, 719.331, 242.151, 380.312, 1637.73)">
      <stop offset="0" stop-color="rgb(96.469116%, 68.626404%, 52.940369%)" stop-opacity="1"/>
      <stop offset="0.0625" stop-color="rgb(96.469116%, 68.626404%, 52.940369%)" stop-opacity="1"/>
      <stop offset="0.0781" stop-color="rgb(96.44165%, 68.522644%, 52.809143%)" stop-opacity="1"/>
      <stop offset="0.0938" stop-color="rgb(96.385193%, 68.315125%, 52.545166%)" stop-opacity="1"/>
      <stop offset="0.1094" stop-color="rgb(96.328735%, 68.106079%, 52.279663%)" stop-opacity="1"/>
      <stop offset="0.125" stop-color="rgb(96.272278%, 67.897034%, 52.01416%)" stop-opacity="1"/>
      <stop offset="0.1406" stop-color="rgb(96.21582%, 67.687988%, 51.748657%)" stop-opacity="1"/>
      <stop offset="0.1563" stop-color="rgb(96.159363%, 67.478943%, 51.483154%)" stop-opacity="1"/>
      <stop offset="0.1719" stop-color="rgb(96.104431%, 67.268372%, 51.217651%)" stop-opacity="1"/>
      <stop offset="0.1875" stop-color="rgb(96.047974%, 67.059326%, 50.952148%)" stop-opacity="1"/>
      <stop offset="0.2031" stop-color="rgb(95.991516%, 66.850281%, 50.686646%)" stop-opacity="1"/>
      <stop offset="0.2188" stop-color="rgb(95.935059%, 66.641235%, 50.421143%)" stop-opacity="1"/>
      <stop offset="0.2344" stop-color="rgb(95.878601%, 66.43219%, 50.15564%)" stop-opacity="1"/>
      <stop offset="0.25" stop-color="rgb(95.822144%, 66.223145%, 49.890137%)" stop-opacity="1"/>
      <stop offset="0.2656" stop-color="rgb(95.765686%, 66.014099%, 49.624634%)" stop-opacity="1"/>
      <stop offset="0.2813" stop-color="rgb(95.709229%, 65.803528%, 49.359131%)" stop-opacity="1"/>
      <stop offset="0.2969" stop-color="rgb(95.652771%, 65.594482%, 49.093628%)" stop-opacity="1"/>
      <stop offset="0.3125" stop-color="rgb(95.596313%, 65.385437%, 48.828125%)" stop-opacity="1"/>
      <stop offset="0.3281" stop-color="rgb(95.539856%, 65.176392%, 48.562622%)" stop-opacity="1"/>
      <stop offset="0.3438" stop-color="rgb(95.483398%, 64.967346%, 48.297119%)" stop-opacity="1"/>
      <stop offset="0.3594" stop-color="rgb(95.428467%, 64.758301%, 48.031616%)" stop-opacity="1"/>
      <stop offset="0.375" stop-color="rgb(95.372009%, 64.549255%, 47.766113%)" stop-opacity="1"/>
      <stop offset="0.3906" stop-color="rgb(95.315552%, 64.34021%, 47.50061%)" stop-opacity="1"/>
      <stop offset="0.4063" stop-color="rgb(95.259094%, 64.129639%, 47.233582%)" stop-opacity="1"/>
      <stop offset="0.4219" stop-color="rgb(95.202637%, 63.920593%, 46.968079%)" stop-opacity="1"/>
      <stop offset="0.4375" stop-color="rgb(95.146179%, 63.711548%, 46.702576%)" stop-opacity="1"/>
      <stop offset="0.4531" stop-color="rgb(95.089722%, 63.502502%, 46.437073%)" stop-opacity="1"/>
      <stop offset="0.4688" stop-color="rgb(95.033264%, 63.293457%, 46.17157%)" stop-opacity="1"/>
      <stop offset="0.4844" stop-color="rgb(94.976807%, 63.084412%, 45.906067%)" stop-opacity="1"/>
      <stop offset="0.5" stop-color="rgb(94.920349%, 62.875366%, 45.640564%)" stop-opacity="1"/>
      <stop offset="0.5156" stop-color="rgb(94.863892%, 62.666321%, 45.375061%)" stop-opacity="1"/>
      <stop offset="0.5312" stop-color="rgb(94.807434%, 62.45575%, 45.109558%)" stop-opacity="1"/>
      <stop offset="0.5469" stop-color="rgb(94.750977%, 62.246704%, 44.844055%)" stop-opacity="1"/>
      <stop offset="0.5625" stop-color="rgb(94.696045%, 62.037659%, 44.578552%)" stop-opacity="1"/>
      <stop offset="0.5781" stop-color="rgb(94.639587%, 61.828613%, 44.313049%)" stop-opacity="1"/>
      <stop offset="0.5938" stop-color="rgb(94.58313%, 61.619568%, 44.047546%)" stop-opacity="1"/>
      <stop offset="0.6094" stop-color="rgb(94.526672%, 61.410522%, 43.782043%)" stop-opacity="1"/>
      <stop offset="0.625" stop-color="rgb(94.470215%, 61.201477%, 43.516541%)" stop-opacity="1"/>
      <stop offset="0.6406" stop-color="rgb(94.413757%, 60.992432%, 43.251038%)" stop-opacity="1"/>
      <stop offset="0.6563" stop-color="rgb(94.3573%, 60.78186%, 42.985535%)" stop-opacity="1"/>
      <stop offset="0.6719" stop-color="rgb(94.300842%, 60.572815%, 42.720032%)" stop-opacity="1"/>
      <stop offset="0.6875" stop-color="rgb(94.244385%, 60.36377%, 42.454529%)" stop-opacity="1"/>
      <stop offset="0.7031" stop-color="rgb(94.187927%, 60.154724%, 42.189026%)" stop-opacity="1"/>
      <stop offset="0.7188" stop-color="rgb(94.13147%, 59.945679%, 41.921997%)" stop-opacity="1"/>
      <stop offset="0.7344" stop-color="rgb(94.075012%, 59.736633%, 41.656494%)" stop-opacity="1"/>
      <stop offset="0.75" stop-color="rgb(94.020081%, 59.527588%, 41.390991%)" stop-opacity="1"/>
      <stop offset="0.7656" stop-color="rgb(93.963623%, 59.317017%, 41.125488%)" stop-opacity="1"/>
      <stop offset="0.7812" stop-color="rgb(93.907166%, 59.107971%, 40.859985%)" stop-opacity="1"/>
      <stop offset="0.7969" stop-color="rgb(93.850708%, 58.898926%, 40.594482%)" stop-opacity="1"/>
      <stop offset="0.8125" stop-color="rgb(93.79425%, 58.68988%, 40.328979%)" stop-opacity="1"/>
      <stop offset="0.875" stop-color="rgb(93.745422%, 58.508301%, 40.097046%)" stop-opacity="1"/>
      <stop offset="1" stop-color="rgb(93.72406%, 58.430481%, 39.99939%)" stop-opacity="1"/>
    </linearGradient>
  </defs>
  <g clip-path="url(#clip-32)">
    <g clip-path="url(#clip-33)">
      <g clip-path="url(#clip-34)">
        <path fill-rule="nonzero" fill="url(#linear-pattern-9)" d="M -219.613281 1501.378906 L 852.878906 1862.417969 L 1169.144531 922.929688 L 96.648438 561.890625 Z M -219.613281 1501.378906 "/>
      </g>
    </g>
  </g>
  <path fill-rule="nonzero" fill="rgb(98.826599%, 69.334412%, 52.146912%)" fill-opacity="1" d="M 270.921875 1020.5 C 252 1055.5 169 1104.5 162 1111.5 C 160.339844 1113.160156 157.609375 1114.800781 154.421875 1116.320312 L 215 1095.5 L 239 1085.5 C 239 1085.5 244.621094 1106.5 211.808594 1125 C 179 1143.5 178.089844 1147.710938 153.039062 1158.609375 C 128 1169.5 79 1190.5 79 1190.5 C 79 1190.5 26.710938 1197.761719 0.109375 1204.25 L 0.0390625 1150.679688 C 50.808594 1131.171875 122.550781 1101.460938 141.351562 1083.261719 C 170 1055.5 257 978.5 257 978.5 L 321 919.5 L 358 896.5 C 358 896.5 316 945.5 305 952.5 C 294 959.5 222.039062 1023.480469 215.019531 1025.488281 C 208 1027.5 216 1019.5 203 1049.5 C 190 1079.5 121 1115.5 101 1133.5 C 81 1151.5 215 1056.5 215 1056.5 C 215 1056.5 239.109375 1046.359375 257.050781 1021.929688 C 275 997.5 320.53125 960.5 327.269531 961 C 334 961.5 289.839844 985.5 270.921875 1020.5 "/>
  <path fill-rule="nonzero" fill="rgb(87.5%, 43.138123%, 25.87738%)" fill-opacity="1" d="M 1491.558594 1299.488281 C 1490.910156 1298.570312 1490.28125 1297.660156 1489.660156 1296.78125 C 1495.5 1293.109375 1498.828125 1291 1498.828125 1291 L 1492.5 1299 L 1491.558594 1299.488281 "/>
</svg>