<?xml version="1.0" encoding="utf-8"?>
<svg xmlns="http://www.w3.org/2000/svg" width="4000.5" height="2250.5" viewBox="0 0 4000.5 2250.5">
  <defs>
    <clipPath id="clip-68">
      <path clip-rule="nonzero" d="M 438 2114 L 3853 2114 L 3853 2250.5 L 438 2250.5 Z M 438 2114 "/>
    </clipPath>
    <clipPath id="clip-69">
      <path clip-rule="nonzero" d="M 621.925781 2129.25 C 621.925781 2129.25 2291.238281 2104 2476.871094 2120 C 2476.871094 2120 3646.089844 2204 3852.800781 2250 L 1911.421875 2250.5 L 438.898438 2250.5 Z M 621.925781 2129.25 "/>
    </clipPath>
    <clipPath id="clip-70">
      <path clip-rule="nonzero" d="M 621.925781 2129.25 C 621.925781 2129.25 2291.238281 2104 2476.871094 2120 C 2476.871094 2120 3646.089844 2204 3852.800781 2250 L 1911.421875 2250.5 L 438.898438 2250.5 L 621.925781 2129.25 "/>
    </clipPath>
    <linearGradient id="linear-pattern-20" gradientUnits="userSpaceOnUse" x1="-0.13863" y1="0" x2="1.129871" y2="0" gradientTransform="matrix(-2692.45, 72.1949, -72.1949, -2692.45, 3480.68, 2156.29)">
      <stop offset="0" stop-color="rgb(21.176147%, 10.588074%, 13.33313%)" stop-opacity="1"/>
      <stop offset="0.0625" stop-color="rgb(21.176147%, 10.588074%, 13.33313%)" stop-opacity="1"/>
      <stop offset="0.0938" stop-color="rgb(21.176147%, 10.588074%, 13.33313%)" stop-opacity="1"/>
      <stop offset="0.1094" stop-color="rgb(21.176147%, 10.588074%, 13.33313%)" stop-opacity="1"/>
      <stop offset="0.1172" stop-color="rgb(21.296692%, 10.630798%, 13.342285%)" stop-opacity="1"/>
      <stop offset="0.125" stop-color="rgb(21.533203%, 10.716248%, 13.360596%)" stop-opacity="1"/>
      <stop offset="0.1328" stop-color="rgb(21.77124%, 10.801697%, 13.380432%)" stop-opacity="1"/>
      <stop offset="0.1406" stop-color="rgb(22.007751%, 10.887146%, 13.400269%)" stop-opacity="1"/>
      <stop offset="0.1484" stop-color="rgb(22.244263%, 10.972595%, 13.420105%)" stop-opacity="1"/>
      <stop offset="0.1563" stop-color="rgb(22.4823%, 11.058044%, 13.438416%)" stop-opacity="1"/>
      <stop offset="0.1641" stop-color="rgb(22.718811%, 11.143494%, 13.458252%)" stop-opacity="1"/>
      <stop offset="0.1719" stop-color="rgb(22.955322%, 11.228943%, 13.478088%)" stop-opacity="1"/>
      <stop offset="0.1797" stop-color="rgb(23.193359%, 11.314392%, 13.497925%)" stop-opacity="1"/>
      <stop offset="0.1875" stop-color="rgb(23.429871%, 11.401367%, 13.516235%)" stop-opacity="1"/>
      <stop offset="0.1953" stop-color="rgb(23.666382%, 11.486816%, 13.536072%)" stop-opacity="1"/>
      <stop offset="0.2031" stop-color="rgb(23.904419%, 11.572266%, 13.555908%)" stop-opacity="1"/>
      <stop offset="0.2109" stop-color="rgb(24.14093%, 11.657715%, 13.575745%)" stop-opacity="1"/>
      <stop offset="0.2188" stop-color="rgb(24.378967%, 11.743164%, 13.594055%)" stop-opacity="1"/>
      <stop offset="0.2266" stop-color="rgb(24.615479%, 11.828613%, 13.613892%)" stop-opacity="1"/>
      <stop offset="0.2344" stop-color="rgb(24.85199%, 11.914062%, 13.633728%)" stop-opacity="1"/>
      <stop offset="0.2422" stop-color="rgb(25.090027%, 11.999512%, 13.653564%)" stop-opacity="1"/>
      <stop offset="0.25" stop-color="rgb(25.326538%, 12.084961%, 13.671875%)" stop-opacity="1"/>
      <stop offset="0.2578" stop-color="rgb(25.563049%, 12.17041%, 13.691711%)" stop-opacity="1"/>
      <stop offset="0.2656" stop-color="rgb(25.801086%, 12.255859%, 13.711548%)" stop-opacity="1"/>
      <stop offset="0.2734" stop-color="rgb(26.037598%, 12.341309%, 13.729858%)" stop-opacity="1"/>
      <stop offset="0.2813" stop-color="rgb(26.274109%, 12.426758%, 13.749695%)" stop-opacity="1"/>
      <stop offset="0.2891" stop-color="rgb(26.512146%, 12.512207%, 13.769531%)" stop-opacity="1"/>
      <stop offset="0.2969" stop-color="rgb(26.748657%, 12.597656%, 13.789368%)" stop-opacity="1"/>
      <stop offset="0.3047" stop-color="rgb(26.986694%, 12.683105%, 13.807678%)" stop-opacity="1"/>
      <stop offset="0.3125" stop-color="rgb(27.223206%, 12.768555%, 13.827515%)" stop-opacity="1"/>
      <stop offset="0.3203" stop-color="rgb(27.459717%, 12.854004%, 13.847351%)" stop-opacity="1"/>
      <stop offset="0.3281" stop-color="rgb(27.697754%, 12.939453%, 13.867188%)" stop-opacity="1"/>
      <stop offset="0.3359" stop-color="rgb(27.934265%, 13.024902%, 13.885498%)" stop-opacity="1"/>
      <stop offset="0.3438" stop-color="rgb(28.170776%, 13.110352%, 13.905334%)" stop-opacity="1"/>
      <stop offset="0.3516" stop-color="rgb(28.408813%, 13.195801%, 13.925171%)" stop-opacity="1"/>
      <stop offset="0.3594" stop-color="rgb(28.645325%, 13.28125%, 13.945007%)" stop-opacity="1"/>
      <stop offset="0.3672" stop-color="rgb(28.881836%, 13.366699%, 13.963318%)" stop-opacity="1"/>
      <stop offset="0.375" stop-color="rgb(29.119873%, 13.452148%, 13.983154%)" stop-opacity="1"/>
      <stop offset="0.3828" stop-color="rgb(29.356384%, 13.537598%, 14.002991%)" stop-opacity="1"/>
      <stop offset="0.3906" stop-color="rgb(29.594421%, 13.623047%, 14.021301%)" stop-opacity="1"/>
      <stop offset="0.3984" stop-color="rgb(29.830933%, 13.708496%, 14.041138%)" stop-opacity="1"/>
      <stop offset="0.4063" stop-color="rgb(30.067444%, 13.793945%, 14.060974%)" stop-opacity="1"/>
      <stop offset="0.4141" stop-color="rgb(30.305481%, 13.879395%, 14.080811%)" stop-opacity="1"/>
      <stop offset="0.4219" stop-color="rgb(30.541992%, 13.96637%, 14.099121%)" stop-opacity="1"/>
      <stop offset="0.4297" stop-color="rgb(30.778503%, 14.051819%, 14.118958%)" stop-opacity="1"/>
      <stop offset="0.4375" stop-color="rgb(31.016541%, 14.137268%, 14.138794%)" stop-opacity="1"/>
      <stop offset="0.4453" stop-color="rgb(31.253052%, 14.222717%, 14.15863%)" stop-opacity="1"/>
      <stop offset="0.4531" stop-color="rgb(31.489563%, 14.308167%, 14.176941%)" stop-opacity="1"/>
      <stop offset="0.4609" stop-color="rgb(31.7276%, 14.393616%, 14.196777%)" stop-opacity="1"/>
      <stop offset="0.4688" stop-color="rgb(31.964111%, 14.479065%, 14.216614%)" stop-opacity="1"/>
      <stop offset="0.4766" stop-color="rgb(32.202148%, 14.564514%, 14.23645%)" stop-opacity="1"/>
      <stop offset="0.4844" stop-color="rgb(32.43866%, 14.649963%, 14.254761%)" stop-opacity="1"/>
      <stop offset="0.4922" stop-color="rgb(32.675171%, 14.735413%, 14.274597%)" stop-opacity="1"/>
      <stop offset="0.5" stop-color="rgb(32.913208%, 14.820862%, 14.294434%)" stop-opacity="1"/>
      <stop offset="0.5078" stop-color="rgb(33.149719%, 14.906311%, 14.312744%)" stop-opacity="1"/>
      <stop offset="0.5156" stop-color="rgb(33.38623%, 14.99176%, 14.332581%)" stop-opacity="1"/>
      <stop offset="0.5234" stop-color="rgb(33.624268%, 15.077209%, 14.352417%)" stop-opacity="1"/>
      <stop offset="0.5312" stop-color="rgb(33.860779%, 15.162659%, 14.372253%)" stop-opacity="1"/>
      <stop offset="0.5391" stop-color="rgb(34.09729%, 15.248108%, 14.390564%)" stop-opacity="1"/>
      <stop offset="0.5469" stop-color="rgb(34.335327%, 15.333557%, 14.4104%)" stop-opacity="1"/>
      <stop offset="0.5547" stop-color="rgb(34.571838%, 15.419006%, 14.430237%)" stop-opacity="1"/>
      <stop offset="0.5625" stop-color="rgb(34.809875%, 15.504456%, 14.450073%)" stop-opacity="1"/>
      <stop offset="0.5703" stop-color="rgb(35.046387%, 15.589905%, 14.468384%)" stop-opacity="1"/>
      <stop offset="0.5781" stop-color="rgb(35.282898%, 15.675354%, 14.48822%)" stop-opacity="1"/>
      <stop offset="0.5859" stop-color="rgb(35.520935%, 15.760803%, 14.508057%)" stop-opacity="1"/>
      <stop offset="0.5938" stop-color="rgb(35.757446%, 15.846252%, 14.527893%)" stop-opacity="1"/>
      <stop offset="0.6016" stop-color="rgb(35.993958%, 15.931702%, 14.546204%)" stop-opacity="1"/>
      <stop offset="0.6094" stop-color="rgb(36.231995%, 16.017151%, 14.56604%)" stop-opacity="1"/>
      <stop offset="0.6172" stop-color="rgb(36.468506%, 16.1026%, 14.585876%)" stop-opacity="1"/>
      <stop offset="0.625" stop-color="rgb(36.705017%, 16.188049%, 14.605713%)" stop-opacity="1"/>
      <stop offset="0.6328" stop-color="rgb(36.943054%, 16.273499%, 14.624023%)" stop-opacity="1"/>
      <stop offset="0.6406" stop-color="rgb(37.179565%, 16.358948%, 14.64386%)" stop-opacity="1"/>
      <stop offset="0.6484" stop-color="rgb(37.417603%, 16.444397%, 14.663696%)" stop-opacity="1"/>
      <stop offset="0.6563" stop-color="rgb(37.654114%, 16.531372%, 14.682007%)" stop-opacity="1"/>
      <stop offset="0.6641" stop-color="rgb(37.890625%, 16.616821%, 14.701843%)" stop-opacity="1"/>
      <stop offset="0.6719" stop-color="rgb(38.128662%, 16.702271%, 14.72168%)" stop-opacity="1"/>
      <stop offset="0.6797" stop-color="rgb(38.365173%, 16.78772%, 14.741516%)" stop-opacity="1"/>
      <stop offset="0.6875" stop-color="rgb(38.601685%, 16.873169%, 14.759827%)" stop-opacity="1"/>
      <stop offset="0.6953" stop-color="rgb(38.839722%, 16.958618%, 14.779663%)" stop-opacity="1"/>
      <stop offset="0.7031" stop-color="rgb(39.076233%, 17.044067%, 14.7995%)" stop-opacity="1"/>
      <stop offset="0.7109" stop-color="rgb(39.312744%, 17.129517%, 14.819336%)" stop-opacity="1"/>
      <stop offset="0.7188" stop-color="rgb(39.550781%, 17.214966%, 14.837646%)" stop-opacity="1"/>
      <stop offset="0.7266" stop-color="rgb(39.787292%, 17.300415%, 14.857483%)" stop-opacity="1"/>
      <stop offset="0.7344" stop-color="rgb(40.02533%, 17.385864%, 14.877319%)" stop-opacity="1"/>
      <stop offset="0.7422" stop-color="rgb(40.261841%, 17.471313%, 14.897156%)" stop-opacity="1"/>
      <stop offset="0.75" stop-color="rgb(40.498352%, 17.556763%, 14.915466%)" stop-opacity="1"/>
      <stop offset="0.7578" stop-color="rgb(40.736389%, 17.642212%, 14.935303%)" stop-opacity="1"/>
      <stop offset="0.7656" stop-color="rgb(40.9729%, 17.727661%, 14.955139%)" stop-opacity="1"/>
      <stop offset="0.7734" stop-color="rgb(41.209412%, 17.81311%, 14.97345%)" stop-opacity="1"/>
      <stop offset="0.7812" stop-color="rgb(41.447449%, 17.89856%, 14.993286%)" stop-opacity="1"/>
      <stop offset="0.7891" stop-color="rgb(41.68396%, 17.984009%, 15.013123%)" stop-opacity="1"/>
      <stop offset="0.7969" stop-color="rgb(41.920471%, 18.069458%, 15.032959%)" stop-opacity="1"/>
      <stop offset="0.8047" stop-color="rgb(42.158508%, 18.154907%, 15.05127%)" stop-opacity="1"/>
      <stop offset="0.8125" stop-color="rgb(42.39502%, 18.240356%, 15.071106%)" stop-opacity="1"/>
      <stop offset="0.8203" stop-color="rgb(42.633057%, 18.325806%, 15.090942%)" stop-opacity="1"/>
      <stop offset="0.8281" stop-color="rgb(42.869568%, 18.411255%, 15.110779%)" stop-opacity="1"/>
      <stop offset="0.8359" stop-color="rgb(43.106079%, 18.496704%, 15.129089%)" stop-opacity="1"/>
      <stop offset="0.8438" stop-color="rgb(43.344116%, 18.582153%, 15.148926%)" stop-opacity="1"/>
      <stop offset="0.8516" stop-color="rgb(43.580627%, 18.667603%, 15.168762%)" stop-opacity="1"/>
      <stop offset="0.8594" stop-color="rgb(43.817139%, 18.753052%, 15.188599%)" stop-opacity="1"/>
      <stop offset="0.8672" stop-color="rgb(44.055176%, 18.838501%, 15.206909%)" stop-opacity="1"/>
      <stop offset="0.875" stop-color="rgb(44.291687%, 18.92395%, 15.226746%)" stop-opacity="1"/>
      <stop offset="0.8828" stop-color="rgb(44.528198%, 19.009399%, 15.246582%)" stop-opacity="1"/>
      <stop offset="0.8906" stop-color="rgb(44.766235%, 19.096375%, 15.266418%)" stop-opacity="1"/>
      <stop offset="0.9063" stop-color="rgb(44.99054%, 19.177246%, 15.284729%)" stop-opacity="1"/>
      <stop offset="0.9375" stop-color="rgb(45.097351%, 19.215393%, 15.293884%)" stop-opacity="1"/>
      <stop offset="1" stop-color="rgb(45.097351%, 19.215393%, 15.293884%)" stop-opacity="1"/>
    </linearGradient>
    <clipPath id="clip-71">
      <path clip-rule="nonzero" d="M 0 2120 L 1261 2120 L 1261 2250.5 L 0 2250.5 Z M 0 2120 "/>
    </clipPath>
    <clipPath id="clip-72">
      <path clip-rule="nonzero" d="M 0 2178 L 2824 2178 L 2824 2250.5 L 0 2250.5 Z M 0 2178 "/>
    </clipPath>
    <clipPath id="clip-73">
      <path clip-rule="nonzero" d="M 1874 2207 L 2527 2207 L 2527 2250.5 L 1874 2250.5 Z M 1874 2207 "/>
    </clipPath>
    <clipPath id="clip-74">
      <path clip-rule="nonzero" d="M 2579 1969 L 2753 1969 L 2753 2136 L 2579 2136 Z M 2579 1969 "/>
    </clipPath>
    <clipPath id="clip-75">
      <path clip-rule="nonzero" d="M 2655.5 2136 C 2655.5 2136 2652.261719 2134.128906 2647.109375 2131.128906 C 2626.210938 2118.941406 2573.878906 2088.199219 2579.5 2089 C 2586.5 2090 2665.21875 2136 2665.21875 2136 L 2608.5 2075 L 2665.21875 2131.140625 L 2617.5 2032 L 2669.5 2126 L 2636.5 2017 L 2669.5 2109.589844 L 2648.5 1969 L 2677.5 2116 C 2677.5 2116 2670.5 1974 2670.5 1976 C 2670.5 1977.601562 2681.96875 2065.859375 2686.601562 2101.398438 C 2687.769531 2110.378906 2688.5 2116 2688.5 2116 L 2688.5 2078.660156 C 2688.5 2078.660156 2702.5 2023 2703.5 2016 C 2704.5 2009 2696.5 1976 2696.5 1976 L 2705.5 2002 C 2705.5 2002 2706.5 2019 2705.5 2026 C 2704.5 2033 2709.5 2021 2702.5 2038 C 2695.5 2055 2697.5 2066 2697.5 2074 C 2697.5 2082 2697.5 2084 2698.5 2099 C 2699.5 2114 2699.5 2119 2699.5 2119 C 2699.5 2119 2698.5 2125 2697.5 2130 C 2696.5 2135 2752.5 2028 2752.5 2028 C 2752.5 2028 2721.5 2125 2718.5 2129 C 2715.5 2133 2704.578125 2136 2704.578125 2136 Z M 2655.5 2136 "/>
    </clipPath>
    <clipPath id="clip-76">
      <path clip-rule="nonzero" d="M 2655.5 2136 C 2655.5 2136 2652.261719 2134.128906 2647.109375 2131.128906 C 2626.210938 2118.941406 2573.878906 2088.199219 2579.5 2089 C 2586.5 2090 2665.21875 2136 2665.21875 2136 L 2608.5 2075 L 2665.21875 2131.140625 L 2617.5 2032 L 2669.5 2126 L 2636.5 2017 L 2669.5 2109.589844 L 2648.5 1969 L 2677.5 2116 C 2677.5 2116 2670.5 1974 2670.5 1976 C 2670.5 1977.601562 2681.96875 2065.859375 2686.601562 2101.398438 C 2687.769531 2110.378906 2688.5 2116 2688.5 2116 L 2688.5 2078.660156 C 2688.5 2078.660156 2702.5 2023 2703.5 2016 C 2704.5 2009 2696.5 1976 2696.5 1976 L 2705.5 2002 C 2705.5 2002 2706.5 2019 2705.5 2026 C 2704.5 2033 2709.5 2021 2702.5 2038 C 2695.5 2055 2697.5 2066 2697.5 2074 C 2697.5 2082 2697.5 2084 2698.5 2099 C 2699.5 2114 2699.5 2119 2699.5 2119 C 2699.5 2119 2698.5 2125 2697.5 2130 C 2696.5 2135 2752.5 2028 2752.5 2028 C 2752.5 2028 2721.5 2125 2718.5 2129 C 2715.5 2133 2704.578125 2136 2704.578125 2136 L 2655.5 2136 "/>
    </clipPath>
    <linearGradient id="linear-pattern-21" gradientUnits="userSpaceOnUse" x1="-0.0299852" y1="0" x2="1.000006" y2="0" gradientTransform="matrix(173.419, 0, 0, 173.419, 2579.08, 2052.5)">
      <stop offset="0" stop-color="rgb(21.176147%, 10.588074%, 13.33313%)" stop-opacity="1"/>
      <stop offset="0.0313" stop-color="rgb(21.202087%, 10.597229%, 13.334656%)" stop-opacity="1"/>
      <stop offset="0.0469" stop-color="rgb(21.420288%, 10.675049%, 13.35144%)" stop-opacity="1"/>
      <stop offset="0.0625" stop-color="rgb(21.806335%, 10.813904%, 13.383484%)" stop-opacity="1"/>
      <stop offset="0.0781" stop-color="rgb(22.190857%, 10.952759%, 13.415527%)" stop-opacity="1"/>
      <stop offset="0.0938" stop-color="rgb(22.575378%, 11.091614%, 13.446045%)" stop-opacity="1"/>
      <stop offset="0.1094" stop-color="rgb(22.9599%, 11.230469%, 13.478088%)" stop-opacity="1"/>
      <stop offset="0.125" stop-color="rgb(23.345947%, 11.369324%, 13.510132%)" stop-opacity="1"/>
      <stop offset="0.1406" stop-color="rgb(23.730469%, 11.508179%, 13.542175%)" stop-opacity="1"/>
      <stop offset="0.1563" stop-color="rgb(24.11499%, 11.647034%, 13.572693%)" stop-opacity="1"/>
      <stop offset="0.1719" stop-color="rgb(24.501038%, 11.785889%, 13.604736%)" stop-opacity="1"/>
      <stop offset="0.1875" stop-color="rgb(24.885559%, 11.924744%, 13.63678%)" stop-opacity="1"/>
      <stop offset="0.2031" stop-color="rgb(25.270081%, 12.063599%, 13.667297%)" stop-opacity="1"/>
      <stop offset="0.2188" stop-color="rgb(25.656128%, 12.202454%, 13.699341%)" stop-opacity="1"/>
      <stop offset="0.2344" stop-color="rgb(26.040649%, 12.341309%, 13.731384%)" stop-opacity="1"/>
      <stop offset="0.25" stop-color="rgb(26.425171%, 12.480164%, 13.761902%)" stop-opacity="1"/>
      <stop offset="0.2656" stop-color="rgb(26.809692%, 12.619019%, 13.793945%)" stop-opacity="1"/>
      <stop offset="0.2813" stop-color="rgb(27.19574%, 12.757874%, 13.825989%)" stop-opacity="1"/>
      <stop offset="0.2969" stop-color="rgb(27.580261%, 12.896729%, 13.856506%)" stop-opacity="1"/>
      <stop offset="0.3125" stop-color="rgb(27.964783%, 13.035583%, 13.88855%)" stop-opacity="1"/>
      <stop offset="0.3281" stop-color="rgb(28.35083%, 13.174438%, 13.920593%)" stop-opacity="1"/>
      <stop offset="0.3438" stop-color="rgb(28.735352%, 13.313293%, 13.951111%)" stop-opacity="1"/>
      <stop offset="0.3594" stop-color="rgb(29.119873%, 13.452148%, 13.983154%)" stop-opacity="1"/>
      <stop offset="0.375" stop-color="rgb(29.50592%, 13.591003%, 14.015198%)" stop-opacity="1"/>
      <stop offset="0.3906" stop-color="rgb(29.890442%, 13.729858%, 14.045715%)" stop-opacity="1"/>
      <stop offset="0.4063" stop-color="rgb(30.274963%, 13.868713%, 14.077759%)" stop-opacity="1"/>
      <stop offset="0.4219" stop-color="rgb(30.661011%, 14.007568%, 14.109802%)" stop-opacity="1"/>
      <stop offset="0.4375" stop-color="rgb(31.045532%, 14.146423%, 14.14032%)" stop-opacity="1"/>
      <stop offset="0.4531" stop-color="rgb(31.430054%, 14.285278%, 14.172363%)" stop-opacity="1"/>
      <stop offset="0.4688" stop-color="rgb(31.814575%, 14.424133%, 14.204407%)" stop-opacity="1"/>
      <stop offset="0.4844" stop-color="rgb(32.200623%, 14.562988%, 14.23645%)" stop-opacity="1"/>
      <stop offset="0.5" stop-color="rgb(32.585144%, 14.701843%, 14.266968%)" stop-opacity="1"/>
      <stop offset="0.5156" stop-color="rgb(32.969666%, 14.840698%, 14.299011%)" stop-opacity="1"/>
      <stop offset="0.5312" stop-color="rgb(33.355713%, 14.979553%, 14.331055%)" stop-opacity="1"/>
      <stop offset="0.5469" stop-color="rgb(33.740234%, 15.118408%, 14.361572%)" stop-opacity="1"/>
      <stop offset="0.5625" stop-color="rgb(34.124756%, 15.257263%, 14.393616%)" stop-opacity="1"/>
      <stop offset="0.5781" stop-color="rgb(34.510803%, 15.396118%, 14.425659%)" stop-opacity="1"/>
      <stop offset="0.5938" stop-color="rgb(34.895325%, 15.534973%, 14.456177%)" stop-opacity="1"/>
      <stop offset="0.6094" stop-color="rgb(35.279846%, 15.673828%, 14.48822%)" stop-opacity="1"/>
      <stop offset="0.625" stop-color="rgb(35.664368%, 15.812683%, 14.520264%)" stop-opacity="1"/>
      <stop offset="0.6406" stop-color="rgb(36.050415%, 15.951538%, 14.550781%)" stop-opacity="1"/>
      <stop offset="0.6563" stop-color="rgb(36.434937%, 16.090393%, 14.582825%)" stop-opacity="1"/>
      <stop offset="0.6719" stop-color="rgb(36.819458%, 16.229248%, 14.614868%)" stop-opacity="1"/>
      <stop offset="0.6875" stop-color="rgb(37.205505%, 16.368103%, 14.645386%)" stop-opacity="1"/>
      <stop offset="0.7031" stop-color="rgb(37.590027%, 16.506958%, 14.677429%)" stop-opacity="1"/>
      <stop offset="0.7188" stop-color="rgb(37.974548%, 16.645813%, 14.709473%)" stop-opacity="1"/>
      <stop offset="0.7344" stop-color="rgb(38.360596%, 16.784668%, 14.73999%)" stop-opacity="1"/>
      <stop offset="0.75" stop-color="rgb(38.745117%, 16.923523%, 14.772034%)" stop-opacity="1"/>
      <stop offset="0.7656" stop-color="rgb(39.129639%, 17.062378%, 14.804077%)" stop-opacity="1"/>
      <stop offset="0.7812" stop-color="rgb(39.51416%, 17.201233%, 14.834595%)" stop-opacity="1"/>
      <stop offset="0.7969" stop-color="rgb(39.900208%, 17.340088%, 14.866638%)" stop-opacity="1"/>
      <stop offset="0.8125" stop-color="rgb(40.284729%, 17.478943%, 14.898682%)" stop-opacity="1"/>
      <stop offset="0.8281" stop-color="rgb(40.66925%, 17.617798%, 14.929199%)" stop-opacity="1"/>
      <stop offset="0.8438" stop-color="rgb(41.055298%, 17.756653%, 14.961243%)" stop-opacity="1"/>
      <stop offset="0.8594" stop-color="rgb(41.439819%, 17.895508%, 14.993286%)" stop-opacity="1"/>
      <stop offset="0.875" stop-color="rgb(41.824341%, 18.034363%, 15.02533%)" stop-opacity="1"/>
      <stop offset="0.8906" stop-color="rgb(42.210388%, 18.173218%, 15.055847%)" stop-opacity="1"/>
      <stop offset="0.9063" stop-color="rgb(42.59491%, 18.312073%, 15.087891%)" stop-opacity="1"/>
      <stop offset="0.9219" stop-color="rgb(42.979431%, 18.450928%, 15.119934%)" stop-opacity="1"/>
      <stop offset="0.9375" stop-color="rgb(43.365479%, 18.589783%, 15.150452%)" stop-opacity="1"/>
      <stop offset="0.9531" stop-color="rgb(43.75%, 18.728638%, 15.182495%)" stop-opacity="1"/>
      <stop offset="0.9688" stop-color="rgb(44.134521%, 18.867493%, 15.214539%)" stop-opacity="1"/>
      <stop offset="0.9844" stop-color="rgb(44.519043%, 19.006348%, 15.245056%)" stop-opacity="1"/>
      <stop offset="1" stop-color="rgb(44.90509%, 19.145203%, 15.2771%)" stop-opacity="1"/>
    </linearGradient>
    <clipPath id="clip-77">
      <path clip-rule="nonzero" d="M 2831 1881 L 3076 1881 L 3076 2157 L 2831 2157 Z M 2831 1881 "/>
    </clipPath>
    <clipPath id="clip-78">
      <path clip-rule="nonzero" d="M 2898.5 2157 C 2898.5 2157 2825.5 2123 2831.5 2122 C 2837.5 2121 2912.5 2151 2912.5 2151 C 2912.5 2151 2907.640625 2144.558594 2900.988281 2135.691406 C 2885.859375 2115.550781 2861.421875 2082.921875 2863.5 2085 C 2866.5 2088 2912.5 2136.921875 2912.5 2136.921875 L 2831.148438 1950.308594 L 2918.5 2126 C 2918.5 2126 2894.5 1932 2905.5 1881 C 2905.5 1881 2914.5 2118 2929.5 2122 C 2944.5 2126 2929.5 1943.96875 2929.5 1943.488281 C 2929.5 1943 2943.5 2014 2943.5 2014 L 2943.5 1965.101562 L 2951.050781 2019 L 2951.050781 1974.210938 L 2953.5 2099 L 2976.5 1951 C 2976.5 1951 2988.5 2040 2952.5 2121 L 3021.5 2048 L 2964.5 2130 L 3059.5 2071 L 2974.5 2135 L 3065.5 2119 L 2997.5 2145 L 3075.5 2149 L 2995.429688 2157 Z M 2898.5 2157 "/>
    </clipPath>
    <clipPath id="clip-79">
      <path clip-rule="nonzero" d="M 2898.5 2157 C 2898.5 2157 2825.5 2123 2831.5 2122 C 2837.5 2121 2912.5 2151 2912.5 2151 C 2912.5 2151 2907.640625 2144.558594 2900.988281 2135.691406 C 2885.859375 2115.550781 2861.421875 2082.921875 2863.5 2085 C 2866.5 2088 2912.5 2136.921875 2912.5 2136.921875 L 2831.148438 1950.308594 L 2918.5 2126 C 2918.5 2126 2894.5 1932 2905.5 1881 C 2905.5 1881 2914.5 2118 2929.5 2122 C 2944.5 2126 2929.5 1943.96875 2929.5 1943.488281 C 2929.5 1943 2943.5 2014 2943.5 2014 L 2943.5 1965.101562 L 2951.050781 2019 L 2951.050781 1974.210938 L 2953.5 2099 L 2976.5 1951 C 2976.5 1951 2988.5 2040 2952.5 2121 L 3021.5 2048 L 2964.5 2130 L 3059.5 2071 L 2974.5 2135 L 3065.5 2119 L 2997.5 2145 L 3075.5 2149 L 2995.429688 2157 L 2898.5 2157 "/>
    </clipPath>
    <linearGradient id="linear-pattern-22" gradientUnits="userSpaceOnUse" x1="-0.0231225" y1="0" x2="0.999996" y2="0" gradientTransform="matrix(244.351, 0, 0, 244.351, 2831.15, 2019)">
      <stop offset="0" stop-color="rgb(21.176147%, 10.588074%, 13.33313%)" stop-opacity="1"/>
      <stop offset="0.0313" stop-color="rgb(21.281433%, 10.626221%, 13.340759%)" stop-opacity="1"/>
      <stop offset="0.0469" stop-color="rgb(21.577454%, 10.733032%, 13.365173%)" stop-opacity="1"/>
      <stop offset="0.0625" stop-color="rgb(21.960449%, 10.870361%, 13.397217%)" stop-opacity="1"/>
      <stop offset="0.0781" stop-color="rgb(22.343445%, 11.00769%, 13.427734%)" stop-opacity="1"/>
      <stop offset="0.0938" stop-color="rgb(22.724915%, 11.146545%, 13.459778%)" stop-opacity="1"/>
      <stop offset="0.1094" stop-color="rgb(23.10791%, 11.283875%, 13.490295%)" stop-opacity="1"/>
      <stop offset="0.125" stop-color="rgb(23.490906%, 11.422729%, 13.522339%)" stop-opacity="1"/>
      <stop offset="0.1406" stop-color="rgb(23.872375%, 11.560059%, 13.552856%)" stop-opacity="1"/>
      <stop offset="0.1563" stop-color="rgb(24.255371%, 11.697388%, 13.5849%)" stop-opacity="1"/>
      <stop offset="0.1719" stop-color="rgb(24.636841%, 11.836243%, 13.615417%)" stop-opacity="1"/>
      <stop offset="0.1875" stop-color="rgb(25.019836%, 11.973572%, 13.647461%)" stop-opacity="1"/>
      <stop offset="0.2031" stop-color="rgb(25.402832%, 12.112427%, 13.677979%)" stop-opacity="1"/>
      <stop offset="0.2188" stop-color="rgb(25.784302%, 12.249756%, 13.710022%)" stop-opacity="1"/>
      <stop offset="0.2344" stop-color="rgb(26.167297%, 12.387085%, 13.74054%)" stop-opacity="1"/>
      <stop offset="0.25" stop-color="rgb(26.550293%, 12.52594%, 13.772583%)" stop-opacity="1"/>
      <stop offset="0.2656" stop-color="rgb(26.931763%, 12.663269%, 13.804626%)" stop-opacity="1"/>
      <stop offset="0.2813" stop-color="rgb(27.314758%, 12.800598%, 13.835144%)" stop-opacity="1"/>
      <stop offset="0.2969" stop-color="rgb(27.696228%, 12.939453%, 13.867188%)" stop-opacity="1"/>
      <stop offset="0.3125" stop-color="rgb(28.079224%, 13.076782%, 13.897705%)" stop-opacity="1"/>
      <stop offset="0.3281" stop-color="rgb(28.462219%, 13.215637%, 13.929749%)" stop-opacity="1"/>
      <stop offset="0.3438" stop-color="rgb(28.843689%, 13.352966%, 13.960266%)" stop-opacity="1"/>
      <stop offset="0.3594" stop-color="rgb(29.226685%, 13.490295%, 13.99231%)" stop-opacity="1"/>
      <stop offset="0.375" stop-color="rgb(29.608154%, 13.62915%, 14.022827%)" stop-opacity="1"/>
      <stop offset="0.3906" stop-color="rgb(29.99115%, 13.766479%, 14.054871%)" stop-opacity="1"/>
      <stop offset="0.4063" stop-color="rgb(30.374146%, 13.905334%, 14.085388%)" stop-opacity="1"/>
      <stop offset="0.4219" stop-color="rgb(30.755615%, 14.042664%, 14.117432%)" stop-opacity="1"/>
      <stop offset="0.4375" stop-color="rgb(31.138611%, 14.179993%, 14.149475%)" stop-opacity="1"/>
      <stop offset="0.4531" stop-color="rgb(31.521606%, 14.318848%, 14.179993%)" stop-opacity="1"/>
      <stop offset="0.4688" stop-color="rgb(31.903076%, 14.456177%, 14.212036%)" stop-opacity="1"/>
      <stop offset="0.4844" stop-color="rgb(32.286072%, 14.593506%, 14.242554%)" stop-opacity="1"/>
      <stop offset="0.5" stop-color="rgb(32.667542%, 14.732361%, 14.274597%)" stop-opacity="1"/>
      <stop offset="0.5156" stop-color="rgb(33.050537%, 14.86969%, 14.305115%)" stop-opacity="1"/>
      <stop offset="0.5312" stop-color="rgb(33.433533%, 15.008545%, 14.337158%)" stop-opacity="1"/>
      <stop offset="0.5469" stop-color="rgb(33.815002%, 15.145874%, 14.367676%)" stop-opacity="1"/>
      <stop offset="0.5625" stop-color="rgb(34.197998%, 15.283203%, 14.399719%)" stop-opacity="1"/>
      <stop offset="0.5781" stop-color="rgb(34.580994%, 15.422058%, 14.430237%)" stop-opacity="1"/>
      <stop offset="0.5938" stop-color="rgb(34.962463%, 15.559387%, 14.46228%)" stop-opacity="1"/>
      <stop offset="0.6094" stop-color="rgb(35.345459%, 15.698242%, 14.494324%)" stop-opacity="1"/>
      <stop offset="0.625" stop-color="rgb(35.726929%, 15.835571%, 14.524841%)" stop-opacity="1"/>
      <stop offset="0.6406" stop-color="rgb(36.109924%, 15.9729%, 14.556885%)" stop-opacity="1"/>
      <stop offset="0.6563" stop-color="rgb(36.49292%, 16.111755%, 14.587402%)" stop-opacity="1"/>
      <stop offset="0.6719" stop-color="rgb(36.87439%, 16.249084%, 14.619446%)" stop-opacity="1"/>
      <stop offset="0.6875" stop-color="rgb(37.257385%, 16.387939%, 14.649963%)" stop-opacity="1"/>
      <stop offset="0.7031" stop-color="rgb(37.638855%, 16.525269%, 14.682007%)" stop-opacity="1"/>
      <stop offset="0.7188" stop-color="rgb(38.021851%, 16.662598%, 14.712524%)" stop-opacity="1"/>
      <stop offset="0.7344" stop-color="rgb(38.404846%, 16.801453%, 14.744568%)" stop-opacity="1"/>
      <stop offset="0.75" stop-color="rgb(38.786316%, 16.938782%, 14.775085%)" stop-opacity="1"/>
      <stop offset="0.7656" stop-color="rgb(39.169312%, 17.076111%, 14.807129%)" stop-opacity="1"/>
      <stop offset="0.7812" stop-color="rgb(39.552307%, 17.214966%, 14.837646%)" stop-opacity="1"/>
      <stop offset="0.7969" stop-color="rgb(39.933777%, 17.352295%, 14.86969%)" stop-opacity="1"/>
      <stop offset="0.8125" stop-color="rgb(40.316772%, 17.49115%, 14.901733%)" stop-opacity="1"/>
      <stop offset="0.8281" stop-color="rgb(40.698242%, 17.628479%, 14.932251%)" stop-opacity="1"/>
      <stop offset="0.8438" stop-color="rgb(41.081238%, 17.765808%, 14.964294%)" stop-opacity="1"/>
      <stop offset="0.8594" stop-color="rgb(41.464233%, 17.904663%, 14.994812%)" stop-opacity="1"/>
      <stop offset="0.875" stop-color="rgb(41.845703%, 18.041992%, 15.026855%)" stop-opacity="1"/>
      <stop offset="0.8906" stop-color="rgb(42.228699%, 18.180847%, 15.057373%)" stop-opacity="1"/>
      <stop offset="0.9063" stop-color="rgb(42.611694%, 18.318176%, 15.089417%)" stop-opacity="1"/>
      <stop offset="0.9219" stop-color="rgb(42.993164%, 18.455505%, 15.119934%)" stop-opacity="1"/>
      <stop offset="0.9375" stop-color="rgb(43.37616%, 18.59436%, 15.151978%)" stop-opacity="1"/>
      <stop offset="0.9531" stop-color="rgb(43.757629%, 18.731689%, 15.182495%)" stop-opacity="1"/>
      <stop offset="0.9688" stop-color="rgb(44.140625%, 18.870544%, 15.214539%)" stop-opacity="1"/>
      <stop offset="0.9844" stop-color="rgb(44.523621%, 19.007874%, 15.246582%)" stop-opacity="1"/>
      <stop offset="1" stop-color="rgb(44.90509%, 19.145203%, 15.2771%)" stop-opacity="1"/>
    </linearGradient>
  </defs>
  <path fill-rule="nonzero" fill="rgb(41.967773%, 16.868591%, 13.330078%)" fill-opacity="1" d="M -29.556 1474.34 C -29.556 1474.34 262.682 1504 297.546 1529 C 332.409 1554 426.746 1586 503.651 1620 C 580.556 1654 692.324 1649 897.404 1733 C 1102.48 1817 1113.62 1825.57 1135.74 1833.29 C 1157.86 1841 1183.89 1901.86 1183.89 1901.86 L 224.843 1880.78 L 37.094 1775 L -30.069 1688.1 L -29.556 1474.34" style=""/>
  <path fill-rule="nonzero" fill="rgb(34.104919%, 11.767578%, 9.812927%)" fill-opacity="1" d="M -34.603 1886 L -34.095 1647.29 C -34.095 1647.29 366.803 1681.51 411.083 1730.25 C 455.359 1779 417.786 1788 522.379 1799 C 626.972 1810 837.173 1793 929.58 1793 C 1021.99 1793 1196.65 1790 1327.64 1833 C 1458.64 1876 2147.64 2118 2195.11 2120 C 2242.58 2122 2237.44 2156.43 2237.44 2156.43 L 525.656 2083.47 L 98.629 2064.25 L -34.603 1886" style=""/>
  <path fill-rule="nonzero" fill="rgb(23.143005%, 5.883789%, 5.488586%)" fill-opacity="1" d="M -39.055 2139.56 L -39.563 1861.85 C -39.563 1861.85 312.755 1893 406.972 1886 C 501.184 1879 891.866 1894 1028.2 1925 C 1164.53 1956 2008.96 2098 2093.41 2120 C 2177.86 2142 2273.86 2165.61 2273.86 2165.61 L -19.585 2165.61 L -39.055 2139.56" style=""/>
  <g clip-path="url(#clip-68)">
    <g clip-path="url(#clip-69)">
      <g clip-path="url(#clip-70)">
        <path fill-rule="nonzero" fill="url(#linear-pattern-20)" d="M 3856.726562 2250.394531 L 3850.347656 2012.527344 L 434.972656 2104.105469 L 441.351562 2341.972656 Z M 3856.726562 2250.394531 "/>
      </g>
    </g>
  </g>
  <g clip-path="url(#clip-71)" style="" transform="matrix(1.04994, 0, 0, 1, -62.95002, 0)">
    <path fill-rule="nonzero" fill="rgb(16.088867%, 6.665039%, 9.812927%)" fill-opacity="1" d="M 0.5 2139.558594 C 0.5 2139.558594 517.949219 2132.371094 554.722656 2130.691406 C 591.5 2129 1241.5 2120 1260.5 2120 C 1260.5 2120 679.378906 2121.300781 621.441406 2178.148438 C 563.5 2235 476.765625 2226.890625 395.632812 2234.941406 C 314.5 2243 0 2250.5 0 2250.5 L 0.5 2139.558594 "/>
  </g>
  <g clip-path="url(#clip-72)" style="" transform="matrix(1.023368, 0, 0, 1, -65.972786, 0)">
    <path fill-rule="nonzero" fill="rgb(12.547302%, 5.883789%, 10.594177%)" fill-opacity="1" d="M 2823.210938 2250.5 L 0 2250.5 L 0 2205.570312 L 0.5 2204.832031 C 0.5 2204.832031 566.5 2176 611.5 2185 C 656.5 2194 1000.261719 2186.519531 1078.378906 2183.261719 C 1156.5 2180 1576.941406 2186.519531 1625.71875 2183.261719 C 1625.71875 2183.261719 1964.671875 2186.640625 2030.078125 2182.320312 C 2095.5 2178 2357.5 2175.640625 2392 2182.320312 C 2426.5 2189 2683.5 2201 2785.5 2236 C 2799.148438 2240.679688 2811.699219 2245.558594 2823.210938 2250.5 "/>
  </g>
  <g clip-path="url(#clip-73)">
    <path fill-rule="nonzero" fill="rgb(16.479492%, 8.227539%, 12.156677%)" fill-opacity="1" d="M 2525.191406 2222.5 C 2518 2221.5 2354 2231.5 2341 2231.5 C 2328 2231.5 2262 2236.5 2252 2250 C 2251.878906 2250.160156 2251.75 2250.328125 2251.609375 2250.5 L 1943.910156 2250.5 C 1907.039062 2235.71875 1874 2222.5 1874 2222.5 C 1874 2222.5 2018.53125 2218.148438 2061.761719 2214.320312 C 2105 2210.5 2284 2206.5 2334 2207.5 C 2384 2208.5 2456.988281 2211.148438 2477.988281 2214.320312 C 2499 2217.5 2532.390625 2223.5 2525.191406 2222.5 "/>
  </g>
  <path fill-rule="nonzero" fill="rgb(11.376953%, 4.704285%, 10.984802%)" fill-opacity="1" d="M 203 2205.5 C 203 2205.5 386.363281 2218.148438 422.183594 2214.320312 C 458 2210.5 570.410156 2212.039062 588.703125 2210.269531 C 607 2208.5 637 2169.5 613 2164.5 C 589 2159.5 358 2152.5 358 2152.5 C 358 2152.5 293.210938 2146.5 260.605469 2164.5 C 228 2182.5 203 2205.5 203 2205.5 "/>
  <path fill-rule="nonzero" fill="rgb(11.376953%, 4.704285%, 10.984802%)" fill-opacity="1" d="M 594.5 2188 C 594.5 2188 639.074219 2157.082031 647.285156 2151.539062 C 655.5 2146 647.5 2142 691.5 2134 C 735.5 2126 776.5 2135 776.5 2135 C 776.5 2135 824.5 2147 842.5 2162 C 860.5 2177 862.5 2193 864.5 2197 C 866.5 2201 702.5 2230 594.5 2188 "/>
  <path fill-rule="nonzero" fill="rgb(11.376953%, 4.704285%, 10.984802%)" fill-opacity="1" d="M 1013 2221.5 C 1035.949219 2225.800781 1059 2234.5 1089 2234.5 C 1119 2234.5 1152 2235.5 1165 2234.5 C 1178 2233.5 1196.199219 2229.5 1201.101562 2221.5 C 1206 2213.5 1199.050781 2184.082031 1188.019531 2183.289062 C 1177 2182.5 1129 2160.5 1115 2160.5 C 1101 2160.5 1106 2158.5 1091 2160.5 C 1076 2162.5 1068 2159.5 1053 2159.5 C 1038 2159.5 1031 2157.5 1019 2164.5 C 1007 2171.5 997.011719 2165.082031 997.503906 2183.289062 C 998 2201.5 997 2218.5 1013 2221.5 "/>
  <path fill-rule="nonzero" fill="rgb(11.376953%, 4.704285%, 10.984802%)" fill-opacity="1" d="M 1360.5 2206 C 1360.5 2206 1317.5 2185 1325.5 2166 C 1333.5 2147 1334.511719 2110.308594 1342.5 2107.160156 C 1350.5 2104 1358.5 2097 1386.5 2117 C 1414.5 2137 1402.320312 2127.371094 1429.910156 2143.691406 C 1457.5 2160 1457.5 2155 1468.5 2159 C 1479.5 2163 1486.121094 2160.46875 1487.808594 2172.238281 C 1489.5 2184 1492.949219 2181.917969 1474.730469 2196.960938 C 1456.5 2212 1476.320312 2226.691406 1429.910156 2220.339844 C 1383.5 2214 1360.5 2206 1360.5 2206 "/>
  <path fill-rule="nonzero" fill="rgb(11.376953%, 4.704285%, 10.984802%)" fill-opacity="1" d="M 1808.140625 2228.917969 C 1790.5 2230 1786.71875 2228.839844 1752.109375 2228.917969 C 1717.5 2229 1710.871094 2210.179688 1715.691406 2197.089844 C 1720.5 2184 1719.5 2154 1736.5 2154 C 1753.5 2154 1781.5 2170 1781.5 2170 C 1781.5 2170 1803.789062 2177.300781 1808.140625 2178.148438 C 1812.5 2179 1809.171875 2181.46875 1791.328125 2159.238281 C 1773.5 2137 1757.5 2126 1768.5 2113 C 1779.5 2100 1792.789062 2096.71875 1808.140625 2090.359375 C 1823.5 2084 1829.480469 2078.71875 1880.988281 2090.359375 C 1932.5 2102 1929.5 2099 1947.5 2113 C 1965.5 2127 1971.5 2123 1979.5 2141 C 1987.5 2159 2003.410156 2163.300781 1987.449219 2178.148438 C 1971.5 2193 1979.898438 2188.179688 1955.699219 2197.089844 C 1931.5 2206 1917.171875 2203.71875 1904.339844 2208.859375 C 1891.5 2214 1880.648438 2212.648438 1858.570312 2214.320312 C 1836.5 2216 1829.671875 2207.648438 1823.089844 2214.320312 C 1816.5 2221 1808.140625 2228.917969 1808.140625 2228.917969 "/>
  <path fill-rule="nonzero" fill="rgb(11.376953%, 4.704285%, 10.984802%)" fill-opacity="1" d="M 2539.929688 2214.320312 C 2554.140625 2222.648438 2571.589844 2227.839844 2588.539062 2228.917969 C 2605.5 2230 2586.5 2235 2627.5 2236 C 2668.5 2237 2685.5 2243 2707.5 2236 C 2729.5 2229 2737.980469 2233.449219 2732.738281 2222.21875 C 2727.5 2211 2726.5 2198 2703.5 2186 C 2680.5 2174 2665.5 2167 2647.5 2167 C 2629.5 2167 2617.5 2162 2599.5 2171 C 2581.5 2180 2560.5 2183 2551.5 2192 C 2542.5 2201 2535.359375 2211.648438 2539.929688 2214.320312 "/>
  <g clip-path="url(#clip-74)">
    <g clip-path="url(#clip-75)">
      <g clip-path="url(#clip-76)">
        <path fill-rule="nonzero" fill="url(#linear-pattern-21)" d="M 2573.878906 1969 L 2573.878906 2136 L 2752.5 2136 L 2752.5 1969 Z M 2573.878906 1969 "/>
      </g>
    </g>
  </g>
  <path fill-rule="nonzero" fill="rgb(11.376953%, 4.704285%, 10.984802%)" fill-opacity="1" d="M 2389.5 2250 C 2389.5 2250 2386.261719 2248.128906 2381.109375 2245.128906 C 2360.210938 2232.941406 2307.878906 2202.199219 2313.5 2203 C 2320.5 2204 2399.21875 2250 2399.21875 2250 L 2342.5 2189 L 2399.21875 2245.140625 L 2351.5 2146 L 2403.5 2240 L 2370.5 2131 L 2403.5 2223.589844 L 2382.5 2083 L 2411.5 2230 C 2411.5 2230 2404.5 2088 2404.5 2090 C 2404.5 2091.601562 2415.96875 2179.859375 2420.601562 2215.398438 C 2421.769531 2224.378906 2422.5 2230 2422.5 2230 L 2422.5 2192.660156 C 2422.5 2192.660156 2436.5 2137 2437.5 2130 C 2438.5 2123 2430.5 2090 2430.5 2090 L 2439.5 2116 C 2439.5 2116 2440.5 2133 2439.5 2140 C 2438.5 2147 2443.5 2135 2436.5 2152 C 2429.5 2169 2431.5 2180 2431.5 2188 C 2431.5 2196 2431.5 2198 2432.5 2213 C 2433.5 2228 2433.5 2233 2433.5 2233 C 2433.5 2233 2432.5 2239 2431.5 2244 C 2430.5 2249 2486.5 2142 2486.5 2142 C 2486.5 2142 2455.5 2239 2452.5 2243 C 2449.5 2247 2438.578125 2250 2438.578125 2250 L 2389.5 2250 "/>
  <g clip-path="url(#clip-77)">
    <g clip-path="url(#clip-78)">
      <g clip-path="url(#clip-79)">
        <path fill-rule="nonzero" fill="url(#linear-pattern-22)" d="M 2825.5 1881 L 2825.5 2157 L 3075.5 2157 L 3075.5 1881 Z M 2825.5 1881 "/>
      </g>
    </g>
  </g>
</svg>
