<?xml version="1.0" encoding="utf-8"?>
<svg xmlns="http://www.w3.org/2000/svg" width="4000.5" height="2250.5" viewBox="0 0 4000.5 2250.5">
  <defs>
    <clipPath id="clip-6">
      <path clip-rule="nonzero" d="M 1278 463 L 1280 463 L 1280 468 L 1278 468 Z M 1278 463 "/>
    </clipPath>
    <clipPath id="clip-7">
      <path clip-rule="nonzero" d="M 1279.53125 467.28125 L 1278.980469 464.859375 C 1278.898438 464.480469 1278.789062 464.019531 1279.238281 463.859375 C 1279.308594 463.828125 1279.679688 463.71875 1279.921875 464.179688 C 1280.03125 464.359375 1280 464.609375 1279.960938 464.839844 Z M 1279.53125 467.28125 "/>
    </clipPath>
    <clipPath id="clip-8">
      <path clip-rule="nonzero" d="M 1279.53125 467.28125 L 1278.980469 464.859375 C 1278.898438 464.480469 1278.789062 464.019531 1279.238281 463.859375 C 1279.308594 463.828125 1279.679688 463.71875 1279.921875 464.179688 C 1280.03125 464.359375 1280 464.609375 1279.960938 464.839844 L 1279.53125 467.28125 "/>
    </clipPath>
    <linearGradient id="linear-pattern-2" gradientUnits="userSpaceOnUse" x1="-0.0406801" y1="0" x2="1.010883" y2="0" gradientTransform="matrix(-0.193856, 3.44095, -3.44095, -0.193856, 1279.49, 463.83)">
      <stop offset="0" stop-color="rgb(96.076965%, 68.234253%, 52.548218%)" stop-opacity="1"/>
      <stop offset="0.25" stop-color="rgb(96.076965%, 68.234253%, 52.548218%)" stop-opacity="1"/>
      <stop offset="0.375" stop-color="rgb(96.115112%, 68.348694%, 52.662659%)" stop-opacity="1"/>
      <stop offset="0.5" stop-color="rgb(96.202087%, 68.608093%, 52.922058%)" stop-opacity="1"/>
      <stop offset="0.625" stop-color="rgb(96.298218%, 68.896484%, 53.208923%)" stop-opacity="1"/>
      <stop offset="0.75" stop-color="rgb(96.394348%, 69.18335%, 53.497314%)" stop-opacity="1"/>
      <stop offset="1" stop-color="rgb(96.455383%, 69.369507%, 53.683472%)" stop-opacity="1"/>
    </linearGradient>
    <clipPath id="clip-41">
      <path clip-rule="nonzero" d="M 1513 836 L 4000.5 836 L 4000.5 1932 L 1513 1932 Z M 1513 836 "/>
    </clipPath>
    <clipPath id="clip-42">
      <path clip-rule="nonzero" d="M 3302.550781 1931.859375 C 3302.53125 1931.859375 3302.519531 1931.859375 3302.5 1931.859375 C 3285.5 1931 1603.101562 1886 1603.101562 1886 L 1567.929688 1825.421875 L 1513.558594 1731.761719 C 1513.558594 1731.761719 1538.128906 1723.171875 1575.28125 1709.859375 C 1575.929688 1710.25 1646.808594 1753.011719 1714.289062 1754.210938 C 1772.851562 1755.261719 2049.679688 1778.949219 2136.941406 1778.949219 C 2150.710938 1778.949219 2159.769531 1778.359375 2162.5 1777 C 2167.28125 1774.609375 2205.949219 1773.648438 2264.460938 1773.648438 C 2450.679688 1773.648438 2837.828125 1783.390625 2972.550781 1787.828125 C 2975.851562 1787.941406 2979.210938 1787.988281 2982.640625 1787.988281 C 3163.351562 1787.988281 3522.5 1640 3522.5 1640 L 3891.199219 1399 C 3891.199219 1399 3807.5 1399 3792.5 1399 C 3777.5 1399 3586.5 1424 3532.609375 1425.78125 C 3478.710938 1427.558594 3360.5 1488 3282.5 1502 C 3204.5 1516 3119.5 1522 3033.5 1525.769531 C 2947.5 1529.539062 2584.5 1635 2399.578125 1647.289062 C 2339.25 1651.300781 2309.230469 1654.050781 2292.199219 1654.050781 C 2257 1654.050781 2277.179688 1642.328125 2200.089844 1605.839844 C 2183.359375 1597.910156 2158.199219 1594.539062 2127.371094 1594.539062 C 1948.960938 1594.539062 1581.910156 1707.800781 1575.371094 1709.828125 C 1679.648438 1672.441406 1882.871094 1597.839844 1920.050781 1571.179688 C 1927.75 1565.660156 1937.71875 1559.761719 1949.378906 1553.710938 C 2014.171875 1520.058594 2131.109375 1481.410156 2200.089844 1474.339844 C 2281.5 1466 2334.949219 1453.558594 2372.21875 1425.78125 C 2372.519531 1425.550781 2372.828125 1425.328125 2373.140625 1425.089844 C 2411.308594 1396.429688 2526.660156 1297.578125 2604.019531 1297.578125 C 2604.191406 1297.578125 2604.339844 1297.578125 2604.5 1297.578125 C 2669.671875 1297.929688 2685.980469 1340.769531 2723.410156 1340.769531 C 2730.78125 1340.769531 2738.960938 1339.109375 2748.5 1335.140625 C 2801.878906 1312.921875 2871.429688 1156.378906 2951.5 1106.921875 C 2958.441406 1102.621094 2965.460938 1099.140625 2972.550781 1096.621094 C 3012.949219 1082.261719 3055.851562 1064.71875 3095.308594 1045.640625 C 3129.308594 1029.199219 3160.761719 1011.621094 3185.910156 993.941406 C 3195.828125 986.949219 3204.78125 979.949219 3212.5 973 C 3262.5 928 3237.5 868.828125 3302.5 845.410156 C 3319.269531 839.371094 3339.039062 836.75 3360.089844 836.75 C 3360.371094 836.75 3360.640625 836.75 3360.921875 836.75 C 3421.25 836.910156 3491.878906 858.359375 3532.5 882 C 3578.789062 908.929688 3630.03125 935.710938 3656.429688 943.589844 C 3661.398438 945.070312 3665.488281 945.878906 3668.5 945.898438 C 3668.570312 945.898438 3668.628906 945.898438 3668.699219 945.898438 C 3676.589844 945.898438 3677.261719 943.328125 3680.390625 940.761719 C 3683.519531 938.191406 3689.109375 935.621094 3706.839844 935.621094 C 3713.128906 935.621094 3720.941406 935.941406 3730.710938 936.699219 C 3730.960938 936.71875 3731.21875 936.738281 3731.46875 936.761719 C 3797.5 942 3819.5 969 3833.5 987 C 3847.5 1005 3887.5 1005 3915.5 1005 C 3943.5 1005 4000.5 1041.808594 4000.5 1041.808594 L 4000.5 1448.308594 C 4000.5 1448.308594 3320.75 1931.859375 3302.550781 1931.859375 "/>
    </clipPath>
    <clipPath id="clip-43">
      <path clip-rule="nonzero" d="M 3302.550781 1931.859375 C 3302.53125 1931.859375 3302.519531 1931.859375 3302.5 1931.859375 C 3285.5 1931 1603.101562 1886 1603.101562 1886 L 1567.929688 1825.421875 L 1513.558594 1731.761719 C 1513.558594 1731.761719 1538.128906 1723.171875 1575.28125 1709.859375 C 1575.929688 1710.25 1646.808594 1753.011719 1714.289062 1754.210938 C 1772.851562 1755.261719 2049.679688 1778.949219 2136.941406 1778.949219 C 2150.710938 1778.949219 2159.769531 1778.359375 2162.5 1777 C 2167.28125 1774.609375 2205.949219 1773.648438 2264.460938 1773.648438 C 2450.679688 1773.648438 2837.828125 1783.390625 2972.550781 1787.828125 C 2975.851562 1787.941406 2979.210938 1787.988281 2982.640625 1787.988281 C 3163.351562 1787.988281 3522.5 1640 3522.5 1640 L 3891.199219 1399 C 3891.199219 1399 3807.5 1399 3792.5 1399 C 3777.5 1399 3586.5 1424 3532.609375 1425.78125 C 3478.710938 1427.558594 3360.5 1488 3282.5 1502 C 3204.5 1516 3119.5 1522 3033.5 1525.769531 C 2947.5 1529.539062 2584.5 1635 2399.578125 1647.289062 C 2339.25 1651.300781 2309.230469 1654.050781 2292.199219 1654.050781 C 2257 1654.050781 2277.179688 1642.328125 2200.089844 1605.839844 C 2183.359375 1597.910156 2158.199219 1594.539062 2127.371094 1594.539062 C 1948.960938 1594.539062 1581.910156 1707.800781 1575.371094 1709.828125 C 1679.648438 1672.441406 1882.871094 1597.839844 1920.050781 1571.179688 C 1927.75 1565.660156 1937.71875 1559.761719 1949.378906 1553.710938 C 2014.171875 1520.058594 2131.109375 1481.410156 2200.089844 1474.339844 C 2281.5 1466 2334.949219 1453.558594 2372.21875 1425.78125 C 2372.519531 1425.550781 2372.828125 1425.328125 2373.140625 1425.089844 C 2411.308594 1396.429688 2526.660156 1297.578125 2604.019531 1297.578125 C 2604.191406 1297.578125 2604.339844 1297.578125 2604.5 1297.578125 C 2669.671875 1297.929688 2685.980469 1340.769531 2723.410156 1340.769531 C 2730.78125 1340.769531 2738.960938 1339.109375 2748.5 1335.140625 C 2801.878906 1312.921875 2871.429688 1156.378906 2951.5 1106.921875 C 2958.441406 1102.621094 2965.460938 1099.140625 2972.550781 1096.621094 C 3012.949219 1082.261719 3055.851562 1064.71875 3095.308594 1045.640625 C 3129.308594 1029.199219 3160.761719 1011.621094 3185.910156 993.941406 C 3195.828125 986.949219 3204.78125 979.949219 3212.5 973 C 3262.5 928 3237.5 868.828125 3302.5 845.410156 C 3319.269531 839.371094 3339.039062 836.75 3360.089844 836.75 C 3360.371094 836.75 3360.640625 836.75 3360.921875 836.75 C 3421.25 836.910156 3491.878906 858.359375 3532.5 882 C 3578.789062 908.929688 3630.03125 935.710938 3656.429688 943.589844 C 3661.398438 945.070312 3665.488281 945.878906 3668.5 945.898438 C 3668.570312 945.898438 3668.628906 945.898438 3668.699219 945.898438 C 3676.589844 945.898438 3677.261719 943.328125 3680.390625 940.761719 C 3683.519531 938.191406 3689.109375 935.621094 3706.839844 935.621094 C 3713.128906 935.621094 3720.941406 935.941406 3730.710938 936.699219 C 3730.960938 936.71875 3731.21875 936.738281 3731.46875 936.761719 C 3797.5 942 3819.5 969 3833.5 987 C 3847.5 1005 3887.5 1005 3915.5 1005 C 3943.5 1005 4000.5 1041.808594 4000.5 1041.808594 L 4000.5 1448.308594 C 4000.5 1448.308594 3320.75 1931.859375 3302.550781 1931.859375 "/>
    </clipPath>
    <linearGradient id="linear-pattern-12" gradientUnits="userSpaceOnUse" x1="-0.00447814" y1="0" x2="1.012524" y2="0" gradientTransform="matrix(-8.40535, 1095.5, -1095.5, -8.40535, 2762.84, 832.16)">
      <stop offset="0" stop-color="rgb(21.568298%, 14.901733%, 19.607544%)" stop-opacity="1"/>
      <stop offset="0.0313" stop-color="rgb(21.568298%, 14.901733%, 19.607544%)" stop-opacity="1"/>
      <stop offset="0.0469" stop-color="rgb(21.568298%, 14.901733%, 19.607544%)" stop-opacity="1"/>
      <stop offset="0.0547" stop-color="rgb(21.588135%, 14.910889%, 19.610596%)" stop-opacity="1"/>
      <stop offset="0.0625" stop-color="rgb(21.798706%, 15.019226%, 19.650269%)" stop-opacity="1"/>
      <stop offset="0.0703" stop-color="rgb(22.180176%, 15.214539%, 19.720459%)" stop-opacity="1"/>
      <stop offset="0.0781" stop-color="rgb(22.56012%, 15.408325%, 19.792175%)" stop-opacity="1"/>
      <stop offset="0.0859" stop-color="rgb(22.941589%, 15.603638%, 19.862366%)" stop-opacity="1"/>
      <stop offset="0.0938" stop-color="rgb(23.321533%, 15.79895%, 19.932556%)" stop-opacity="1"/>
      <stop offset="0.1016" stop-color="rgb(23.703003%, 15.992737%, 20.004272%)" stop-opacity="1"/>
      <stop offset="0.1094" stop-color="rgb(24.082947%, 16.188049%, 20.074463%)" stop-opacity="1"/>
      <stop offset="0.1172" stop-color="rgb(24.464417%, 16.383362%, 20.146179%)" stop-opacity="1"/>
      <stop offset="0.125" stop-color="rgb(24.84436%, 16.577148%, 20.21637%)" stop-opacity="1"/>
      <stop offset="0.1328" stop-color="rgb(25.224304%, 16.772461%, 20.28656%)" stop-opacity="1"/>
      <stop offset="0.1406" stop-color="rgb(25.605774%, 16.967773%, 20.358276%)" stop-opacity="1"/>
      <stop offset="0.1484" stop-color="rgb(25.985718%, 17.16156%, 20.428467%)" stop-opacity="1"/>
      <stop offset="0.1563" stop-color="rgb(26.367188%, 17.356873%, 20.500183%)" stop-opacity="1"/>
      <stop offset="0.1641" stop-color="rgb(26.747131%, 17.550659%, 20.570374%)" stop-opacity="1"/>
      <stop offset="0.1719" stop-color="rgb(27.128601%, 17.745972%, 20.64209%)" stop-opacity="1"/>
      <stop offset="0.1797" stop-color="rgb(27.508545%, 17.941284%, 20.71228%)" stop-opacity="1"/>
      <stop offset="0.1875" stop-color="rgb(27.890015%, 18.135071%, 20.782471%)" stop-opacity="1"/>
      <stop offset="0.1953" stop-color="rgb(28.269958%, 18.330383%, 20.854187%)" stop-opacity="1"/>
      <stop offset="0.2031" stop-color="rgb(28.651428%, 18.525696%, 20.924377%)" stop-opacity="1"/>
      <stop offset="0.2109" stop-color="rgb(29.031372%, 18.719482%, 20.996094%)" stop-opacity="1"/>
      <stop offset="0.2188" stop-color="rgb(29.412842%, 18.914795%, 21.066284%)" stop-opacity="1"/>
      <stop offset="0.2266" stop-color="rgb(29.792786%, 19.110107%, 21.136475%)" stop-opacity="1"/>
      <stop offset="0.2344" stop-color="rgb(30.174255%, 19.303894%, 21.208191%)" stop-opacity="1"/>
      <stop offset="0.2422" stop-color="rgb(30.554199%, 19.499207%, 21.278381%)" stop-opacity="1"/>
      <stop offset="0.25" stop-color="rgb(30.935669%, 19.692993%, 21.350098%)" stop-opacity="1"/>
      <stop offset="0.2578" stop-color="rgb(31.315613%, 19.888306%, 21.420288%)" stop-opacity="1"/>
      <stop offset="0.2656" stop-color="rgb(31.697083%, 20.083618%, 21.490479%)" stop-opacity="1"/>
      <stop offset="0.2734" stop-color="rgb(32.077026%, 20.277405%, 21.562195%)" stop-opacity="1"/>
      <stop offset="0.2813" stop-color="rgb(32.458496%, 20.472717%, 21.632385%)" stop-opacity="1"/>
      <stop offset="0.2891" stop-color="rgb(32.83844%, 20.66803%, 21.704102%)" stop-opacity="1"/>
      <stop offset="0.2969" stop-color="rgb(33.21991%, 20.861816%, 21.774292%)" stop-opacity="1"/>
      <stop offset="0.3047" stop-color="rgb(33.599854%, 21.057129%, 21.846008%)" stop-opacity="1"/>
      <stop offset="0.3125" stop-color="rgb(33.979797%, 21.252441%, 21.916199%)" stop-opacity="1"/>
      <stop offset="0.3203" stop-color="rgb(34.361267%, 21.446228%, 21.986389%)" stop-opacity="1"/>
      <stop offset="0.3281" stop-color="rgb(34.741211%, 21.641541%, 22.058105%)" stop-opacity="1"/>
      <stop offset="0.3359" stop-color="rgb(35.122681%, 21.835327%, 22.128296%)" stop-opacity="1"/>
      <stop offset="0.3438" stop-color="rgb(35.502625%, 22.03064%, 22.200012%)" stop-opacity="1"/>
      <stop offset="0.3516" stop-color="rgb(35.884094%, 22.225952%, 22.270203%)" stop-opacity="1"/>
      <stop offset="0.3594" stop-color="rgb(36.264038%, 22.419739%, 22.340393%)" stop-opacity="1"/>
      <stop offset="0.3672" stop-color="rgb(36.645508%, 22.615051%, 22.412109%)" stop-opacity="1"/>
      <stop offset="0.375" stop-color="rgb(37.025452%, 22.810364%, 22.4823%)" stop-opacity="1"/>
      <stop offset="0.3828" stop-color="rgb(37.406921%, 23.00415%, 22.554016%)" stop-opacity="1"/>
      <stop offset="0.3906" stop-color="rgb(37.786865%, 23.199463%, 22.624207%)" stop-opacity="1"/>
      <stop offset="0.3984" stop-color="rgb(38.168335%, 23.394775%, 22.695923%)" stop-opacity="1"/>
      <stop offset="0.4063" stop-color="rgb(38.50708%, 23.550415%, 22.743225%)" stop-opacity="1"/>
      <stop offset="0.4141" stop-color="rgb(38.792419%, 23.657227%, 22.764587%)" stop-opacity="1"/>
      <stop offset="0.4219" stop-color="rgb(39.068604%, 23.756409%, 22.779846%)" stop-opacity="1"/>
      <stop offset="0.4297" stop-color="rgb(39.344788%, 23.855591%, 22.796631%)" stop-opacity="1"/>
      <stop offset="0.4375" stop-color="rgb(39.620972%, 23.954773%, 22.81189%)" stop-opacity="1"/>
      <stop offset="0.4453" stop-color="rgb(39.897156%, 24.053955%, 22.827148%)" stop-opacity="1"/>
      <stop offset="0.4531" stop-color="rgb(40.17334%, 24.153137%, 22.842407%)" stop-opacity="1"/>
      <stop offset="0.4609" stop-color="rgb(40.449524%, 24.252319%, 22.859192%)" stop-opacity="1"/>
      <stop offset="0.4688" stop-color="rgb(40.725708%, 24.351501%, 22.874451%)" stop-opacity="1"/>
      <stop offset="0.4766" stop-color="rgb(41.001892%, 24.450684%, 22.889709%)" stop-opacity="1"/>
      <stop offset="0.4844" stop-color="rgb(41.278076%, 24.549866%, 22.904968%)" stop-opacity="1"/>
      <stop offset="0.4922" stop-color="rgb(41.55426%, 24.647522%, 22.921753%)" stop-opacity="1"/>
      <stop offset="0.5" stop-color="rgb(41.830444%, 24.746704%, 22.937012%)" stop-opacity="1"/>
      <stop offset="0.5078" stop-color="rgb(42.106628%, 24.845886%, 22.952271%)" stop-opacity="1"/>
      <stop offset="0.5156" stop-color="rgb(42.382812%, 24.945068%, 22.967529%)" stop-opacity="1"/>
      <stop offset="0.5234" stop-color="rgb(42.658997%, 25.04425%, 22.984314%)" stop-opacity="1"/>
      <stop offset="0.5312" stop-color="rgb(42.936707%, 25.143433%, 22.999573%)" stop-opacity="1"/>
      <stop offset="0.5391" stop-color="rgb(43.212891%, 25.242615%, 23.014832%)" stop-opacity="1"/>
      <stop offset="0.5469" stop-color="rgb(43.489075%, 25.341797%, 23.03009%)" stop-opacity="1"/>
      <stop offset="0.5547" stop-color="rgb(43.765259%, 25.440979%, 23.046875%)" stop-opacity="1"/>
      <stop offset="0.5625" stop-color="rgb(44.041443%, 25.540161%, 23.062134%)" stop-opacity="1"/>
      <stop offset="0.5703" stop-color="rgb(44.317627%, 25.637817%, 23.077393%)" stop-opacity="1"/>
      <stop offset="0.5781" stop-color="rgb(44.593811%, 25.737%, 23.092651%)" stop-opacity="1"/>
      <stop offset="0.5859" stop-color="rgb(44.869995%, 25.836182%, 23.109436%)" stop-opacity="1"/>
      <stop offset="0.5938" stop-color="rgb(45.146179%, 25.935364%, 23.124695%)" stop-opacity="1"/>
      <stop offset="0.6016" stop-color="rgb(45.422363%, 26.034546%, 23.139954%)" stop-opacity="1"/>
      <stop offset="0.6094" stop-color="rgb(45.698547%, 26.133728%, 23.155212%)" stop-opacity="1"/>
      <stop offset="0.6172" stop-color="rgb(45.974731%, 26.23291%, 23.170471%)" stop-opacity="1"/>
      <stop offset="0.625" stop-color="rgb(46.250916%, 26.332092%, 23.187256%)" stop-opacity="1"/>
      <stop offset="0.6328" stop-color="rgb(46.5271%, 26.431274%, 23.202515%)" stop-opacity="1"/>
      <stop offset="0.6406" stop-color="rgb(46.803284%, 26.530457%, 23.217773%)" stop-opacity="1"/>
      <stop offset="0.6484" stop-color="rgb(47.079468%, 26.629639%, 23.233032%)" stop-opacity="1"/>
      <stop offset="0.6563" stop-color="rgb(47.355652%, 26.727295%, 23.249817%)" stop-opacity="1"/>
      <stop offset="0.6641" stop-color="rgb(47.631836%, 26.826477%, 23.265076%)" stop-opacity="1"/>
      <stop offset="0.6719" stop-color="rgb(47.90802%, 26.925659%, 23.280334%)" stop-opacity="1"/>
      <stop offset="0.6797" stop-color="rgb(48.184204%, 27.024841%, 23.295593%)" stop-opacity="1"/>
      <stop offset="0.6875" stop-color="rgb(48.461914%, 27.124023%, 23.312378%)" stop-opacity="1"/>
      <stop offset="0.6953" stop-color="rgb(48.738098%, 27.223206%, 23.327637%)" stop-opacity="1"/>
      <stop offset="0.7031" stop-color="rgb(49.014282%, 27.322388%, 23.342896%)" stop-opacity="1"/>
      <stop offset="0.7109" stop-color="rgb(49.290466%, 27.42157%, 23.358154%)" stop-opacity="1"/>
      <stop offset="0.7188" stop-color="rgb(49.56665%, 27.520752%, 23.374939%)" stop-opacity="1"/>
      <stop offset="0.7266" stop-color="rgb(49.842834%, 27.619934%, 23.390198%)" stop-opacity="1"/>
      <stop offset="0.7344" stop-color="rgb(50.119019%, 27.71759%, 23.405457%)" stop-opacity="1"/>
      <stop offset="0.7422" stop-color="rgb(50.395203%, 27.816772%, 23.420715%)" stop-opacity="1"/>
      <stop offset="0.75" stop-color="rgb(50.671387%, 27.915955%, 23.4375%)" stop-opacity="1"/>
      <stop offset="0.7578" stop-color="rgb(50.947571%, 28.015137%, 23.452759%)" stop-opacity="1"/>
      <stop offset="0.7656" stop-color="rgb(51.223755%, 28.114319%, 23.468018%)" stop-opacity="1"/>
      <stop offset="0.7734" stop-color="rgb(51.499939%, 28.213501%, 23.483276%)" stop-opacity="1"/>
      <stop offset="0.7812" stop-color="rgb(51.776123%, 28.312683%, 23.500061%)" stop-opacity="1"/>
      <stop offset="0.7891" stop-color="rgb(52.052307%, 28.411865%, 23.51532%)" stop-opacity="1"/>
      <stop offset="0.7969" stop-color="rgb(52.328491%, 28.511047%, 23.530579%)" stop-opacity="1"/>
      <stop offset="0.8047" stop-color="rgb(52.604675%, 28.610229%, 23.545837%)" stop-opacity="1"/>
      <stop offset="0.8125" stop-color="rgb(52.880859%, 28.709412%, 23.562622%)" stop-opacity="1"/>
      <stop offset="0.8203" stop-color="rgb(53.157043%, 28.807068%, 23.577881%)" stop-opacity="1"/>
      <stop offset="0.8281" stop-color="rgb(53.433228%, 28.90625%, 23.59314%)" stop-opacity="1"/>
      <stop offset="0.8359" stop-color="rgb(53.709412%, 29.005432%, 23.608398%)" stop-opacity="1"/>
      <stop offset="0.8438" stop-color="rgb(53.985596%, 29.104614%, 23.625183%)" stop-opacity="1"/>
      <stop offset="0.8516" stop-color="rgb(54.263306%, 29.203796%, 23.640442%)" stop-opacity="1"/>
      <stop offset="0.8594" stop-color="rgb(54.53949%, 29.302979%, 23.655701%)" stop-opacity="1"/>
      <stop offset="0.8672" stop-color="rgb(54.815674%, 29.402161%, 23.670959%)" stop-opacity="1"/>
      <stop offset="0.875" stop-color="rgb(55.091858%, 29.501343%, 23.687744%)" stop-opacity="1"/>
      <stop offset="0.8828" stop-color="rgb(55.368042%, 29.600525%, 23.703003%)" stop-opacity="1"/>
      <stop offset="0.8906" stop-color="rgb(55.644226%, 29.699707%, 23.718262%)" stop-opacity="1"/>
      <stop offset="0.8984" stop-color="rgb(55.92041%, 29.797363%, 23.733521%)" stop-opacity="1"/>
      <stop offset="0.9063" stop-color="rgb(56.196594%, 29.896545%, 23.750305%)" stop-opacity="1"/>
      <stop offset="0.9141" stop-color="rgb(56.472778%, 29.995728%, 23.765564%)" stop-opacity="1"/>
      <stop offset="0.9219" stop-color="rgb(56.748962%, 30.09491%, 23.780823%)" stop-opacity="1"/>
      <stop offset="0.9297" stop-color="rgb(57.025146%, 30.194092%, 23.796082%)" stop-opacity="1"/>
      <stop offset="0.9375" stop-color="rgb(57.301331%, 30.293274%, 23.812866%)" stop-opacity="1"/>
      <stop offset="0.9453" stop-color="rgb(57.577515%, 30.392456%, 23.828125%)" stop-opacity="1"/>
      <stop offset="0.9531" stop-color="rgb(57.853699%, 30.491638%, 23.843384%)" stop-opacity="1"/>
      <stop offset="0.9609" stop-color="rgb(58.129883%, 30.59082%, 23.858643%)" stop-opacity="1"/>
      <stop offset="0.9688" stop-color="rgb(58.406067%, 30.690002%, 23.875427%)" stop-opacity="1"/>
      <stop offset="0.9766" stop-color="rgb(58.682251%, 30.789185%, 23.890686%)" stop-opacity="1"/>
      <stop offset="0.9844" stop-color="rgb(58.958435%, 30.886841%, 23.905945%)" stop-opacity="1"/>
      <stop offset="1" stop-color="rgb(59.155273%, 30.958557%, 23.916626%)" stop-opacity="1"/>
    </linearGradient>
    <clipPath id="clip-44">
      <path clip-rule="nonzero" d="M 1575 1399 L 3892 1399 L 3892 1788 L 1575 1788 Z M 1575 1399 "/>
    </clipPath>
    <clipPath id="clip-45">
      <path clip-rule="nonzero" d="M 2982.640625 1787.988281 C 2979.210938 1787.988281 2975.851562 1787.941406 2972.550781 1787.828125 C 2837.828125 1783.390625 2450.679688 1773.648438 2264.460938 1773.648438 C 2205.949219 1773.648438 2167.28125 1774.609375 2162.5 1777 C 2159.769531 1778.359375 2150.710938 1778.949219 2136.941406 1778.949219 C 2049.679688 1778.949219 1772.851562 1755.261719 1714.289062 1754.210938 C 1646.808594 1753.011719 1575.929688 1710.25 1575.28125 1709.859375 C 1575.308594 1709.851562 1575.339844 1709.839844 1575.371094 1709.828125 C 1581.910156 1707.800781 1948.960938 1594.539062 2127.371094 1594.539062 C 2158.199219 1594.539062 2183.359375 1597.910156 2200.089844 1605.839844 C 2277.179688 1642.328125 2257 1654.050781 2292.199219 1654.050781 C 2309.230469 1654.050781 2339.25 1651.300781 2399.578125 1647.289062 C 2584.5 1635 2947.5 1529.539062 3033.5 1525.769531 C 3119.5 1522 3204.5 1516 3282.5 1502 C 3360.5 1488 3478.710938 1427.558594 3532.609375 1425.78125 C 3586.5 1424 3777.5 1399 3792.5 1399 C 3807.5 1399 3891.199219 1399 3891.199219 1399 L 3522.5 1640 C 3522.5 1640 3163.351562 1787.988281 2982.640625 1787.988281 "/>
    </clipPath>
    <clipPath id="clip-46">
      <path clip-rule="nonzero" d="M 2982.640625 1787.988281 C 2979.210938 1787.988281 2975.851562 1787.941406 2972.550781 1787.828125 C 2837.828125 1783.390625 2450.679688 1773.648438 2264.460938 1773.648438 C 2205.949219 1773.648438 2167.28125 1774.609375 2162.5 1777 C 2159.769531 1778.359375 2150.710938 1778.949219 2136.941406 1778.949219 C 2049.679688 1778.949219 1772.851562 1755.261719 1714.289062 1754.210938 C 1646.808594 1753.011719 1575.929688 1710.25 1575.28125 1709.859375 C 1575.308594 1709.851562 1575.339844 1709.839844 1575.371094 1709.828125 C 1581.910156 1707.800781 1948.960938 1594.539062 2127.371094 1594.539062 C 2158.199219 1594.539062 2183.359375 1597.910156 2200.089844 1605.839844 C 2277.179688 1642.328125 2257 1654.050781 2292.199219 1654.050781 C 2309.230469 1654.050781 2339.25 1651.300781 2399.578125 1647.289062 C 2584.5 1635 2947.5 1529.539062 3033.5 1525.769531 C 3119.5 1522 3204.5 1516 3282.5 1502 C 3360.5 1488 3478.710938 1427.558594 3532.609375 1425.78125 C 3586.5 1424 3777.5 1399 3792.5 1399 C 3807.5 1399 3891.199219 1399 3891.199219 1399 L 3522.5 1640 C 3522.5 1640 3163.351562 1787.988281 2982.640625 1787.988281 "/>
    </clipPath>
    <linearGradient id="linear-pattern-13" gradientUnits="userSpaceOnUse" x1="0.509493" y1="0" x2="0.880771" y2="0" gradientTransform="matrix(-8.40535, 1095.5, -1095.5, -8.40535, 2762.84, 832.16)">
      <stop offset="0" stop-color="rgb(51.582336%, 27.328491%, 22.171021%)" stop-opacity="1"/>
      <stop offset="0.0313" stop-color="rgb(51.741028%, 27.384949%, 22.181702%)" stop-opacity="1"/>
      <stop offset="0.0625" stop-color="rgb(52.061462%, 27.49939%, 22.20459%)" stop-opacity="1"/>
      <stop offset="0.0938" stop-color="rgb(52.380371%, 27.613831%, 22.227478%)" stop-opacity="1"/>
      <stop offset="0.125" stop-color="rgb(52.700806%, 27.728271%, 22.250366%)" stop-opacity="1"/>
      <stop offset="0.1563" stop-color="rgb(53.019714%, 27.842712%, 22.273254%)" stop-opacity="1"/>
      <stop offset="0.1875" stop-color="rgb(53.340149%, 27.957153%, 22.296143%)" stop-opacity="1"/>
      <stop offset="0.2188" stop-color="rgb(53.659058%, 28.070068%, 22.319031%)" stop-opacity="1"/>
      <stop offset="0.25" stop-color="rgb(53.979492%, 28.184509%, 22.341919%)" stop-opacity="1"/>
      <stop offset="0.2813" stop-color="rgb(54.298401%, 28.29895%, 22.364807%)" stop-opacity="1"/>
      <stop offset="0.3125" stop-color="rgb(54.618835%, 28.413391%, 22.387695%)" stop-opacity="1"/>
      <stop offset="0.3438" stop-color="rgb(54.937744%, 28.527832%, 22.410583%)" stop-opacity="1"/>
      <stop offset="0.375" stop-color="rgb(55.258179%, 28.642273%, 22.433472%)" stop-opacity="1"/>
      <stop offset="0.4063" stop-color="rgb(55.577087%, 28.755188%, 22.45636%)" stop-opacity="1"/>
      <stop offset="0.4375" stop-color="rgb(55.897522%, 28.869629%, 22.479248%)" stop-opacity="1"/>
      <stop offset="0.4688" stop-color="rgb(56.216431%, 28.98407%, 22.502136%)" stop-opacity="1"/>
      <stop offset="0.5" stop-color="rgb(56.536865%, 29.098511%, 22.525024%)" stop-opacity="1"/>
      <stop offset="0.5312" stop-color="rgb(56.855774%, 29.212952%, 22.547913%)" stop-opacity="1"/>
      <stop offset="0.5625" stop-color="rgb(57.176208%, 29.327393%, 22.569275%)" stop-opacity="1"/>
      <stop offset="0.5938" stop-color="rgb(57.495117%, 29.440308%, 22.592163%)" stop-opacity="1"/>
      <stop offset="0.625" stop-color="rgb(57.815552%, 29.554749%, 22.615051%)" stop-opacity="1"/>
      <stop offset="0.6563" stop-color="rgb(58.135986%, 29.669189%, 22.637939%)" stop-opacity="1"/>
      <stop offset="0.6875" stop-color="rgb(58.454895%, 29.78363%, 22.660828%)" stop-opacity="1"/>
      <stop offset="0.7188" stop-color="rgb(58.77533%, 29.898071%, 22.683716%)" stop-opacity="1"/>
      <stop offset="0.75" stop-color="rgb(59.094238%, 30.010986%, 22.706604%)" stop-opacity="1"/>
      <stop offset="0.7812" stop-color="rgb(59.414673%, 30.125427%, 22.729492%)" stop-opacity="1"/>
      <stop offset="0.8125" stop-color="rgb(59.733582%, 30.239868%, 22.75238%)" stop-opacity="1"/>
      <stop offset="0.8438" stop-color="rgb(60.054016%, 30.354309%, 22.775269%)" stop-opacity="1"/>
      <stop offset="0.875" stop-color="rgb(60.372925%, 30.46875%, 22.798157%)" stop-opacity="1"/>
      <stop offset="0.9063" stop-color="rgb(60.693359%, 30.583191%, 22.821045%)" stop-opacity="1"/>
      <stop offset="0.9375" stop-color="rgb(61.012268%, 30.696106%, 22.843933%)" stop-opacity="1"/>
      <stop offset="0.9688" stop-color="rgb(61.332703%, 30.810547%, 22.866821%)" stop-opacity="1"/>
      <stop offset="1" stop-color="rgb(61.651611%, 30.924988%, 22.889709%)" stop-opacity="1"/>
    </linearGradient>
  </defs>
  <g clip-path="url(#clip-6)">
    <g clip-path="url(#clip-7)">
      <g clip-path="url(#clip-8)">
        <path fill-rule="nonzero" fill="url(#linear-pattern-2)" d="M 1280.230469 463.730469 L 1278.792969 463.648438 L 1278.589844 467.269531 L 1280.027344 467.351562 Z M 1280.230469 463.730469 "/>
      </g>
    </g>
  </g>
  <path fill-rule="nonzero" fill="rgb(87.5%, 43.138123%, 25.87738%)" fill-opacity="1" d="M 1491.558594 1299.488281 C 1490.910156 1298.570312 1490.28125 1297.660156 1489.660156 1296.78125 C 1495.5 1293.109375 1498.828125 1291 1498.828125 1291 L 1492.5 1299 L 1491.558594 1299.488281 "/>
  <path fill-rule="nonzero" fill="rgb(70.896912%, 28.24707%, 17.651367%)" fill-opacity="1" d="M 106.365 1664.71 C 106.365 1664.71 193.452 1592.63 229.934 1590.19 C 266.417 1587.74 352.294 1538.59 352.294 1538.59 L 448.079 1464.11 C 448.079 1464.11 464.794 1399.59 581.555 1448.46 C 698.32 1497.33 848.488 1567.66 956.404 1585.63 C 1064.32 1603.62 1207.89 1601.18 1207.89 1601.18 C 1207.89 1601.18 1469.74 1556.63 1540.06 1538.59 C 1610.37 1520.54 1704.52 1480.23 1725.71 1486.33 C 1746.89 1492.44 1957.54 1582.85 1957.54 1582.85 L 2052.54 1628.92 L 2042.24 1828.86 L 1420.97 1913.38 L 403.496 1876.91 L 215.812 1835.77 L 106.365 1664.71" style=""/>
  <path fill-rule="nonzero" fill="rgb(84.375%, 33.325195%, 19.213867%)" fill-opacity="1" d="M 249.747 1614.14 C 249.747 1614.14 288.747 1589.14 312.747 1585.14 C 336.747 1581.14 399.747 1549.14 416.747 1541.14 C 433.747 1533.14 474.478 1495.44 490.61 1488.79 C 506.747 1482.14 537.935 1456.82 515.841 1479.98 C 493.747 1503.14 499.747 1515.14 465.747 1532.14 C 431.747 1549.14 408.747 1556.14 384.747 1565.14 C 360.747 1574.14 372.747 1581.14 329.747 1595.14 C 286.747 1609.14 284.169 1610.14 273.458 1614.14 C 262.747 1618.14 249.747 1614.14 249.747 1614.14"/>
  <path fill-rule="nonzero" fill="rgb(84.375%, 33.325195%, 19.213867%)" fill-opacity="1" d="M 300.247 1632.64 C 300.911 1632.52 301.927 1631.99 303.212 1631.18 C 311.587 1625.92 331.31 1608.52 338.247 1607.64 C 346.247 1606.64 401.247 1575.64 412.247 1570.64 C 423.247 1565.64 432.247 1557.64 452.247 1548.64 C 472.247 1539.64 512.247 1514.64 512.247 1514.64 C 512.247 1514.64 537.493 1472.18 547.868 1470.41 C 558.247 1468.64 575.087 1433.18 561.665 1470.41 C 548.247 1507.64 528.247 1526.64 528.247 1526.64 C 528.247 1526.64 515.247 1531.64 503.247 1535.64 C 491.247 1539.64 478.247 1554.64 461.247 1562.64 C 444.247 1570.64 438.247 1576.64 415.247 1589.64 C 392.247 1602.64 357.017 1615.92 357.017 1615.92 C 357.017 1615.92 343.325 1627.13 331.786 1628.88 C 320.247 1630.64 300.247 1632.64 300.247 1632.64"/>
  <path fill-rule="nonzero" fill="rgb(84.375%, 33.325195%, 19.213867%)" fill-opacity="1" d="M 357.247 1660.64 C 357.247 1660.64 396.626 1645.21 411.435 1640.43 C 426.247 1635.64 446.247 1631.64 468.247 1622.64 C 490.247 1613.64 546.247 1583.64 555.247 1578.64 C 564.247 1573.64 574.247 1558.64 574.247 1558.64 C 574.247 1558.64 531.247 1583.64 512.247 1589.64 C 493.247 1595.64 449.759 1615.92 449.759 1615.92 L 416.247 1626.64 L 372.696 1642.11 L 357.247 1660.64"/>
  <g clip-path="url(#clip-41)">
    <g clip-path="url(#clip-42)">
      <g clip-path="url(#clip-43)">
        <path fill-rule="nonzero" fill="url(#linear-pattern-12)" d="M 4008.902344 836.816406 L 1513.707031 817.667969 L 1505.15625 1931.796875 L 4000.355469 1950.941406 Z M 4008.902344 836.816406 "/>
      </g>
    </g>
  </g>
  <path fill-rule="nonzero" fill="rgb(74.414062%, 30.200195%, 18.041992%)" fill-opacity="1" d="M 1575.28125 1709.859375 L 1575.28125 1709.851562 C 1575.28125 1709.851562 1575.308594 1709.839844 1575.371094 1709.828125 C 1575.339844 1709.839844 1575.308594 1709.851562 1575.28125 1709.859375 "/>
  <g clip-path="url(#clip-44)">
    <g clip-path="url(#clip-45)">
      <g clip-path="url(#clip-46)">
        <path fill-rule="nonzero" fill="url(#linear-pattern-13)" d="M 3894.183594 1399.023438 L 1575.417969 1381.230469 L 1572.296875 1787.96875 L 3891.0625 1805.757812 Z M 3894.183594 1399.023438 "/>
      </g>
    </g>
  </g>
  <path fill-rule="nonzero" fill="rgb(38.035583%, 23.535156%, 21.972656%)" fill-opacity="1" d="M 3360.921875 836.75 C 3357.640625 848.96875 3354.5 860.300781 3352.011719 868.578125 C 3342.519531 900.171875 3241.5 1024 3192.5 1058 C 3143.5 1092 2923.5 1208 2923.5 1208 C 2923.5 1208 2933.121094 1159.429688 2951.5 1106.921875 C 2958.441406 1102.621094 2965.460938 1099.140625 2972.550781 1096.621094 C 3061.5 1065 3162.5 1018 3212.5 973 C 3262.5 928 3237.5 868.828125 3302.5 845.410156 C 3319.488281 839.289062 3339.558594 836.679688 3360.921875 836.75 "/>
  <path fill-rule="nonzero" fill="rgb(38.035583%, 23.535156%, 21.972656%)" fill-opacity="1" d="M 3730.710938 936.699219 L 3706.859375 970.628906 L 3612.5 1031 C 3612.5 1031 3651.5 977 3659.5 972 C 3660.921875 971.121094 3661.578125 970.699219 3661.648438 970.640625 C 3661.21875 970.828125 3649.410156 977.808594 3641.238281 981 C 3631.148438 984.941406 3548.148438 1058.640625 3545.558594 1060.941406 L 3616.5 981 C 3616.5 981 3563.5 1026 3533.5 1046 C 3503.5 1066 3483.5 1077 3464.589844 1083 C 3445.679688 1089 3392.5 1083 3387.5 1083 C 3382.5 1083 3277.5 1184 3250.921875 1208 C 3224.339844 1232 3062.5 1347 3062.5 1347 L 2948.078125 1335.140625 L 3302.5 1098.378906 C 3302.5 1098.378906 3389 1064.5 3428 1059.5 C 3467 1054.5 3552 1005.5 3552 1005.5 L 3656.429688 943.589844 C 3661.398438 945.070312 3665.488281 945.878906 3668.5 945.898438 C 3687.429688 946 3665.601562 931.628906 3730.710938 936.699219 "/>
  <path fill-rule="nonzero" fill="rgb(38.035583%, 23.535156%, 21.972656%)" fill-opacity="1" d="M 3262.5 1082 C 3262.5 1082 3311.5 1015 3321.5 1006 C 3331.5 997 3432.5 918 3432.5 918 L 3447.5 895 L 3454.5 920 C 3454.5 920 3361.5 1044.53125 3336.5 1051.269531 C 3311.5 1058 3262.5 1082 3262.5 1082 "/>
  <path fill-rule="nonzero" fill="rgb(38.035583%, 23.535156%, 21.972656%)" fill-opacity="1" d="M 3057.441406 1169.839844 C 3062.5 1174 3176.5 1126 3188.5 1117 C 3200.5 1108 3242.5 1043 3254.5 1036 C 3266.5 1029 3339.398438 958.730469 3339.398438 958.730469 L 3388.5 859 L 3368.691406 859 L 3302.5 972.191406 C 3302.5 972.191406 3188 1087.5 3179 1096.5 C 3170 1105.5 3057.441406 1169.839844 3057.441406 1169.839844 "/>
  <path fill-rule="nonzero" fill="rgb(38.035583%, 23.535156%, 21.972656%)" fill-opacity="1" d="M 3385.5 1050 C 3385.5 1050 3419.5 1045 3433.5 1033 C 3447.5 1021 3448.339844 1023.089844 3450.921875 1014.550781 C 3453.5 1006 3464.5 967 3464.5 967 C 3464.5 967 3385.5 1038 3385.5 1050 "/>
  <path fill-rule="nonzero" fill="rgb(38.035583%, 23.535156%, 21.972656%)" fill-opacity="1" d="M 2997.800781 1525.769531 C 3011.5 1519 3366.5 1385 3405.5 1367 C 3444.5 1349 3535.5 1283 3556.5 1276 C 3577.5 1269 3667.5 1205.648438 3668.5 1201.820312 C 3669.5 1198 3756.5 1111 3756.5 1111 C 3756.5 1111 3533 1266.5 3508 1270.5 C 3483 1274.5 3430.5 1299.289062 3430.5 1299.289062 C 3430.5 1299.289062 3664.289062 1150.121094 3683.640625 1141.308594 C 3703 1132.5 3783 1067.5 3783 1067.5 C 3783 1067.5 3775 1051.5 3772 1042.5 C 3769 1033.5 3777 1026.5 3758 1033.5 C 3739 1040.5 3399.839844 1317.78125 3360.921875 1335.140625 C 3322 1352.5 2997.800781 1525.769531 2997.800781 1525.769531 "/>
  <path fill-rule="nonzero" fill="rgb(38.035583%, 23.535156%, 21.972656%)" fill-opacity="1" d="M 3075.570312 1523.488281 L 3332.5 1441.070312 L 3486 1375.5 C 3486 1375.5 3599 1321.5 3605 1318.5 C 3611 1315.5 3664.5 1233.71875 3664.5 1233.71875 L 3773.570312 1125 L 3646 1299.5 C 3646 1299.5 3720 1220.5 3736 1216.5 C 3752 1212.5 3752 1212.5 3752 1212.5 L 3726.710938 1297.519531 C 3726.710938 1297.519531 3664 1348.5 3616 1366.5 C 3568 1384.5 3310.128906 1484.488281 3075.570312 1523.488281 "/>
  <path fill-rule="nonzero" fill="rgb(76.951599%, 41.575623%, 32.542419%)" fill-opacity="1" d="M 1575.28125 1709.851562 C 1575.28125 1709.851562 1744.238281 1687.78125 1803.121094 1682.640625 C 1862 1677.5 1985 1660.5 2008 1658.5 C 2031 1656.5 2141.210938 1640.089844 2162.109375 1647.289062 C 2183 1654.5 2273.859375 1651.671875 2273.859375 1651.671875 C 2273.859375 1651.671875 2100.878906 1643.449219 2051.941406 1645.480469 C 2003 1647.5 1901 1658.160156 1874 1662.328125 C 1847 1666.5 1863 1646.808594 1874 1645.148438 C 1885 1643.5 1965 1593.5 1984 1582.5 C 2003 1571.5 2066.5 1525.769531 2066.5 1525.769531 L 1881.878906 1629.210938 L 1820.210938 1673.800781 L 1575.28125 1709.851562 "/>
  <path fill-rule="nonzero" fill="rgb(38.035583%, 23.535156%, 21.972656%)" fill-opacity="1" d="M 2204 1559.5 C 2204 1559.5 2302.621094 1600.488281 2351.308594 1593.488281 C 2400 1586.5 2448 1582.5 2474 1576.5 C 2500 1570.5 2596 1532.5 2596 1532.5 L 2619 1506.5 C 2619 1506.5 2226 1585.5 2204 1559.5 "/>
  <path fill-rule="nonzero" fill="rgb(38.035583%, 23.535156%, 21.972656%)" fill-opacity="1" d="M 2511.429688 1594.300781 C 2511.429688 1594.300781 2568.570312 1580.351562 2583.03125 1571.179688 C 2597.5 1562 2615.5 1548.578125 2619 1545.289062 C 2622.5 1542 2622.5 1542 2622.5 1542 L 2511.429688 1594.300781 "/>
  <path fill-rule="nonzero" fill="rgb(38.035583%, 23.535156%, 21.972656%)" fill-opacity="1" d="M 2346.5 1452 C 2346.5 1452 2418.578125 1422 2445.039062 1399 C 2471.5 1376 2502.320312 1347 2502.320312 1347 C 2502.320312 1347 2579.5 1315 2584.5 1315 C 2589.5 1315 2631.210938 1298.488281 2597.351562 1324.25 C 2563.5 1350 2543.5 1392 2501.5 1405 C 2459.5 1418 2460.511719 1412 2419 1425.5 C 2377.5 1439 2346.5 1452 2346.5 1452 "/>
  <path fill-rule="nonzero" fill="rgb(76.5625%, 35.301208%, 21.556091%)" fill-opacity="1" d="M 686.863281 1731.03125 C 686.863281 1731.03125 812.996094 1667.800781 946.246094 1685.898438 C 1079.5 1704 1472.5 1701.710938 1577.5 1709.851562 C 1682.5 1718 1749.769531 1735.351562 1915.128906 1749.171875 C 2080.5 1763 2171.261719 1787.828125 2171.261719 1787.828125 L 1833.269531 1816.808594 C 1833.269531 1816.808594 1107.46875 1796.621094 1033.980469 1816.808594 C 960.5 1837 729.507812 1816.808594 729.507812 1816.808594 L 686.863281 1731.03125 "/>
</svg>