<?xml version="1.0" encoding="utf-8"?>
<svg xmlns="http://www.w3.org/2000/svg" width="4000.5" height="2250.5" viewBox="0 0 4000.5 2250.5">
  <defs>
    <clipPath id="clip-6">
      <path clip-rule="nonzero" d="M 1278 463 L 1280 463 L 1280 468 L 1278 468 Z M 1278 463 "/>
    </clipPath>
    <clipPath id="clip-7">
      <path clip-rule="nonzero" d="M 1279.53125 467.28125 L 1278.980469 464.859375 C 1278.898438 464.480469 1278.789062 464.019531 1279.238281 463.859375 C 1279.308594 463.828125 1279.679688 463.71875 1279.921875 464.179688 C 1280.03125 464.359375 1280 464.609375 1279.960938 464.839844 Z M 1279.53125 467.28125 "/>
    </clipPath>
    <clipPath id="clip-8">
      <path clip-rule="nonzero" d="M 1279.53125 467.28125 L 1278.980469 464.859375 C 1278.898438 464.480469 1278.789062 464.019531 1279.238281 463.859375 C 1279.308594 463.828125 1279.679688 463.71875 1279.921875 464.179688 C 1280.03125 464.359375 1280 464.609375 1279.960938 464.839844 L 1279.53125 467.28125 "/>
    </clipPath>
    <linearGradient id="linear-pattern-2" gradientUnits="userSpaceOnUse" x1="-0.0406801" y1="0" x2="1.010883" y2="0" gradientTransform="matrix(-0.193856, 3.44095, -3.44095, -0.193856, 1279.49, 463.83)">
      <stop offset="0" stop-color="rgb(96.076965%, 68.234253%, 52.548218%)" stop-opacity="1"/>
      <stop offset="0.25" stop-color="rgb(96.076965%, 68.234253%, 52.548218%)" stop-opacity="1"/>
      <stop offset="0.375" stop-color="rgb(96.115112%, 68.348694%, 52.662659%)" stop-opacity="1"/>
      <stop offset="0.5" stop-color="rgb(96.202087%, 68.608093%, 52.922058%)" stop-opacity="1"/>
      <stop offset="0.625" stop-color="rgb(96.298218%, 68.896484%, 53.208923%)" stop-opacity="1"/>
      <stop offset="0.75" stop-color="rgb(96.394348%, 69.18335%, 53.497314%)" stop-opacity="1"/>
      <stop offset="1" stop-color="rgb(96.455383%, 69.369507%, 53.683472%)" stop-opacity="1"/>
    </linearGradient>
    <clipPath id="clip-26">
      <path clip-rule="nonzero" d="M 1962 968 L 3096 968 L 3096 1426 L 1962 1426 Z M 1962 968 "/>
    </clipPath>
    <clipPath id="clip-27">
      <path clip-rule="nonzero" d="M 2373.140625 1425.089844 C 2364.019531 1424.238281 2354.46875 1422.320312 2346.5 1413.78125 C 2329.5 1395.558594 2249.5 1392 2106.941406 1335.140625 C 2013.941406 1298.050781 2009.738281 1297.371094 2009.738281 1294.46875 C 2009.738281 1294.179688 2009.78125 1293.871094 2009.78125 1293.5 C 2009.78125 1291.878906 2009 1289.121094 2000.5 1282.058594 C 1990.890625 1274.070312 1976.960938 1264.109375 1962.480469 1254.269531 C 1996.699219 1242.011719 2037.039062 1227.191406 2066.5 1215.210938 C 2128.5 1190 2119.019531 1156.621094 2171.261719 1141.308594 C 2208.390625 1130.429688 2199.851562 1117.679688 2216.78125 1117.679688 C 2223.679688 1117.679688 2234.789062 1119.789062 2254.921875 1125 C 2324.5 1143 2340.75 1168.679688 2365.621094 1169.839844 C 2381.878906 1170.601562 2427.148438 1176.699219 2464.421875 1176.699219 C 2484.191406 1176.699219 2501.699219 1174.980469 2511.429688 1169.839844 C 2539.5 1155 2587.039062 1125 2587.039062 1125 C 2587.039062 1125 2632.039062 1097 2678.769531 1082 C 2725.5 1067 2729.5 1072.5 2748.5 1069.75 C 2749.808594 1069.558594 2750.890625 1069.480469 2751.789062 1069.480469 C 2754.628906 1069.480469 2755.671875 1070.289062 2756.261719 1071.101562 C 2756.859375 1071.910156 2757 1072.71875 2758.039062 1072.71875 C 2760.429688 1072.71875 2767.550781 1068.429688 2795.800781 1050 C 2852.5 1013 2850.210938 995 2893.859375 988.5 C 2921.738281 984.351562 2923.890625 968.96875 2942.601562 968.96875 C 2953.171875 968.96875 2969.019531 973.878906 2997.800781 988.5 C 3052.53125 1016.308594 3068.941406 1036.820312 3095.308594 1045.640625 C 3055.851562 1064.71875 3012.949219 1082.261719 2972.550781 1096.621094 C 2965.460938 1099.140625 2958.441406 1102.621094 2951.5 1106.921875 C 2871.429688 1156.378906 2801.878906 1312.921875 2748.5 1335.140625 C 2738.960938 1339.109375 2730.78125 1340.769531 2723.410156 1340.769531 C 2685.980469 1340.769531 2669.671875 1297.929688 2604.5 1297.578125 C 2604.339844 1297.578125 2604.191406 1297.578125 2604.019531 1297.578125 C 2526.660156 1297.578125 2411.308594 1396.429688 2373.140625 1425.089844 "/>
    </clipPath>
    <clipPath id="clip-28">
      <path clip-rule="nonzero" d="M 2373.140625 1425.089844 C 2364.019531 1424.238281 2354.46875 1422.320312 2346.5 1413.78125 C 2329.5 1395.558594 2249.5 1392 2106.941406 1335.140625 C 2013.941406 1298.050781 2009.738281 1297.371094 2009.738281 1294.46875 C 2009.738281 1294.179688 2009.78125 1293.871094 2009.78125 1293.5 C 2009.78125 1291.878906 2009 1289.121094 2000.5 1282.058594 C 1990.890625 1274.070312 1976.960938 1264.109375 1962.480469 1254.269531 C 1996.699219 1242.011719 2037.039062 1227.191406 2066.5 1215.210938 C 2128.5 1190 2119.019531 1156.621094 2171.261719 1141.308594 C 2208.390625 1130.429688 2199.851562 1117.679688 2216.78125 1117.679688 C 2223.679688 1117.679688 2234.789062 1119.789062 2254.921875 1125 C 2324.5 1143 2340.75 1168.679688 2365.621094 1169.839844 C 2381.878906 1170.601562 2427.148438 1176.699219 2464.421875 1176.699219 C 2484.191406 1176.699219 2501.699219 1174.980469 2511.429688 1169.839844 C 2539.5 1155 2587.039062 1125 2587.039062 1125 C 2587.039062 1125 2632.039062 1097 2678.769531 1082 C 2725.5 1067 2729.5 1072.5 2748.5 1069.75 C 2749.808594 1069.558594 2750.890625 1069.480469 2751.789062 1069.480469 C 2754.628906 1069.480469 2755.671875 1070.289062 2756.261719 1071.101562 C 2756.859375 1071.910156 2757 1072.71875 2758.039062 1072.71875 C 2760.429688 1072.71875 2767.550781 1068.429688 2795.800781 1050 C 2852.5 1013 2850.210938 995 2893.859375 988.5 C 2921.738281 984.351562 2923.890625 968.96875 2942.601562 968.96875 C 2953.171875 968.96875 2969.019531 973.878906 2997.800781 988.5 C 3052.53125 1016.308594 3068.941406 1036.820312 3095.308594 1045.640625 C 3055.851562 1064.71875 3012.949219 1082.261719 2972.550781 1096.621094 C 2965.460938 1099.140625 2958.441406 1102.621094 2951.5 1106.921875 C 2871.429688 1156.378906 2801.878906 1312.921875 2748.5 1335.140625 C 2738.960938 1339.109375 2730.78125 1340.769531 2723.410156 1340.769531 C 2685.980469 1340.769531 2669.671875 1297.929688 2604.5 1297.578125 C 2604.339844 1297.578125 2604.191406 1297.578125 2604.019531 1297.578125 C 2526.660156 1297.578125 2411.308594 1396.429688 2373.140625 1425.089844 "/>
    </clipPath>
    <linearGradient id="linear-pattern-7" gradientUnits="userSpaceOnUse" x1="0.159614" y1="0" x2="1.373092" y2="0" gradientTransform="matrix(-34.7938, -445.993, 445.993, -34.7938, 2644.75, 1531.86)">
      <stop offset="0" stop-color="rgb(96.029663%, 66.360474%, 50.108337%)" stop-opacity="1"/>
      <stop offset="0.0156" stop-color="rgb(96.002197%, 66.226196%, 49.938965%)" stop-opacity="1"/>
      <stop offset="0.0313" stop-color="rgb(95.950317%, 65.956116%, 49.603271%)" stop-opacity="1"/>
      <stop offset="0.0469" stop-color="rgb(95.898438%, 65.687561%, 49.266052%)" stop-opacity="1"/>
      <stop offset="0.0625" stop-color="rgb(95.845032%, 65.41748%, 48.930359%)" stop-opacity="1"/>
      <stop offset="0.0781" stop-color="rgb(95.793152%, 65.148926%, 48.59314%)" stop-opacity="1"/>
      <stop offset="0.0938" stop-color="rgb(95.741272%, 64.880371%, 48.257446%)" stop-opacity="1"/>
      <stop offset="0.1094" stop-color="rgb(95.689392%, 64.610291%, 47.920227%)" stop-opacity="1"/>
      <stop offset="0.125" stop-color="rgb(95.635986%, 64.341736%, 47.584534%)" stop-opacity="1"/>
      <stop offset="0.1406" stop-color="rgb(95.584106%, 64.071655%, 47.247314%)" stop-opacity="1"/>
      <stop offset="0.1563" stop-color="rgb(95.532227%, 63.803101%, 46.911621%)" stop-opacity="1"/>
      <stop offset="0.1719" stop-color="rgb(95.478821%, 63.534546%, 46.574402%)" stop-opacity="1"/>
      <stop offset="0.1875" stop-color="rgb(95.426941%, 63.264465%, 46.238708%)" stop-opacity="1"/>
      <stop offset="0.2031" stop-color="rgb(95.375061%, 62.995911%, 45.901489%)" stop-opacity="1"/>
      <stop offset="0.2188" stop-color="rgb(95.321655%, 62.72583%, 45.56427%)" stop-opacity="1"/>
      <stop offset="0.2344" stop-color="rgb(95.269775%, 62.457275%, 45.228577%)" stop-opacity="1"/>
      <stop offset="0.25" stop-color="rgb(95.217896%, 62.188721%, 44.891357%)" stop-opacity="1"/>
      <stop offset="0.2656" stop-color="rgb(95.166016%, 61.91864%, 44.555664%)" stop-opacity="1"/>
      <stop offset="0.2813" stop-color="rgb(95.11261%, 61.650085%, 44.218445%)" stop-opacity="1"/>
      <stop offset="0.2969" stop-color="rgb(95.06073%, 61.380005%, 43.882751%)" stop-opacity="1"/>
      <stop offset="0.3125" stop-color="rgb(95.00885%, 61.11145%, 43.545532%)" stop-opacity="1"/>
      <stop offset="0.3281" stop-color="rgb(94.955444%, 60.84137%, 43.209839%)" stop-opacity="1"/>
      <stop offset="0.3438" stop-color="rgb(94.903564%, 60.572815%, 42.87262%)" stop-opacity="1"/>
      <stop offset="0.3594" stop-color="rgb(94.851685%, 60.30426%, 42.536926%)" stop-opacity="1"/>
      <stop offset="0.375" stop-color="rgb(94.798279%, 60.03418%, 42.199707%)" stop-opacity="1"/>
      <stop offset="0.3906" stop-color="rgb(94.746399%, 59.765625%, 41.864014%)" stop-opacity="1"/>
      <stop offset="0.4063" stop-color="rgb(94.694519%, 59.495544%, 41.526794%)" stop-opacity="1"/>
      <stop offset="0.4219" stop-color="rgb(94.642639%, 59.22699%, 41.191101%)" stop-opacity="1"/>
      <stop offset="0.4375" stop-color="rgb(94.589233%, 58.958435%, 40.853882%)" stop-opacity="1"/>
      <stop offset="0.4531" stop-color="rgb(94.537354%, 58.688354%, 40.518188%)" stop-opacity="1"/>
      <stop offset="0.4688" stop-color="rgb(94.485474%, 58.4198%, 40.180969%)" stop-opacity="1"/>
      <stop offset="0.4844" stop-color="rgb(94.432068%, 58.149719%, 39.845276%)" stop-opacity="1"/>
      <stop offset="0.5" stop-color="rgb(94.380188%, 57.881165%, 39.508057%)" stop-opacity="1"/>
      <stop offset="0.5156" stop-color="rgb(94.328308%, 57.61261%, 39.172363%)" stop-opacity="1"/>
      <stop offset="0.5312" stop-color="rgb(94.274902%, 57.342529%, 38.835144%)" stop-opacity="1"/>
      <stop offset="0.5469" stop-color="rgb(94.223022%, 57.073975%, 38.499451%)" stop-opacity="1"/>
      <stop offset="0.5625" stop-color="rgb(94.171143%, 56.803894%, 38.162231%)" stop-opacity="1"/>
      <stop offset="0.5781" stop-color="rgb(94.119263%, 56.535339%, 37.826538%)" stop-opacity="1"/>
      <stop offset="0.5938" stop-color="rgb(94.065857%, 56.265259%, 37.489319%)" stop-opacity="1"/>
      <stop offset="0.6094" stop-color="rgb(94.013977%, 55.996704%, 37.153625%)" stop-opacity="1"/>
      <stop offset="0.625" stop-color="rgb(93.962097%, 55.728149%, 36.816406%)" stop-opacity="1"/>
      <stop offset="0.6406" stop-color="rgb(93.908691%, 55.458069%, 36.480713%)" stop-opacity="1"/>
      <stop offset="0.6563" stop-color="rgb(93.856812%, 55.189514%, 36.143494%)" stop-opacity="1"/>
      <stop offset="0.6719" stop-color="rgb(93.804932%, 54.919434%, 35.8078%)" stop-opacity="1"/>
      <stop offset="0.6875" stop-color="rgb(93.751526%, 54.650879%, 35.470581%)" stop-opacity="1"/>
      <stop offset="0.75" stop-color="rgb(93.72406%, 54.512024%, 35.298157%)" stop-opacity="1"/>
      <stop offset="1" stop-color="rgb(93.72406%, 54.508972%, 35.293579%)" stop-opacity="1"/>
    </linearGradient>
    <clipPath id="clip-29">
      <path clip-rule="nonzero" d="M 0 803 L 1243 803 L 1243 1399 L 0 1399 Z M 0 803 "/>
    </clipPath>
    <clipPath id="clip-30">
      <path clip-rule="nonzero" d="M 0.5 1170.089844 L 0.5 1050 C 0.5 1050 156.3125 1050.300781 200.40625 1030.648438 C 244.5 1011 253.285156 1041 366.894531 988.5 C 480.5 936 594.292969 776.460938 762.898438 807.730469 C 931.5 839 1032.320312 896.230469 1085.410156 935.621094 C 1138.5 975 1194.5 1012.75 1194.5 1012.75 L 1242.5 1106 L 1002.648438 1278.210938 L 686.863281 1399 C 686.863281 1399 332.273438 1359.28125 274.886719 1335.140625 C 217.5 1311 161.191406 1280.421875 141.347656 1278.210938 C 121.5 1276 0.5 1170.089844 0.5 1170.089844 Z M 0.5 1170.089844 "/>
    </clipPath>
    <clipPath id="clip-31">
      <path clip-rule="nonzero" d="M 0.5 1170.089844 L 0.5 1050 C 0.5 1050 156.3125 1050.300781 200.40625 1030.648438 C 244.5 1011 253.285156 1041 366.894531 988.5 C 480.5 936 594.292969 776.460938 762.898438 807.730469 C 931.5 839 1032.320312 896.230469 1085.410156 935.621094 C 1138.5 975 1194.5 1012.75 1194.5 1012.75 L 1242.5 1106 L 1002.648438 1278.210938 L 686.863281 1399 C 686.863281 1399 332.273438 1359.28125 274.886719 1335.140625 C 217.5 1311 161.191406 1280.421875 141.347656 1278.210938 C 121.5 1276 0.5 1170.089844 0.5 1170.089844 "/>
    </clipPath>
    <linearGradient id="linear-pattern-8" gradientUnits="userSpaceOnUse" x1="-0.221916" y1="0" x2="1.258266" y2="0" gradientTransform="matrix(212.579, -631.486, 631.486, 212.579, 508.405, 1413.96)">
      <stop offset="0" stop-color="rgb(94.900513%, 59.999084%, 41.567993%)" stop-opacity="1"/>
      <stop offset="0.125" stop-color="rgb(94.900513%, 59.999084%, 41.567993%)" stop-opacity="1"/>
      <stop offset="0.1875" stop-color="rgb(94.8349%, 59.812927%, 41.392517%)" stop-opacity="1"/>
      <stop offset="0.2188" stop-color="rgb(94.714355%, 59.47113%, 41.070557%)" stop-opacity="1"/>
      <stop offset="0.25" stop-color="rgb(94.604492%, 59.161377%, 40.779114%)" stop-opacity="1"/>
      <stop offset="0.2813" stop-color="rgb(94.496155%, 58.850098%, 40.486145%)" stop-opacity="1"/>
      <stop offset="0.3125" stop-color="rgb(94.386292%, 58.540344%, 40.194702%)" stop-opacity="1"/>
      <stop offset="0.3438" stop-color="rgb(94.276428%, 58.230591%, 39.903259%)" stop-opacity="1"/>
      <stop offset="0.375" stop-color="rgb(94.168091%, 57.920837%, 39.611816%)" stop-opacity="1"/>
      <stop offset="0.4063" stop-color="rgb(94.058228%, 57.609558%, 39.318848%)" stop-opacity="1"/>
      <stop offset="0.4375" stop-color="rgb(93.948364%, 57.299805%, 39.027405%)" stop-opacity="1"/>
      <stop offset="0.4688" stop-color="rgb(93.838501%, 56.990051%, 38.735962%)" stop-opacity="1"/>
      <stop offset="0.5" stop-color="rgb(93.730164%, 56.680298%, 38.442993%)" stop-opacity="1"/>
      <stop offset="0.5312" stop-color="rgb(93.6203%, 56.369019%, 38.15155%)" stop-opacity="1"/>
      <stop offset="0.5625" stop-color="rgb(93.510437%, 56.059265%, 37.860107%)" stop-opacity="1"/>
      <stop offset="0.5938" stop-color="rgb(93.400574%, 55.749512%, 37.568665%)" stop-opacity="1"/>
      <stop offset="0.625" stop-color="rgb(93.292236%, 55.439758%, 37.275696%)" stop-opacity="1"/>
      <stop offset="0.6563" stop-color="rgb(93.182373%, 55.130005%, 36.984253%)" stop-opacity="1"/>
      <stop offset="0.6875" stop-color="rgb(93.07251%, 54.818726%, 36.69281%)" stop-opacity="1"/>
      <stop offset="0.7188" stop-color="rgb(92.964172%, 54.508972%, 36.401367%)" stop-opacity="1"/>
      <stop offset="0.75" stop-color="rgb(92.854309%, 54.199219%, 36.108398%)" stop-opacity="1"/>
      <stop offset="0.7812" stop-color="rgb(92.744446%, 53.889465%, 35.816956%)" stop-opacity="1"/>
      <stop offset="0.8125" stop-color="rgb(92.634583%, 53.578186%, 35.525513%)" stop-opacity="1"/>
      <stop offset="0.875" stop-color="rgb(92.564392%, 53.378296%, 35.336304%)" stop-opacity="1"/>
      <stop offset="1" stop-color="rgb(92.547607%, 53.33252%, 35.293579%)" stop-opacity="1"/>
    </linearGradient>
    <clipPath id="clip-72">
      <path clip-rule="nonzero" d="M 0 2178 L 2824 2178 L 2824 2250.5 L 0 2250.5 Z M 0 2178 "/>
    </clipPath>
  </defs>
  <g clip-path="url(#clip-6)">
    <g clip-path="url(#clip-7)">
      <g clip-path="url(#clip-8)">
        <path fill-rule="nonzero" fill="url(#linear-pattern-2)" d="M 1280.230469 463.730469 L 1278.792969 463.648438 L 1278.589844 467.269531 L 1280.027344 467.351562 Z M 1280.230469 463.730469 "/>
      </g>
    </g>
  </g>
  <g clip-path="url(#clip-26)" style="" transform="matrix(1, 0, 0, 1.498868, 0, -482.904541)">
    <g clip-path="url(#clip-27)">
      <g clip-path="url(#clip-28)">
        <path fill-rule="nonzero" fill="url(#linear-pattern-7)" d="M 1969.332031 1512.933594 L 3130.679688 1422.332031 L 3088.457031 881.128906 L 1927.113281 971.730469 Z M 1969.332031 1512.933594 "/>
      </g>
    </g>
  </g>
  <g clip-path="url(#clip-29)">
    <g clip-path="url(#clip-30)">
      <g clip-path="url(#clip-31)">
        <path fill-rule="nonzero" fill="url(#linear-pattern-8)" d="M -187.734375 1335.632812 L 1116.082031 1774.542969 L 1430.734375 839.828125 L 126.917969 400.917969 Z M -187.734375 1335.632812 "/>
      </g>
    </g>
  </g>
  <g clip-path="url(#clip-72)"/>
</svg>